GeoramaCondensed-BlackItalic.ufo
<glyph name="exclam" format="2">
  <advance width="210.0"/>
  <unicode hex="0021"/>
  <outline>
    <contour>
      <point x="23.9" y="259.0" type="line"/>
      <point x="174.7" y="259.0" type="line"/>
      <point x="269.8" y="740.0" type="line"/>
      <point x="91.0" y="740.0" type="line"/>
    </contour>
    <contour>
      <point x="-19.9" y="68.2" type="curve" smooth="yes"/>
      <point x="-19.9" y="16.4"/>
      <point x="4.600000000000001" y="-10.0"/>
      <point x="59.2" y="-10.0" type="curve" smooth="yes"/>
      <point x="145.79999999999998" y="-10.0"/>
      <point x="175.20000000000002" y="79.1"/>
      <point x="175.20000000000002" y="146.2" type="curve" smooth="yes"/>
      <point x="175.20000000000002" y="198.0"/>
      <point x="150.7" y="224.4"/>
      <point x="96.2" y="224.4" type="curve" smooth="yes"/>
      <point x="10.9" y="224.4"/>
      <point x="-19.9" y="136.6"/>
    </contour>
  </outline>
</glyph>
<glyph name="numbersign" format="2">
  <advance width="483.0"/>
  <unicode hex="0023"/>
  <outline>
    <contour>
      <point x="81.0" y="391.90000000000003" type="line"/>
      <point x="119.3" y="391.90000000000003" type="line"/>
      <point x="97.5" y="298.20000000000005" type="line"/>
      <point x="55.9" y="298.20000000000005" type="line"/>
      <point x="30.7" y="138.89999999999998" type="line"/>
      <point x="62.89999999999999" y="138.89999999999998" type="line"/>
      <point x="33.0" y="0.0" type="line"/>
      <point x="162.79999999999998" y="0.0" type="line"/>
      <point x="192.7" y="138.89999999999998" type="line"/>
      <point x="223.70000000000002" y="138.89999999999998" type="line"/>
      <point x="193.79999999999998" y="0.0" type="line"/>
      <point x="322.70000000000005" y="0.0" type="line"/>
      <point x="352.59999999999997" y="138.89999999999998" type="line"/>
      <point x="400.09999999999997" y="138.89999999999998" type="line"/>
      <point x="425.2" y="298.20000000000005" type="line"/>
      <point x="387.4" y="298.20000000000005" type="line"/>
      <point x="409.0" y="391.90000000000003" type="line"/>
      <point x="450.3" y="391.90000000000003" type="line"/>
      <point x="476.4" y="552.8" type="line"/>
      <point x="443.59999999999997" y="552.8" type="line"/>
      <point x="476.0" y="700.0" type="line"/>
      <point x="346.2" y="700.0" type="line"/>
      <point x="313.8" y="552.8" type="line"/>
      <point x="282.8" y="552.8" type="line"/>
      <point x="315.2" y="700.0" type="line"/>
      <point x="186.3" y="700.0" type="line"/>
      <point x="153.9" y="552.8" type="line"/>
      <point x="107.0" y="552.8" type="line"/>
    </contour>
    <contour>
      <point x="248.2" y="391.90000000000003" type="line"/>
      <point x="279.2" y="391.90000000000003" type="line"/>
      <point x="258.3" y="298.20000000000005" type="line"/>
      <point x="227.3" y="298.20000000000005" type="line"/>
    </contour>
  </outline>
</glyph>
<glyph name="dollar" format="2">
  <advance width="483.0"/>
  <unicode hex="0024"/>
  <outline>
    <contour>
      <point x="480.40000000000003" y="673.3" type="line"/>
      <point x="457.3" y="685.7"/>
      <point x="418.8" y="699.3"/>
      <point x="375.8" y="705.3" type="curve"/>
      <point x="390.9" y="803.2" type="line"/>
      <point x="241.9" y="803.2" type="line"/>
      <point x="224.1" y="694.4" type="line"/>
      <point x="127.19999999999999" y="663.8000000000001"/>
      <point x="67.9" y="587.3000000000001"/>
      <point x="67.9" y="488.70000000000005" type="curve" smooth="yes"/>
      <point x="67.9" y="296.40000000000003"/>
      <point x="257.9" y="270.59999999999997"/>
      <point x="257.9" y="204.10000000000002" type="curve" smooth="yes"/>
      <point x="257.9" y="171.9"/>
      <point x="237.1" y="157.6"/>
      <point x="196.5" y="157.6" type="curve" smooth="yes"/>
      <point x="151.5" y="157.6"/>
      <point x="106.2" y="169.3"/>
      <point x="53.4" y="191.4" type="curve"/>
      <point x="-2.0999999999999996" y="33.7" type="line"/>
      <point x="32.6" y="13.6"/>
      <point x="74.5" y="1.4"/>
      <point x="113.6" y="-4.5" type="curve"/>
      <point x="98.6" y="-105.0" type="line"/>
      <point x="247.5" y="-105.0" type="line"/>
      <point x="262.5" y="-1.3" type="line"/>
      <point x="372.3" y="27.0"/>
      <point x="433.7" y="113.8"/>
      <point x="433.7" y="211.4" type="curve" smooth="yes"/>
      <point x="433.7" y="403.1"/>
      <point x="251.4" y="420.5"/>
      <point x="251.4" y="490.1" type="curve" smooth="yes"/>
      <point x="251.4" y="519.8000000000001"/>
      <point x="275.1" y="533.8"/>
      <point x="316.8" y="533.8" type="curve" smooth="yes"/>
      <point x="341.1" y="533.8"/>
      <point x="380.7" y="529.1999999999999"/>
      <point x="423.40000000000003" y="510.3" type="curve"/>
    </contour>
  </outline>
</glyph>
<glyph name="ampersand" format="2">
  <advance width="563.0"/>
  <unicode hex="0026"/>
  <outline>
    <contour>
      <point x="242.39999999999998" y="-10.0" type="curve" smooth="yes"/>
      <point x="425.2" y="-10.0"/>
      <point x="536.8000000000001" y="148.1"/>
      <point x="484.0" y="297.9" type="curve"/>
      <point x="346.9" y="282.7" type="line"/>
      <point x="406.5" y="214.1"/>
      <point x="338.7" y="150.6"/>
      <point x="270.0" y="150.6" type="curve" smooth="yes"/>
      <point x="204.0" y="150.6"/>
      <point x="172.0" y="188.3"/>
      <point x="172.0" y="242.1" type="curve" smooth="yes"/>
      <point x="172.0" y="299.0"/>
      <point x="205.7" y="356.7"/>
      <point x="263.0" y="356.7" type="curve" smooth="yes"/>
      <point x="285.2" y="356.7" type="line"/>
      <point x="314.5" y="475.5" type="line"/>
      <point x="294.9" y="479.4" type="line" smooth="yes"/>
      <point x="260.5" y="485.59999999999997"/>
      <point x="249.20000000000002" y="501.3"/>
      <point x="249.20000000000002" y="519.3000000000001" type="curve" smooth="yes"/>
      <point x="249.20000000000002" y="543.6"/>
      <point x="271.3" y="556.0999999999999"/>
      <point x="293.2" y="556.0999999999999" type="curve" smooth="yes"/>
      <point x="314.70000000000005" y="556.0999999999999"/>
      <point x="333.2" y="553.0"/>
      <point x="357.0" y="537.5" type="curve"/>
      <point x="436.5" y="671.6999999999999" type="line"/>
      <point x="384.5" y="697.1"/>
      <point x="338.6" y="710.0"/>
      <point x="274.7" y="710.0" type="curve" smooth="yes"/>
      <point x="156.29999999999998" y="710.0"/>
      <point x="84.3" y="628.6"/>
      <point x="84.3" y="543.6" type="curve" smooth="yes"/>
      <point x="84.3" y="496.7"/>
      <point x="104.8" y="462.7"/>
      <point x="152.6" y="426.6" type="curve"/>
      <point x="66.8" y="398.7"/>
      <point x="2.8999999999999995" y="327.5"/>
      <point x="2.8999999999999995" y="204.7" type="curve" smooth="yes"/>
      <point x="2.8999999999999995" y="85.3"/>
      <point x="81.7" y="-10.0"/>
    </contour>
    <contour>
      <point x="332.5" y="202.1" type="line"/>
      <point x="333.8" y="234.3"/>
      <point x="342.7" y="256.8"/>
      <point x="369.1" y="256.8" type="curve" smooth="yes"/>
      <point x="401.1" y="256.8"/>
      <point x="437.8" y="255.20000000000002"/>
      <point x="462.6" y="255.20000000000002" type="curve" smooth="yes"/>
      <point x="540.6" y="255.20000000000002"/>
      <point x="591.3000000000001" y="341.59999999999997"/>
      <point x="570.6" y="427.2" type="curve"/>
      <point x="465.79999999999995" y="427.2" type="line"/>
      <point x="463.90000000000003" y="368.8"/>
      <point x="441.59999999999997" y="361.70000000000005"/>
      <point x="394.4" y="361.70000000000005" type="curve" smooth="yes"/>
      <point x="378.3" y="361.70000000000005"/>
      <point x="362.5" y="363.5"/>
      <point x="346.4" y="363.5" type="curve" smooth="yes"/>
      <point x="255.79999999999998" y="363.5"/>
      <point x="227.20000000000002" y="288.3"/>
      <point x="225.9" y="219.89999999999998" type="curve"/>
    </contour>
  </outline>
</glyph>
<glyph name="quotesingle" format="2">
  <advance width="197.3"/>
  <unicode hex="0027"/>
  <outline>
    <contour>
      <point x="46.7" y="427.0" type="line"/>
      <point x="193.9" y="427.0" type="line"/>
      <point x="246.9" y="700.0" type="line"/>
      <point x="84.4" y="700.0" type="line"/>
    </contour>
  </outline>
</glyph>
<glyph name="parenleft" format="2">
  <advance width="265.1"/>
  <unicode hex="0028"/>
  <outline>
    <contour>
      <point x="7.7" y="52.3" type="curve" smooth="yes"/>
      <point x="7.7" y="-104.69999999999999"/>
      <point x="56.099999999999994" y="-203.29999999999998"/>
      <point x="170.70000000000002" y="-220.0" type="curve"/>
      <point x="197.60000000000002" y="-61.8" type="line"/>
      <point x="164.1" y="-41.6"/>
      <point x="147.3" y="-12.2"/>
      <point x="147.3" y="60.7" type="curve" smooth="yes"/>
      <point x="147.3" y="165.1"/>
      <point x="202.1" y="586.7"/>
      <point x="302.9" y="591.0" type="curve"/>
      <point x="328.0" y="750.0" type="line"/>
      <point x="81.4" y="750.1999999999999"/>
      <point x="7.7" y="295.29999999999995"/>
    </contour>
  </outline>
</glyph>
<glyph name="parenright" format="2">
  <advance width="265.1"/>
  <unicode hex="0029"/>
  <outline>
    <contour>
      <point x="254.3" y="477.7" type="curve" smooth="yes"/>
      <point x="254.3" y="635.2"/>
      <point x="205.9" y="733.3000000000001"/>
      <point x="91.3" y="750.0" type="curve"/>
      <point x="64.39999999999999" y="591.3" type="line"/>
      <point x="97.9" y="571.1"/>
      <point x="114.7" y="541.7"/>
      <point x="114.7" y="468.8" type="curve" smooth="yes"/>
      <point x="114.7" y="364.4"/>
      <point x="59.9" y="-56.7"/>
      <point x="-40.9" y="-61.0" type="curve"/>
      <point x="-66.0" y="-220.0" type="line"/>
      <point x="180.6" y="-219.4"/>
      <point x="254.3" y="235.70000000000002"/>
    </contour>
  </outline>
</glyph>
<glyph name="asterisk" format="2">
  <advance width="337.0"/>
  <unicode hex="002A"/>
  <outline>
    <contour>
      <point x="129.0" y="413.4" type="line"/>
      <point x="200.5" y="481.1" type="line"/>
      <point x="249.2" y="413.40000000000003" type="line"/>
      <point x="320.5" y="461.40000000000003" type="line"/>
      <point x="291.5" y="542.9" type="line"/>
      <point x="377.40000000000003" y="583.6" type="line"/>
      <point x="366.0" y="663.7" type="line"/>
      <point x="277.9" y="647.3000000000001" type="line"/>
      <point x="282.1" y="739.0" type="line"/>
      <point x="202.6" y="739.0" type="line"/>
      <point x="175.79999999999998" y="647.3000000000001" type="line"/>
      <point x="95.5" y="663.7" type="line"/>
      <point x="57.300000000000004" y="583.6" type="line"/>
      <point x="126.1" y="542.9" type="line"/>
      <point x="72.8" y="461.40000000000003" type="line"/>
    </contour>
  </outline>
</glyph>
<glyph name="plus" format="2">
  <advance width="422.5"/>
  <unicode hex="002B"/>
  <outline>
    <contour>
      <point x="116.0" y="155.4" type="line"/>
      <point x="268.70000000000005" y="155.4" type="line"/>
      <point x="283.3" y="247.5" type="line"/>
      <point x="374.0" y="247.5" type="line"/>
      <point x="399.90000000000003" y="412.0" type="line"/>
      <point x="309.2" y="412.0" type="line"/>
      <point x="323.9" y="504.0" type="line"/>
      <point x="171.4" y="504.0" type="line"/>
      <point x="156.5" y="412.0" type="line"/>
      <point x="66.10000000000001" y="412.0" type="line"/>
      <point x="40.199999999999996" y="247.5" type="line"/>
      <point x="130.79999999999998" y="247.5" type="line"/>
    </contour>
  </outline>
</glyph>
<glyph name="comma" format="2">
  <advance width="208.1"/>
  <unicode hex="002C"/>
  <outline>
    <contour>
      <point x="-4.9" y="111.0" type="line"/>
      <point x="-5.9" y="75.5"/>
      <point x="-9.9" y="44.4"/>
      <point x="-13.0" y="28.700000000000003" type="curve" smooth="yes"/>
      <point x="-22.5" y="-23.8"/>
      <point x="-56.7" y="-99.69999999999999"/>
      <point x="-83.5" y="-144.6" type="curve"/>
      <point x="41.9" y="-179.29999999999998" type="line"/>
      <point x="106.1" y="-98.7"/>
      <point x="155.4" y="-19.200000000000003"/>
      <point x="155.4" y="79.1" type="curve" smooth="yes"/>
      <point x="155.4" y="91.0"/>
      <point x="154.4" y="102.0"/>
      <point x="154.10000000000002" y="112.0" type="curve"/>
    </contour>
  </outline>
</glyph>
<glyph name="hyphen" format="2">
  <advance width="317.7"/>
  <unicode hex="002D"/>
  <outline>
    <contour>
      <point x="28.299999999999997" y="232.0" type="line"/>
      <point x="274.70000000000005" y="232.0" type="line"/>
      <point x="304.2" y="409.4" type="line"/>
      <point x="57.800000000000004" y="409.4" type="line"/>
    </contour>
  </outline>
</glyph>
<glyph name="period" format="2">
  <advance width="209.4"/>
  <unicode hex="002E"/>
  <outline>
    <contour>
      <point x="-18.6" y="70.9" type="curve" smooth="yes"/>
      <point x="-18.6" y="18.2"/>
      <point x="5.000000000000001" y="-7.3"/>
      <point x="60.5" y="-7.3" type="curve" smooth="yes"/>
      <point x="147.1" y="-7.3"/>
      <point x="175.6" y="81.8"/>
      <point x="175.6" y="150.7" type="curve" smooth="yes"/>
      <point x="175.6" y="201.6"/>
      <point x="152.0" y="227.1"/>
      <point x="97.5" y="227.1" type="curve" smooth="yes"/>
      <point x="11.3" y="227.1"/>
      <point x="-18.6" y="139.3"/>
    </contour>
  </outline>
</glyph>
<glyph name="slash" format="2">
  <advance width="391.9"/>
  <unicode hex="002F"/>
  <outline>
    <contour>
      <point x="-85.0" y="-210.0" type="line"/>
      <point x="60.9" y="-210.0" type="line"/>
      <point x="473.9" y="740.0" type="line"/>
      <point x="326.1" y="740.0" type="line"/>
    </contour>
  </outline>
</glyph>
<glyph name="zero" format="2">
  <advance width="483.0"/>
  <unicode hex="0030"/>
  <outline>
    <contour>
      <point x="210.5" y="-10.0" type="curve" smooth="yes"/>
      <point x="411.75000000000006" y="-10.0"/>
      <point x="483.0" y="267.25"/>
      <point x="483.0" y="489.75" type="curve" smooth="yes"/>
      <point x="483.0" y="638.25"/>
      <point x="426.0" y="710.0"/>
      <point x="295.5" y="710.0" type="curve" smooth="yes"/>
      <point x="101.75" y="710.0"/>
      <point x="23.0" y="432.75"/>
      <point x="23.0" y="210.25" type="curve" smooth="yes"/>
      <point x="23.0" y="61.75"/>
      <point x="80.0" y="-10.0"/>
    </contour>
    <contour>
      <point x="225.0" y="162.5" type="curve" smooth="yes"/>
      <point x="208.25" y="162.5"/>
      <point x="198.75" y="169.5"/>
      <point x="198.75" y="199.0" type="curve" smooth="yes"/>
      <point x="198.75" y="280.0"/>
      <point x="239.00000000000003" y="537.5"/>
      <point x="284.75" y="537.5" type="curve" smooth="yes"/>
      <point x="300.0" y="537.5"/>
      <point x="308.75" y="530.2500000000001"/>
      <point x="308.75" y="503.0" type="curve" smooth="yes"/>
      <point x="308.75" y="428.0"/>
      <point x="266.25" y="162.5"/>
    </contour>
  </outline>
</glyph>
<glyph name="one" format="2">
  <advance width="483.0"/>
  <unicode hex="0031"/>
  <outline>
    <contour>
      <point x="39.300000000000004" y="0.0" type="line"/>
      <point x="380.09999999999997" y="0.0" type="line"/>
      <point x="406.8" y="164.0" type="line"/>
      <point x="328.6" y="164.0" type="line"/>
      <point x="415.1" y="700.0" type="line"/>
      <point x="328.8" y="700.0" type="line"/>
      <point x="121.6" y="639.1" type="line"/>
      <point x="125.60000000000001" y="452.3" type="line"/>
      <point x="204.3" y="473.9" type="line"/>
      <point x="153.5" y="164.0" type="line"/>
      <point x="65.1" y="164.0" type="line"/>
    </contour>
  </outline>
</glyph>
<glyph name="two" format="2">
  <advance width="483.0"/>
  <unicode hex="0032"/>
  <outline>
    <contour>
      <point x="35.5" y="132.75" type="curve"/>
      <point x="14.5" y="0.0" type="line"/>
      <point x="377.0" y="0.0" type="line"/>
      <point x="402.25" y="149.75" type="line"/>
      <point x="242.0" y="149.75" type="line"/>
      <point x="351.75" y="274.75"/>
      <point x="452.00000000000006" y="388.5"/>
      <point x="452.00000000000006" y="538.5" type="curve" smooth="yes"/>
      <point x="452.00000000000006" y="645.7500000000001"/>
      <point x="392.0" y="710.0"/>
      <point x="296.50000000000006" y="710.0" type="curve" smooth="yes"/>
      <point x="221.5" y="710.0"/>
      <point x="151.25" y="683.7499999999999"/>
      <point x="96.49999999999999" y="647.0" type="curve"/>
      <point x="125.49999999999999" y="461.0" type="line"/>
      <point x="155.5" y="477.5"/>
      <point x="185.0" y="491.99999999999994"/>
      <point x="216.24999999999997" y="491.99999999999994" type="curve" smooth="yes"/>
      <point x="246.24999999999997" y="491.99999999999994"/>
      <point x="256.5" y="471.5"/>
      <point x="256.5" y="453.49999999999994" type="curve" smooth="yes"/>
      <point x="256.5" y="365.0"/>
      <point x="108.74999999999999" y="194.5"/>
    </contour>
  </outline>
</glyph>
<glyph name="three" format="2">
  <advance width="483.0"/>
  <unicode hex="0033"/>
  <outline>
    <contour>
      <point x="-3.75" y="38.5" type="line"/>
      <point x="41.75" y="8.25"/>
      <point x="90.0" y="-10.0"/>
      <point x="165.0" y="-10.0" type="curve" smooth="yes"/>
      <point x="285.0" y="-10.0"/>
      <point x="419.75" y="64.75"/>
      <point x="419.75" y="225.0" type="curve" smooth="yes"/>
      <point x="419.75" y="312.5"/>
      <point x="382.0" y="348.0"/>
      <point x="347.0" y="370.0" type="curve"/>
      <point x="416.25" y="416.0"/>
      <point x="461.5" y="470.0"/>
      <point x="461.5" y="556.0" type="curve" smooth="yes"/>
      <point x="461.5" y="657.75"/>
      <point x="400.5" y="710.0"/>
      <point x="288.0" y="710.0" type="curve" smooth="yes"/>
      <point x="212.25" y="710.0"/>
      <point x="143.75" y="687.5"/>
      <point x="94.5" y="652.75" type="curve"/>
      <point x="118.0" y="509.25" type="line"/>
      <point x="141.5" y="519.5"/>
      <point x="173.75" y="528.5"/>
      <point x="211.75" y="528.5" type="curve" smooth="yes"/>
      <point x="250.25" y="528.5"/>
      <point x="277.5" y="513.0"/>
      <point x="277.5" y="478.75" type="curve" smooth="yes"/>
      <point x="277.5" y="446.25"/>
      <point x="249.25" y="421.75"/>
      <point x="204.0" y="421.75" type="curve" smooth="yes"/>
      <point x="150.5" y="421.75" type="line"/>
      <point x="127.75" y="283.25" type="line"/>
      <point x="193.0" y="283.25" type="line" smooth="yes"/>
      <point x="233.75" y="283.25"/>
      <point x="250.5" y="260.5"/>
      <point x="250.5" y="233.25" type="curve" smooth="yes"/>
      <point x="250.5" y="190.5"/>
      <point x="221.75" y="164.25"/>
      <point x="167.25" y="164.25" type="curve" smooth="yes"/>
      <point x="132.5" y="164.25"/>
      <point x="104.0" y="171.25"/>
      <point x="74.0" y="187.75" type="curve"/>
    </contour>
  </outline>
</glyph>
<glyph name="four" format="2">
  <advance width="483.0"/>
  <unicode hex="0034"/>
  <outline>
    <contour>
      <point x="-1.25" y="81.75" type="line"/>
      <point x="181.0" y="81.75" type="line"/>
      <point x="168.0" y="0.0" type="line"/>
      <point x="350.5" y="0.0" type="line"/>
      <point x="363.5" y="81.75" type="line"/>
      <point x="417.25" y="81.75" type="line"/>
      <point x="440.75" y="232.0" type="line"/>
      <point x="388.0" y="232.0" type="line"/>
      <point x="463.75" y="700.0" type="line"/>
      <point x="270.25" y="700.0" type="line"/>
      <point x="21.75" y="228.0" type="line"/>
    </contour>
    <contour>
      <point x="134.5" y="232.0" type="line"/>
      <point x="252.25" y="469.5" type="line"/>
      <point x="212.75" y="232.0" type="line"/>
    </contour>
  </outline>
</glyph>
<glyph name="five" format="2">
  <advance width="483.0"/>
  <unicode hex="0035"/>
  <outline>
    <contour>
      <point x="-2.25" y="30.249999999999996" type="line"/>
      <point x="41.5" y="2.75"/>
      <point x="91.25" y="-10.0"/>
      <point x="166.0" y="-10.0" type="curve" smooth="yes"/>
      <point x="349.75" y="-10.0"/>
      <point x="431.75" y="129.25"/>
      <point x="431.75" y="276.75" type="curve" smooth="yes"/>
      <point x="431.75" y="386.5"/>
      <point x="380.50000000000006" y="428.99999999999994"/>
      <point x="297.5" y="434.0" type="curve" smooth="yes"/>
      <point x="262.5" y="435.74999999999994" type="line"/>
      <point x="284.25" y="525.0000000000001" type="line"/>
      <point x="453.25" y="525.0000000000001" type="line"/>
      <point x="480.0" y="700.0" type="line"/>
      <point x="179.0" y="700.0" type="line"/>
      <point x="75.49999999999999" y="290.99999999999994" type="line"/>
      <point x="80.75" y="278.75" type="line"/>
      <point x="182.75" y="278.75" type="line" smooth="yes"/>
      <point x="229.25000000000003" y="278.75"/>
      <point x="246.75" y="265.0"/>
      <point x="246.75" y="227.5" type="curve" smooth="yes"/>
      <point x="246.75" y="196.75"/>
      <point x="226.25" y="165.5"/>
      <point x="161.0" y="165.5" type="curve" smooth="yes"/>
      <point x="117.75" y="165.5"/>
      <point x="83.0" y="176.5"/>
      <point x="56.75" y="188.5" type="curve"/>
    </contour>
  </outline>
</glyph>
<glyph name="six" format="2">
  <advance width="483.0"/>
  <unicode hex="0036"/>
  <note>
14
</note>
  <outline>
    <contour>
      <point x="218.25" y="-10.0" type="curve" smooth="yes"/>
      <point x="367.5" y="-10.0"/>
      <point x="452.5" y="123.25"/>
      <point x="452.5" y="315.25" type="curve" smooth="yes"/>
      <point x="452.5" y="421.25"/>
      <point x="401.25" y="463.0"/>
      <point x="332.5" y="463.0" type="curve" smooth="yes"/>
      <point x="287.25" y="463.0"/>
      <point x="252.25" y="450.0"/>
      <point x="215.75" y="418.0" type="curve"/>
      <point x="201.75" y="292.0" type="line"/>
      <point x="218.5" y="309.0"/>
      <point x="232.75" y="316.0"/>
      <point x="247.75" y="316.0" type="curve" smooth="yes"/>
      <point x="273.0" y="316.0"/>
      <point x="280.75" y="303.0"/>
      <point x="280.75" y="269.5" type="curve" smooth="yes"/>
      <point x="280.75" y="218.75"/>
      <point x="258.0" y="150.0"/>
      <point x="231.5" y="150.0" type="curve" smooth="yes"/>
      <point x="211.0" y="150.0"/>
      <point x="202.0" y="160.75"/>
      <point x="202.0" y="184.0" type="curve" smooth="yes"/>
      <point x="202.0" y="241.75"/>
      <point x="214.5" y="307.0"/>
      <point x="239.5" y="413.25" type="curve" smooth="yes"/>
      <point x="259.25" y="497.0"/>
      <point x="294.75" y="540.5"/>
      <point x="366.75" y="540.5" type="curve" smooth="yes"/>
      <point x="397.0" y="540.5"/>
      <point x="419.0" y="529.75"/>
      <point x="439.5" y="518.0" type="curve"/>
      <point x="508.5" y="670.0" type="line"/>
      <point x="488.5" y="686.5"/>
      <point x="429.75" y="710.0"/>
      <point x="363.0" y="710.0" type="curve" smooth="yes"/>
      <point x="136.25" y="710.0"/>
      <point x="32.0" y="477.0"/>
      <point x="32.0" y="205.0" type="curve" smooth="yes"/>
      <point x="32.0" y="51.0"/>
      <point x="98.0" y="-10.0"/>
    </contour>
  </outline>
</glyph>
<glyph name="seven" format="2">
  <advance width="483.0"/>
  <unicode hex="0037"/>
  <note>
9
</note>
  <outline>
    <contour>
      <point x="65.8" y="0.0" type="curve"/>
      <point x="251.6" y="0.0" type="line"/>
      <point x="273.8" y="124.2"/>
      <point x="303.09999999999997" y="203.1"/>
      <point x="382.40000000000003" y="361.5" type="curve" smooth="yes"/>
      <point x="486.29999999999995" y="567.4" type="line"/>
      <point x="507.09999999999997" y="700.0" type="line"/>
      <point x="120.30000000000001" y="700.0" type="line"/>
      <point x="92.60000000000001" y="526.9" type="line"/>
      <point x="290.0" y="526.9" type="line"/>
      <point x="197.79999999999998" y="366.4" type="line" smooth="yes"/>
      <point x="124.5" y="238.7"/>
      <point x="87.6" y="133.2"/>
    </contour>
  </outline>
</glyph>
<glyph name="eight" format="2">
  <advance width="498.5"/>
  <unicode hex="0038"/>
  <outline>
    <contour>
      <point x="225.5" y="-10.0" type="curve" smooth="yes"/>
      <point x="358.5" y="-10.0"/>
      <point x="457.25" y="49.75"/>
      <point x="457.25" y="211.0" type="curve" smooth="yes"/>
      <point x="457.25" y="413.25"/>
      <point x="237.0" y="412.0"/>
      <point x="237.0" y="513.5" type="curve" smooth="yes"/>
      <point x="237.0" y="541.75"/>
      <point x="265.25" y="552.0"/>
      <point x="294.5" y="552.0" type="curve" smooth="yes"/>
      <point x="326.5" y="552.0"/>
      <point x="346.75" y="536.0"/>
      <point x="346.75" y="504.75" type="curve" smooth="yes"/>
      <point x="346.75" y="466.25"/>
      <point x="312.75" y="444.5"/>
      <point x="297.25" y="428.0" type="curve"/>
      <point x="364.25" y="357.5" type="line"/>
      <point x="430.25" y="398.0"/>
      <point x="497.75" y="459.5"/>
      <point x="497.75" y="550.75" type="curve" smooth="yes"/>
      <point x="497.75" y="636.0"/>
      <point x="446.25" y="710.0"/>
      <point x="303.25" y="710.0" type="curve" smooth="yes"/>
      <point x="156.25" y="710.0"/>
      <point x="78.0" y="629.5"/>
      <point x="78.0" y="504.75" type="curve" smooth="yes"/>
      <point x="78.0" y="300.5"/>
      <point x="295.25" y="305.25"/>
      <point x="295.25" y="196.25" type="curve" smooth="yes"/>
      <point x="295.25" y="151.5"/>
      <point x="266.75" y="141.0"/>
      <point x="232.5" y="141.0" type="curve" smooth="yes"/>
      <point x="196.5" y="141.0"/>
      <point x="174.25" y="161.25"/>
      <point x="174.25" y="188.25" type="curve" smooth="yes"/>
      <point x="174.25" y="243.5"/>
      <point x="211.0" y="265.5"/>
      <point x="234.0" y="275.75" type="curve"/>
      <point x="163.0" y="361.5" type="line"/>
      <point x="75.5" y="343.0"/>
      <point x="10.5" y="257.0"/>
      <point x="10.5" y="167.25" type="curve" smooth="yes"/>
      <point x="10.5" y="68.25"/>
      <point x="68.75" y="-10.0"/>
    </contour>
  </outline>
</glyph>
<glyph name="nine" format="2">
  <advance width="483.0"/>
  <unicode hex="0039"/>
  <outline>
    <contour>
      <point x="291.75" y="710.0" type="curve" smooth="yes"/>
      <point x="143.5" y="710.0"/>
      <point x="57.5" y="577.25"/>
      <point x="57.5" y="388.5" type="curve" smooth="yes"/>
      <point x="57.5" y="278.0"/>
      <point x="111.25" y="237.0"/>
      <point x="180.0" y="237.0" type="curve" smooth="yes"/>
      <point x="225.25" y="237.0"/>
      <point x="257.75" y="250.0"/>
      <point x="294.25" y="282.0" type="curve"/>
      <point x="308.25" y="408.0" type="line"/>
      <point x="291.5" y="391.0"/>
      <point x="277.25" y="384.0"/>
      <point x="262.25" y="384.0" type="curve" smooth="yes"/>
      <point x="237.0" y="384.0"/>
      <point x="229.25" y="397.0"/>
      <point x="229.25" y="430.5" type="curve" smooth="yes"/>
      <point x="229.25" y="481.25"/>
      <point x="252.0" y="550.0"/>
      <point x="277.75" y="550.0" type="curve" smooth="yes"/>
      <point x="296.75" y="550.0"/>
      <point x="307.25" y="538.5"/>
      <point x="307.25" y="517.5" type="curve" smooth="yes"/>
      <point x="307.25" y="472.5"/>
      <point x="296.5" y="392.5"/>
      <point x="271.5" y="286.25" type="curve" smooth="yes"/>
      <point x="252.0" y="202.25"/>
      <point x="220.75" y="158.25"/>
      <point x="146.25" y="158.25" type="curve" smooth="yes"/>
      <point x="116.0" y="158.25"/>
      <point x="91.0" y="170.25"/>
      <point x="70.5" y="182.0" type="curve"/>
      <point x="1.5" y="30.0" type="line"/>
      <point x="22.25" y="13.5"/>
      <point x="84.0" y="-10.0"/>
      <point x="154.5" y="-10.0" type="curve" smooth="yes"/>
      <point x="376.0" y="-10.0"/>
      <point x="477.25" y="223.0"/>
      <point x="477.25" y="495.0" type="curve" smooth="yes"/>
      <point x="477.25" y="649.0"/>
      <point x="412.0" y="710.0"/>
    </contour>
  </outline>
</glyph>
<glyph name="less" format="2">
  <advance width="418.0"/>
  <unicode hex="003C"/>
  <outline>
    <contour>
      <point x="365.4" y="99.3" type="line"/>
      <point x="388.6" y="248.4" type="line"/>
      <point x="187.3" y="312.6" type="line"/>
      <point x="409.5" y="377.6" type="line"/>
      <point x="432.70000000000005" y="526.0" type="line"/>
      <point x="43.6" y="395.3" type="line"/>
      <point x="17.6" y="231.1" type="line"/>
    </contour>
  </outline>
</glyph>
<glyph name="equal" format="2">
  <advance width="384.8"/>
  <unicode hex="003D"/>
  <outline>
    <contour>
      <point x="340.3" y="282.4" type="line"/>
      <point x="47.9" y="282.4" type="line"/>
      <point x="23.799999999999997" y="117.9" type="line"/>
      <point x="316.2" y="117.9" type="line"/>
    </contour>
    <contour>
      <point x="372.3" y="508.3" type="line"/>
      <point x="80.7" y="508.3" type="line"/>
      <point x="55.8" y="343.8" type="line"/>
      <point x="348.2" y="343.8" type="line"/>
    </contour>
  </outline>
</glyph>
<glyph name="greater" format="2">
  <advance width="418.0"/>
  <unicode hex="003E"/>
  <outline>
    <contour>
      <point x="385.8" y="231.10000000000002" type="line"/>
      <point x="411.59999999999997" y="393.79999999999995" type="line"/>
      <point x="64.9" y="525.0" type="line"/>
      <point x="41.5" y="377.6" type="line"/>
      <point x="243.79999999999998" y="312.59999999999997" type="line"/>
      <point x="20.799999999999997" y="248.4" type="line"/>
      <point x="-2.5" y="99.3" type="line"/>
    </contour>
  </outline>
</glyph>
<glyph name="question" format="2">
  <advance width="388.1"/>
  <unicode hex="003F"/>
  <outline>
    <contour>
      <point x="92.9" y="259.0" type="line"/>
      <point x="244.6" y="259.0" type="line"/>
      <point x="256.40000000000003" y="329.1" type="line"/>
      <point x="354.90000000000003" y="367.0"/>
      <point x="423.1" y="469.09999999999997"/>
      <point x="423.1" y="575.6999999999999" type="curve" smooth="yes"/>
      <point x="423.1" y="692.5"/>
      <point x="360.6" y="750.0"/>
      <point x="256.4" y="750.0" type="curve" smooth="yes"/>
      <point x="188.1" y="750.0"/>
      <point x="119.9" y="729.9000000000001"/>
      <point x="73.2" y="692.5" type="curve"/>
      <point x="107.6" y="525.5999999999999" type="line"/>
      <point x="136.20000000000002" y="545.6"/>
      <point x="159.1" y="557.5"/>
      <point x="180.6" y="557.5" type="curve" smooth="yes"/>
      <point x="208.79999999999998" y="557.5"/>
      <point x="221.1" y="541.3000000000001"/>
      <point x="221.1" y="521.3000000000001" type="curve" smooth="yes"/>
      <point x="221.1" y="470.09999999999997"/>
      <point x="168.1" y="432.90000000000003"/>
      <point x="114.89999999999999" y="412.5" type="curve"/>
    </contour>
    <contour>
      <point x="48.00000000000001" y="66.4" type="curve" smooth="yes"/>
      <point x="48.0" y="15.5"/>
      <point x="71.6" y="-10.0"/>
      <point x="125.3" y="-10.0" type="curve" smooth="yes"/>
      <point x="211.9" y="-10.0"/>
      <point x="241.29999999999998" y="75.5"/>
      <point x="241.3" y="145.29999999999998" type="curve" smooth="yes"/>
      <point x="241.3" y="198.0"/>
      <point x="218.6" y="224.4"/>
      <point x="165.0" y="224.4" type="curve" smooth="yes"/>
      <point x="77.0" y="224.4"/>
      <point x="48.0" y="136.6"/>
    </contour>
  </outline>
</glyph>
<glyph name="at" format="2">
  <advance width="834.0"/>
  <unicode hex="0040"/>
  <outline>
    <contour>
      <point x="369.25" y="-123.25" type="curve" smooth="yes"/>
      <point x="416.0" y="-123.25"/>
      <point x="504.0" y="-107.0"/>
      <point x="552.25" y="-86.75" type="curve"/>
      <point x="535.75" y="-18.75" type="line"/>
      <point x="479.0" y="-34.5"/>
      <point x="421.5" y="-44.0"/>
      <point x="370.5" y="-44.0" type="curve" smooth="yes"/>
      <point x="225.0" y="-44.0"/>
      <point x="109.75" y="27.5"/>
      <point x="109.75" y="227.75" type="curve" smooth="yes"/>
      <point x="109.75" y="400.0"/>
      <point x="232.25" y="636.5"/>
      <point x="471.75" y="636.5" type="curve" smooth="yes"/>
      <point x="647.0" y="636.5"/>
      <point x="734.0" y="543.5"/>
      <point x="734.0" y="368.25" type="curve" smooth="yes"/>
      <point x="734.0" y="307.5"/>
      <point x="724.0" y="155.5"/>
      <point x="631.25" y="155.5" type="curve" smooth="yes"/>
      <point x="579.75" y="155.5"/>
      <point x="573.5" y="188.0"/>
      <point x="587.75" y="244.0" type="curve" smooth="yes"/>
      <point x="660.0" y="519.75" type="line"/>
      <point x="606.5" y="546.5"/>
      <point x="549.0" y="563.75"/>
      <point x="476.5" y="563.75" type="curve" smooth="yes"/>
      <point x="275.25" y="563.75"/>
      <point x="194.75" y="324.75"/>
      <point x="194.75" y="181.5" type="curve" smooth="yes"/>
      <point x="194.75" y="89.0"/>
      <point x="238.0" y="42.5"/>
      <point x="308.75" y="42.5" type="curve" smooth="yes"/>
      <point x="365.0" y="42.5"/>
      <point x="410.0" y="82.5"/>
      <point x="450.0" y="123.75" type="curve"/>
      <point x="472.0" y="61.25"/>
      <point x="520.0" y="38.25"/>
      <point x="592.5" y="38.25" type="curve" smooth="yes"/>
      <point x="759.5" y="38.25"/>
      <point x="817.25" y="224.5"/>
      <point x="817.25" y="382.5" type="curve" smooth="yes"/>
      <point x="817.25" y="593.75"/>
      <point x="675.25" y="714.0"/>
      <point x="489.5" y="714.0" type="curve" smooth="yes"/>
      <point x="179.75" y="714.0"/>
      <point x="24.75" y="452.25"/>
      <point x="24.75" y="209.0" type="curve" smooth="yes"/>
      <point x="24.75" y="0.0"/>
      <point x="151.75" y="-123.25"/>
    </contour>
    <contour>
      <point x="395.0" y="207.5" type="curve" smooth="yes"/>
      <point x="377.25" y="207.5"/>
      <point x="367.0" y="217.75"/>
      <point x="367.0" y="234.25" type="curve" smooth="yes"/>
      <point x="367.0" y="263.5"/>
      <point x="416.0" y="433.5"/>
      <point x="463.25" y="433.5" type="curve" smooth="yes"/>
      <point x="473.5" y="433.5"/>
      <point x="480.0" y="431.25"/>
      <point x="488.5" y="427.0" type="curve"/>
      <point x="434.25" y="217.0" type="line" smooth="yes"/>
      <point x="424.75" y="213.0"/>
      <point x="409.0" y="207.5"/>
    </contour>
  </outline>
</glyph>
<glyph name="A" format="2">
  <advance width="477.9"/>
  <unicode hex="0041"/>
  <anchor x="195.55" y="0.0" name="bottom"/>
  <anchor x="431.8" y="0.0" name="ogonek"/>
  <anchor x="299.85" y="700.0" name="top"/>
  <outline>
    <contour>
      <point x="-41.9" y="0.0" type="line"/>
      <point x="142.9" y="0.0" type="line"/>
      <point x="167.75" y="96.4" type="line"/>
      <point x="251.55" y="96.4" type="line"/>
      <point x="245.75" y="0.0" type="line"/>
      <point x="431.8" y="0.0" type="line"/>
      <point x="432.95" y="701.0" type="line"/>
      <point x="168.75" y="701.0" type="line"/>
    </contour>
    <contour>
      <point x="211.1" y="259.4" type="line"/>
      <point x="282.05" y="569.15" type="line"/>
      <point x="261.6" y="259.4" type="line"/>
    </contour>
  </outline>
</glyph>
<glyph name="B" format="2">
  <advance width="458.2"/>
  <unicode hex="0042"/>
  <outline>
    <contour>
      <point x="-14.2" y="5.0" type="line"/>
      <point x="65.2" y="-5.8"/>
      <point x="109.5" y="-10.0"/>
      <point x="186.1" y="-10.0" type="curve" smooth="yes"/>
      <point x="360.09999999999997" y="-10.0"/>
      <point x="443.90000000000003" y="110.7"/>
      <point x="443.90000000000003" y="257.8" type="curve" smooth="yes"/>
      <point x="443.90000000000003" y="317.79999999999995"/>
      <point x="423.90000000000003" y="367.2"/>
      <point x="384.3" y="388.4" type="curve"/>
      <point x="444.1" y="428.4"/>
      <point x="474.1" y="488.8"/>
      <point x="474.1" y="559.1999999999999" type="curve" smooth="yes"/>
      <point x="474.1" y="649.8"/>
      <point x="418.8" y="710.0"/>
      <point x="289.0" y="710.0" type="curve" smooth="yes"/>
      <point x="253.39999999999998" y="710.0"/>
      <point x="185.5" y="706.9"/>
      <point x="94.4" y="695.0" type="curve"/>
    </contour>
    <contour>
      <point x="227.2" y="425.0" type="line"/>
      <point x="246.20000000000002" y="547.6" type="line"/>
      <point x="258.1" y="549.6999999999999"/>
      <point x="263.3" y="551.6"/>
      <point x="275.0" y="551.6" type="curve" smooth="yes"/>
      <point x="296.7" y="551.6"/>
      <point x="305.4" y="541.9"/>
      <point x="305.4" y="510.8" type="curve" smooth="yes"/>
      <point x="305.4" y="449.5"/>
      <point x="280.1" y="425.0"/>
      <point x="254.20000000000002" y="425.0" type="curve" smooth="yes"/>
    </contour>
    <contour>
      <point x="203.5" y="275.3" type="line"/>
      <point x="234.5" y="275.3" type="line" smooth="yes"/>
      <point x="258.3" y="275.3"/>
      <point x="268.20000000000005" y="262.70000000000005"/>
      <point x="268.20000000000005" y="236.5" type="curve" smooth="yes"/>
      <point x="268.20000000000005" y="174.60000000000002"/>
      <point x="245.2" y="147.5"/>
      <point x="209.1" y="147.5" type="curve" smooth="yes"/>
      <point x="204.2" y="147.5"/>
      <point x="193.9" y="147.7"/>
      <point x="183.5" y="150.6" type="curve"/>
    </contour>
  </outline>
</glyph>
<glyph name="C" format="2">
  <advance width="401.00000000000006"/>
  <unicode hex="0043"/>
  <anchor x="198.25000000000003" y="0.0" name="bottom"/>
  <anchor x="316.25000000000006" y="700.0" name="top"/>
  <outline>
    <contour>
      <point x="240.25" y="-10.0" type="curve" smooth="yes"/>
      <point x="282.24999999999994" y="-10.0"/>
      <point x="317.75" y="-6.0"/>
      <point x="355.0" y="6.500000000000001" type="curve"/>
      <point x="349.0" y="163.25" type="line"/>
      <point x="326.5" y="158.25"/>
      <point x="302.0" y="154.0"/>
      <point x="282.00000000000006" y="154.0" type="curve" smooth="yes"/>
      <point x="227.0" y="154.0"/>
      <point x="197.0" y="172.5"/>
      <point x="197.0" y="255.75" type="curve" smooth="yes"/>
      <point x="197.0" y="408.25"/>
      <point x="242.75" y="546.0"/>
      <point x="331.5" y="546.0" type="curve" smooth="yes"/>
      <point x="357.5" y="546.0"/>
      <point x="380.0" y="540.75"/>
      <point x="404.0" y="531.5" type="curve"/>
      <point x="456.75" y="680.0" type="line"/>
      <point x="419.0" y="700.75"/>
      <point x="368.5" y="710.0"/>
      <point x="319.24999999999994" y="710.0" type="curve" smooth="yes"/>
      <point x="132.0" y="710.0"/>
      <point x="17.25" y="517.5"/>
      <point x="17.25" y="224.25000000000003" type="curve" smooth="yes"/>
      <point x="17.25" y="64.5"/>
      <point x="97.99999999999999" y="-10.0"/>
    </contour>
  </outline>
</glyph>
<glyph name="D" format="2">
  <advance width="479.24999999999994"/>
  <unicode hex="0044"/>
  <anchor x="192.0" y="0.0" name="bottom"/>
  <anchor x="251.65925000000001" y="350.0" name="center"/>
  <anchor x="282.5" y="700.0" name="top"/>
  <outline>
    <contour>
      <point x="179.24999999999997" y="-10.0" type="curve" smooth="yes"/>
      <point x="385.75" y="-10.0"/>
      <point x="482.75" y="186.0"/>
      <point x="482.75" y="463.5" type="curve" smooth="yes"/>
      <point x="482.75" y="637.4999999999999"/>
      <point x="408.0" y="710.0"/>
      <point x="259.0" y="710.0" type="curve" smooth="yes"/>
      <point x="206.25" y="710.0"/>
      <point x="157.25" y="707.0"/>
      <point x="94.5" y="698.2499999999999" type="curve"/>
      <point x="-16.0" y="4.5" type="line"/>
      <point x="42.0" y="-5.0"/>
      <point x="106.75" y="-10.0"/>
    </contour>
    <contour>
      <point x="204.75" y="143.5" type="curve" smooth="yes"/>
      <point x="194.0" y="143.5"/>
      <point x="188.75" y="144.75000000000003"/>
      <point x="181.75" y="145.75" type="curve"/>
      <point x="245.5" y="545.5" type="line"/>
      <point x="252.0" y="546.5"/>
      <point x="258.5" y="547.5"/>
      <point x="268.00000000000006" y="547.5" type="curve" smooth="yes"/>
      <point x="296.50000000000006" y="547.5"/>
      <point x="306.0" y="523.75"/>
      <point x="306.0" y="463.75" type="curve" smooth="yes"/>
      <point x="306.0" y="331.25"/>
      <point x="258.49999999999994" y="143.5"/>
    </contour>
  </outline>
</glyph>
<glyph name="E" format="2">
  <advance width="397.70000000000005"/>
  <unicode hex="0045"/>
  <anchor x="162.70000000000002" y="0.0" name="bottom"/>
  <anchor x="340.6" y="0.0" name="ogonek"/>
  <anchor x="270.2" y="700.0" name="top"/>
  <anchor x="87.313" y="700.0" name="topleft"/>
  <outline>
    <contour>
      <point x="-16.1" y="0.0" type="line"/>
      <point x="340.6" y="0.0" type="line"/>
      <point x="366.5" y="162.7" type="line"/>
      <point x="184.0" y="162.7" type="line"/>
      <point x="201.10000000000002" y="272.7" type="line"/>
      <point x="350.0" y="272.7" type="line"/>
      <point x="375.5" y="423.9" type="line"/>
      <point x="225.7" y="423.9" type="line"/>
      <point x="242.8" y="532.8" type="line"/>
      <point x="414.40000000000003" y="532.8" type="line"/>
      <point x="442.1" y="700.0" type="line"/>
      <point x="94.4" y="700.0" type="line"/>
    </contour>
  </outline>
</glyph>
<glyph name="F" format="2">
  <advance width="385.4"/>
  <unicode hex="0046"/>
  <outline>
    <contour>
      <point x="-17.0" y="0.0" type="line"/>
      <point x="158.8" y="0.0" type="line"/>
      <point x="193.10000000000002" y="213.8" type="line"/>
      <point x="334.79999999999995" y="213.8" type="line"/>
      <point x="361.7" y="381.5" type="line"/>
      <point x="219.1" y="381.5" type="line"/>
      <point x="243.1" y="531.3" type="line"/>
      <point x="411.4" y="531.3" type="line"/>
      <point x="439.4" y="700.0" type="line"/>
      <point x="94.4" y="700.0" type="line"/>
    </contour>
  </outline>
</glyph>
<glyph name="G" format="2">
  <advance width="450.9"/>
  <unicode hex="0047"/>
  <anchor x="230.4" y="0.0" name="bottom"/>
  <anchor x="322.9" y="700.0" name="top"/>
  <outline>
    <contour>
      <point x="231.70000000000002" y="-10.0" type="curve" smooth="yes"/>
      <point x="290.1" y="-10.0"/>
      <point x="353.5" y="2.5"/>
      <point x="395.0" y="32.8" type="curve"/>
      <point x="456.1" y="416.3" type="line"/>
      <point x="256.40000000000003" y="416.3" type="line"/>
      <point x="233.60000000000002" y="271.0" type="line"/>
      <point x="278.40000000000003" y="271.0" type="line"/>
      <point x="258.90000000000003" y="149.3" type="line"/>
      <point x="254.39999999999998" y="146.5"/>
      <point x="242.20000000000002" y="144.7"/>
      <point x="231.8" y="144.7" type="curve" smooth="yes"/>
      <point x="202.5" y="144.7"/>
      <point x="187.6" y="161.6"/>
      <point x="187.6" y="234.9" type="curve" smooth="yes"/>
      <point x="187.6" y="383.20000000000005"/>
      <point x="233.0" y="545.5"/>
      <point x="328.0" y="545.5" type="curve" smooth="yes"/>
      <point x="368.9" y="545.5"/>
      <point x="401.20000000000005" y="533.4"/>
      <point x="425.5" y="525.3" type="curve"/>
      <point x="479.2" y="679.8000000000001" type="line"/>
      <point x="431.29999999999995" y="701.8"/>
      <point x="377.29999999999995" y="710.0"/>
      <point x="322.0" y="710.0" type="curve" smooth="yes"/>
      <point x="91.89999999999999" y="710.0"/>
      <point x="15.7" y="427.4"/>
      <point x="15.7" y="224.4" type="curve" smooth="yes"/>
      <point x="15.7" y="70.2"/>
      <point x="97.6" y="-10.0"/>
    </contour>
  </outline>
</glyph>
<glyph name="H" format="2">
  <advance width="473.4"/>
  <unicode hex="0048"/>
  <anchor x="193.14399999999998" y="0.0" name="bottom"/>
  <anchor x="248.579" y="350.0" name="center"/>
  <anchor x="304.013" y="700.0" name="top"/>
  <anchor x="87.313" y="700.0" name="topleft"/>
  <outline>
    <contour>
      <point x="-17.0" y="0.0" type="line"/>
      <point x="158.8" y="0.0" type="line"/>
      <point x="196.4" y="240.2" type="line"/>
      <point x="264.9" y="240.2" type="line"/>
      <point x="228.0" y="0.0" type="line"/>
      <point x="402.0" y="0.0" type="line"/>
      <point x="513.4000000000001" y="700.0" type="line"/>
      <point x="338.59999999999997" y="700.0" type="line"/>
      <point x="291.09999999999997" y="402.8" type="line"/>
      <point x="222.6" y="402.8" type="line"/>
      <point x="270.2" y="700.0" type="line"/>
      <point x="94.4" y="700.0" type="line"/>
    </contour>
  </outline>
</glyph>
<glyph name="I" format="2">
  <advance width="230.20000000000002"/>
  <unicode hex="0049"/>
  <anchor x="71.4996" y="0.0" name="bottom"/>
  <anchor x="161.52519999999998" y="9.0" name="ogonek"/>
  <anchor x="182.38169999999997" y="700.0" name="top"/>
  <anchor x="87.2817" y="700.0" name="topleft"/>
  <outline>
    <contour>
      <point x="-17.0" y="0.0" type="line"/>
      <point x="158.8" y="0.0" type="line"/>
      <point x="270.2" y="700.0" type="line"/>
      <point x="94.4" y="700.0" type="line"/>
    </contour>
  </outline>
</glyph>
<glyph name="J" format="2">
  <advance width="344.6"/>
  <unicode hex="004A"/>
  <anchor x="128.79960000000003" y="0.0" name="bottom"/>
  <anchor x="247.6" y="700.0" name="top"/>
  <outline>
    <contour>
      <point x="-36.9" y="25.4" type="line"/>
      <point x="0.20000000000000018" y="5.699999999999999"/>
      <point x="47.400000000000006" y="-10.0"/>
      <point x="110.30000000000001" y="-10.0" type="curve" smooth="yes"/>
      <point x="215.0" y="-10.0"/>
      <point x="285.0" y="62.900000000000006"/>
      <point x="308.5" y="206.1" type="curve" smooth="yes"/>
      <point x="387.2" y="700.0" type="line"/>
      <point x="109.2" y="700.0" type="line"/>
      <point x="83.7" y="541.7" type="line"/>
      <point x="185.9" y="541.7" type="line"/>
      <point x="143.39999999999998" y="275.1" type="line" smooth="yes"/>
      <point x="129.4" y="187.79999999999998"/>
      <point x="112.0" y="170.8"/>
      <point x="75.1" y="170.8" type="curve" smooth="yes"/>
      <point x="60.1" y="170.8"/>
      <point x="34.9" y="176.89999999999998"/>
      <point x="12.3" y="184.3" type="curve"/>
    </contour>
  </outline>
</glyph>
<glyph name="K" format="2">
  <advance width="487.95"/>
  <unicode hex="004B"/>
  <anchor x="220.25" y="0.0" name="bottom"/>
  <anchor x="312.35" y="700.0" name="top"/>
  <outline>
    <contour>
      <point x="-17.15" y="0.0" type="line"/>
      <point x="158.9" y="0.0" type="line"/>
      <point x="270.05" y="700.0" type="line"/>
      <point x="94.6" y="700.0" type="line"/>
    </contour>
    <contour>
      <point x="373.7" y="-9.9" type="curve" smooth="yes"/>
      <point x="393.65" y="-9.9"/>
      <point x="425.6" y="-1.75"/>
      <point x="434.65" y="2.1" type="curve"/>
      <point x="455.45" y="216.3" type="line"/>
      <point x="450.6" y="216.35"/>
      <point x="446.0" y="216.25"/>
      <point x="441.4" y="216.25" type="curve" smooth="yes"/>
      <point x="415.9" y="216.25"/>
      <point x="385.45" y="230.0"/>
      <point x="353.9" y="276.2" type="curve" smooth="yes"/>
      <point x="202.85" y="494.85" type="line"/>
      <point x="170.15" y="242.55" type="line"/>
      <point x="268.75" y="65.7" type="line" smooth="yes"/>
      <point x="295.0" y="17.6"/>
      <point x="324.6" y="-9.9"/>
    </contour>
    <contour>
      <point x="304.15" y="270.7" type="line"/>
      <point x="423.55" y="384.7"/>
      <point x="504.35" y="507.15"/>
      <point x="537.5" y="645.7" type="curve"/>
      <point x="384.9" y="701.9" type="line"/>
      <point x="346.6" y="587.35"/>
      <point x="293.4" y="479.85"/>
      <point x="226.8" y="415.5" type="curve"/>
    </contour>
  </outline>
</glyph>
<glyph name="L" format="2">
  <advance width="377.0"/>
  <unicode hex="004C"/>
  <anchor x="163.4" y="0.0" name="bottom"/>
  <anchor x="200.379" y="350.0" name="center"/>
  <anchor x="182.3" y="700.0" name="top"/>
  <anchor x="307.8" y="700.0" name="topright"/>
  <outline>
    <contour>
      <point x="-17.0" y="0.0" type="line"/>
      <point x="320.4" y="0.0" type="line"/>
      <point x="346.9" y="164.7" type="line"/>
      <point x="185.1" y="164.7" type="line"/>
      <point x="270.2" y="700.0" type="line"/>
      <point x="94.4" y="700.0" type="line"/>
    </contour>
  </outline>
</glyph>
<glyph name="M" format="2">
  <advance width="568.85"/>
  <unicode hex="004D"/>
  <outline>
    <contour>
      <point x="-17.15" y="0.0" type="line"/>
      <point x="142.4" y="0.0" type="line"/>
      <point x="201.0" y="379.15" type="line"/>
      <point x="218.65" y="125.9" type="line"/>
      <point x="297.0" y="125.9" type="line"/>
      <point x="397.45" y="374.95" type="line"/>
      <point x="337.45" y="0.0" type="line"/>
      <point x="497.45" y="0.0" type="line"/>
      <point x="608.85" y="700.0" type="line"/>
      <point x="416.3" y="700.0" type="line"/>
      <point x="299.75" y="412.7" type="line"/>
      <point x="273.15" y="700.0" type="line"/>
      <point x="94.4" y="700.0" type="line"/>
    </contour>
  </outline>
</glyph>
<glyph name="N" format="2">
  <advance width="481.25"/>
  <unicode hex="004E"/>
  <anchor x="202.5" y="0.0" name="bottom"/>
  <anchor x="308.25" y="700.0" name="top"/>
  <outline>
    <contour>
      <point x="-17.0" y="0.0" type="line"/>
      <point x="139.75" y="0.0" type="line"/>
      <point x="188.75" y="299.0" type="line"/>
      <point x="237.25" y="0.0" type="line"/>
      <point x="409.75" y="0.0" type="line"/>
      <point x="521.25" y="700.0" type="line"/>
      <point x="364.25" y="700.0" type="line"/>
      <point x="309.0" y="369.0" type="line"/>
      <point x="267.0" y="700.0" type="line"/>
      <point x="94.5" y="700.0" type="line"/>
    </contour>
  </outline>
</glyph>
<glyph name="O" format="2">
  <advance width="482.75"/>
  <unicode hex="004F"/>
  <note>
8
</note>
  <anchor x="197.5" y="0.0" name="bottom"/>
  <anchor x="252.5" y="350.0" name="center"/>
  <anchor x="277.75" y="2.5" name="ogonek"/>
  <anchor x="305.75" y="700.0" name="top"/>
  <anchor x="86.75" y="700.0" name="topleft"/>
  <anchor x="423.0" y="698.75" name="topright"/>
  <outline>
    <contour>
      <point x="215.5" y="-9.0" type="curve" smooth="yes"/>
      <point x="416.5" y="-9.0"/>
      <point x="486.25" y="254.25"/>
      <point x="489.0" y="482.75" type="curve" smooth="yes"/>
      <point x="491.0" y="632.75"/>
      <point x="434.5" y="709.0"/>
      <point x="291.25" y="709.0" type="curve" smooth="yes"/>
      <point x="90.25" y="709.0"/>
      <point x="20.5" y="445.75"/>
      <point x="17.75" y="217.25" type="curve" smooth="yes"/>
      <point x="15.75" y="67.25"/>
      <point x="72.25" y="-9.0"/>
    </contour>
    <contour>
      <point x="224.25" y="164.0" type="curve" smooth="yes"/>
      <point x="204.0" y="164.0"/>
      <point x="194.5" y="172.25"/>
      <point x="194.5" y="207.75" type="curve" smooth="yes"/>
      <point x="194.5" y="292.5"/>
      <point x="238.0" y="536.0"/>
      <point x="282.5" y="536.0" type="curve" smooth="yes"/>
      <point x="302.75" y="536.0"/>
      <point x="312.25" y="527.5"/>
      <point x="312.25" y="492.0" type="curve" smooth="yes"/>
      <point x="312.25" y="407.25"/>
      <point x="268.75" y="164.0"/>
    </contour>
  </outline>
</glyph>
<glyph name="P" format="2">
  <advance width="472.0"/>
  <unicode hex="0050"/>
  <outline>
    <contour>
      <point x="-16.25" y="0.0" type="line"/>
      <point x="159.25" y="0.0" type="line"/>
      <point x="184.75" y="158.0" type="line"/>
      <point x="215.75" y="154.0"/>
      <point x="222.25" y="154.0"/>
      <point x="245.0" y="154.0" type="curve" smooth="yes"/>
      <point x="395.75" y="154.0"/>
      <point x="493.0" y="301.75"/>
      <point x="493.0" y="512.0" type="curve" smooth="yes"/>
      <point x="493.0" y="646.0"/>
      <point x="435.25" y="710.0"/>
      <point x="298.75" y="710.0" type="curve" smooth="yes"/>
      <point x="252.5" y="710.0"/>
      <point x="172.0" y="707.0"/>
      <point x="95.25" y="701.75" type="curve"/>
    </contour>
    <contour>
      <point x="247.0" y="547.0" type="line"/>
      <point x="262.75" y="549.0"/>
      <point x="269.25" y="550.0"/>
      <point x="281.25" y="550.0" type="curve" smooth="yes"/>
      <point x="309.75" y="550.0"/>
      <point x="319.5" y="530.25"/>
      <point x="319.5" y="484.5" type="curve" smooth="yes"/>
      <point x="319.5" y="408.0"/>
      <point x="284.0" y="314.25"/>
      <point x="234.75" y="314.25" type="curve" smooth="yes"/>
      <point x="227.25" y="314.25"/>
      <point x="221.75" y="314.5"/>
      <point x="209.75" y="316.5" type="curve"/>
    </contour>
  </outline>
</glyph>
<glyph name="Q" format="2">
  <advance width="483.3"/>
  <unicode hex="0051"/>
  <note>
14
</note>
  <outline>
    <contour>
      <point x="339.0" y="-166.1" type="curve" smooth="yes"/>
      <point x="358.79999999999995" y="-166.1"/>
      <point x="378.9" y="-163.6"/>
      <point x="396.9" y="-158.5" type="curve"/>
      <point x="414.90000000000003" y="-4.6" type="line"/>
      <point x="405.4" y="-7.8"/>
      <point x="392.9" y="-9.8"/>
      <point x="379.2" y="-9.8" type="curve" smooth="yes"/>
      <point x="339.0" y="-9.8"/>
      <point x="312.7" y="6.7"/>
      <point x="309.40000000000003" y="22.1" type="curve"/>
      <point x="166.6" y="17.900000000000002" type="line"/>
      <point x="167.29999999999998" y="-124.7"/>
      <point x="259.59999999999997" y="-166.1"/>
    </contour>
    <component base="O"/>
  </outline>
</glyph>
<glyph name="R" format="2">
  <advance width="484.0"/>
  <unicode hex="0052"/>
  <anchor x="215.0" y="0.0" name="bottom"/>
  <anchor x="276.75" y="700.0" name="top"/>
  <outline>
    <contour>
      <point x="-17.0" y="0.0" type="line"/>
      <point x="158.75" y="0.0" type="line"/>
      <point x="191.0" y="204.0" type="line"/>
      <point x="203.0" y="204.0"/>
      <point x="214.0" y="204.0"/>
      <point x="226.0" y="203.75" type="curve"/>
      <point x="234.5" y="223.5" type="line"/>
      <point x="389.0" y="223.5"/>
      <point x="494.5" y="332.5"/>
      <point x="494.5" y="506.5" type="curve" smooth="yes"/>
      <point x="494.5" y="635.25"/>
      <point x="421.75" y="710.0"/>
      <point x="285.25" y="710.0" type="curve" smooth="yes"/>
      <point x="221.0" y="710.0"/>
      <point x="163.25" y="705.25"/>
      <point x="94.5" y="699.0" type="curve"/>
    </contour>
    <contour>
      <point x="370.5" y="-10.0" type="curve" smooth="yes"/>
      <point x="383.25" y="-10.0"/>
      <point x="415.5" y="-5.5"/>
      <point x="427.25" y="1.0" type="curve"/>
      <point x="448.25" y="186.25" type="line"/>
      <point x="444.75" y="186.0"/>
      <point x="440.5" y="186.0"/>
      <point x="436.75" y="186.0" type="curve" smooth="yes"/>
      <point x="397.0" y="186.0"/>
      <point x="363.25" y="216.5"/>
      <point x="347.25" y="281.0" type="curve"/>
      <point x="195.75" y="239.0" type="line"/>
      <point x="248.5" y="13.0"/>
      <point x="299.5" y="-10.0"/>
    </contour>
    <contour>
      <point x="238.75" y="346.0" type="curve" smooth="yes"/>
      <point x="230.25" y="346.0"/>
      <point x="221.75" y="347.0"/>
      <point x="213.75" y="348.5" type="curve"/>
      <point x="246.25" y="550.0" type="line"/>
      <point x="262.5" y="552.0"/>
      <point x="270.0" y="553.0"/>
      <point x="281.5" y="553.0" type="curve" smooth="yes"/>
      <point x="306.5" y="553.0"/>
      <point x="316.75" y="530.75"/>
      <point x="316.75" y="500.0" type="curve" smooth="yes"/>
      <point x="316.75" y="421.25"/>
      <point x="280.5" y="346.0"/>
    </contour>
  </outline>
</glyph>
<glyph name="S" format="2">
  <advance width="430.5"/>
  <unicode hex="0053"/>
  <anchor x="185.5" y="0.0" name="bottom"/>
  <anchor x="290.25" y="700.0" name="top"/>
  <outline>
    <contour>
      <point x="457.25" y="672.25" type="line"/>
      <point x="418.0" y="694.75"/>
      <point x="360.75" y="710.0"/>
      <point x="292.75" y="710.0" type="curve" smooth="yes"/>
      <point x="136.5" y="710.0"/>
      <point x="42.75" y="621.0"/>
      <point x="42.75" y="479.5" type="curve" smooth="yes"/>
      <point x="42.75" y="305.0"/>
      <point x="231.25" y="274.0"/>
      <point x="231.25" y="202.25" type="curve" smooth="yes"/>
      <point x="231.25" y="174.25"/>
      <point x="210.25" y="151.5"/>
      <point x="161.5" y="151.5" type="curve" smooth="yes"/>
      <point x="119.75" y="151.5"/>
      <point x="81.5" y="162.0"/>
      <point x="24.75" y="184.5" type="curve"/>
      <point x="-28.75" y="34.5" type="line"/>
      <point x="20.25" y="5.5"/>
      <point x="86.5" y="-10.0"/>
      <point x="165.25" y="-10.0" type="curve" smooth="yes"/>
      <point x="318.25" y="-10.0"/>
      <point x="411.25" y="81.75"/>
      <point x="411.25" y="211.0" type="curve" smooth="yes"/>
      <point x="411.25" y="389.5"/>
      <point x="227.75" y="424.25"/>
      <point x="227.75" y="494.0" type="curve" smooth="yes"/>
      <point x="227.75" y="532.5"/>
      <point x="253.25" y="548.75"/>
      <point x="301.25" y="548.75" type="curve" smooth="yes"/>
      <point x="335.0" y="548.75"/>
      <point x="373.75" y="542.25"/>
      <point x="407.0" y="527.25" type="curve"/>
    </contour>
  </outline>
</glyph>
<glyph name="T" format="2">
  <advance width="424.4"/>
  <unicode hex="0054"/>
  <anchor x="168.59959999999998" y="0.0" name="bottom"/>
  <anchor x="224.0911" y="350.0" name="center"/>
  <anchor x="279.4817" y="700.0" name="top"/>
  <outline>
    <contour>
      <point x="456.29999999999995" y="542.2" type="line"/>
      <point x="482.7" y="700.0" type="line"/>
      <point x="77.3" y="700.0" type="line"/>
      <point x="50.8" y="542.2" type="line"/>
      <point x="166.2" y="542.2" type="line"/>
      <point x="80.2" y="0.0" type="line"/>
      <point x="256.0" y="0.0" type="line"/>
      <point x="341.9" y="542.2" type="line"/>
    </contour>
  </outline>
</glyph>
<glyph name="U" format="2">
  <advance width="464.5"/>
  <unicode hex="0055"/>
  <anchor x="188.74399999999997" y="0.0" name="bottom"/>
  <anchor x="264.0" y="0.0" name="ogonek"/>
  <anchor x="299.61299999999994" y="700.0" name="top"/>
  <anchor x="479.90000000000003" y="700.0" name="topright"/>
  <outline>
    <contour>
      <point x="184.2" y="-10.0" type="curve" smooth="yes"/>
      <point x="329.2" y="-10.0"/>
      <point x="404.3" y="58.2"/>
      <point x="429.3" y="212.79999999999998" type="curve" smooth="yes"/>
      <point x="507.09999999999997" y="700.0" type="line"/>
      <point x="332.0" y="700.0" type="line"/>
      <point x="250.2" y="181.79999999999998" type="line" smooth="yes"/>
      <point x="247.20000000000002" y="158.8"/>
      <point x="235.29999999999998" y="149.4"/>
      <point x="212.3" y="149.4" type="curve" smooth="yes"/>
      <point x="190.0" y="149.4"/>
      <point x="180.8" y="160.7"/>
      <point x="184.8" y="181.8" type="curve" smooth="yes"/>
      <point x="267.7" y="700.0" type="line"/>
      <point x="92.60000000000001" y="700.0" type="line"/>
      <point x="14.8" y="212.79999999999998" type="line" smooth="yes"/>
      <point x="9.9" y="182.0"/>
      <point x="8.0" y="163.29999999999998"/>
      <point x="8.0" y="146.5" type="curve" smooth="yes"/>
      <point x="8.0" y="40.099999999999994"/>
      <point x="64.8" y="-10.0"/>
    </contour>
  </outline>
</glyph>
<glyph name="V" format="2">
  <advance width="482.25"/>
  <unicode hex="0056"/>
  <outline>
    <contour>
      <point x="305.25" y="0.0" type="line"/>
      <point x="457.5" y="313.75"/>
      <point x="512.75" y="465.0"/>
      <point x="540.5" y="677.0" type="curve" smooth="yes"/>
      <point x="541.5" y="685.0"/>
      <point x="542.5" y="692.0"/>
      <point x="542.75" y="700.0" type="curve"/>
      <point x="347.75" y="700.0" type="line"/>
      <point x="347.75" y="695.25"/>
      <point x="348.0" y="690.25"/>
      <point x="348.0" y="684.5" type="curve" smooth="yes"/>
      <point x="338.25" y="509.75"/>
      <point x="293.5" y="380.5"/>
      <point x="227.5" y="171.75" type="curve"/>
      <point x="267.75" y="700.0" type="line"/>
      <point x="65.5" y="700.0" type="line"/>
      <point x="74.0" y="0.0" type="line"/>
    </contour>
  </outline>
</glyph>
<glyph name="W" format="2">
  <advance width="715.5"/>
  <unicode hex="0057"/>
  <anchor x="310.25" y="0.0" name="bottom"/>
  <anchor x="422.25" y="700.0" name="top"/>
  <outline>
    <contour>
      <point x="567.5" y="0.0" type="line"/>
      <point x="724.5" y="449.25"/>
      <point x="764.5" y="566.75"/>
      <point x="772.5" y="684.5" type="curve" smooth="yes"/>
      <point x="772.5" y="689.5"/>
      <point x="772.5" y="695.0"/>
      <point x="772.75" y="700.0" type="curve"/>
      <point x="597.5" y="700.0" type="line"/>
      <point x="597.5" y="695.0"/>
      <point x="597.5" y="690.75"/>
      <point x="597.5" y="686.0" type="curve" smooth="yes"/>
      <point x="590.5" y="525.25"/>
      <point x="560.0" y="461.5"/>
      <point x="484.25" y="197.0" type="curve"/>
      <point x="503.0" y="655.5" type="line"/>
      <point x="334.5" y="655.5" type="line"/>
      <point x="305.75" y="508.5"/>
      <point x="255.75" y="306.5"/>
      <point x="213.0" y="194.25" type="curve"/>
      <point x="245.0" y="700.0" type="line"/>
      <point x="65.75" y="700.0" type="line"/>
      <point x="60.0" y="0.0" type="line"/>
      <point x="248.0" y="0.0" type="line"/>
      <point x="307.5" y="147.0"/>
      <point x="351.0" y="277.5"/>
      <point x="376.5" y="361.5" type="curve"/>
      <point x="368.5" y="0.0" type="line"/>
    </contour>
  </outline>
</glyph>
<glyph name="X" format="2">
  <advance width="501.5"/>
  <unicode hex="0058"/>
  <outline>
    <contour>
      <point x="278.0" y="-0.25" type="line"/>
      <point x="463.25" y="0.5" type="line"/>
      <point x="401.0" y="350.25" type="line"/>
      <point x="515.5" y="617.5"/>
      <point x="543.75" y="638.0"/>
      <point x="548.25" y="700.5" type="curve"/>
      <point x="371.75" y="701.25" type="line"/>
      <point x="366.25" y="630.0"/>
      <point x="328.0" y="567.5"/>
      <point x="273.25" y="459.0" type="curve"/>
      <point x="254.0" y="700.25" type="line"/>
      <point x="74.25" y="699.5" type="line"/>
      <point x="114.25" y="353.5" type="line"/>
      <point x="26.25" y="172.75"/>
      <point x="-18.5" y="100.0"/>
      <point x="-24.5" y="0.0" type="curve"/>
      <point x="158.75" y="0.0" type="line"/>
      <point x="164.75" y="92.25"/>
      <point x="184.5" y="125.25"/>
      <point x="248.0" y="244.75" type="curve"/>
    </contour>
  </outline>
</glyph>
<glyph name="Y" format="2">
  <advance width="466.35"/>
  <unicode hex="0059"/>
  <anchor x="191.15" y="0.0" name="bottom"/>
  <anchor x="303.05" y="700.0" name="top"/>
  <anchor x="90.45" y="700.0" name="topleft"/>
  <outline>
    <contour>
      <point x="98.65" y="0.0" type="line"/>
      <point x="271.35" y="0.0" type="line"/>
      <point x="305.75" y="209.8" type="line"/>
      <point x="412.2" y="379.3"/>
      <point x="471.6" y="508.65"/>
      <point x="529.25" y="669.3" type="curve" smooth="yes"/>
      <point x="532.1" y="679.15"/>
      <point x="536.25" y="690.25"/>
      <point x="539.35" y="700.35" type="curve"/>
      <point x="337.5" y="700.1" type="line"/>
      <point x="336.4" y="690.95"/>
      <point x="334.4" y="681.15"/>
      <point x="332.65" y="672.1" type="curve" smooth="yes"/>
      <point x="309.65" y="570.05"/>
      <point x="290.55" y="474.7"/>
      <point x="248.85" y="371.25" type="curve"/>
      <point x="269.1" y="699.9" type="line"/>
      <point x="64.35" y="699.9" type="line"/>
      <point x="133.0" y="209.8" type="line"/>
    </contour>
  </outline>
</glyph>
<glyph name="Z" format="2">
  <advance width="428.5"/>
  <unicode hex="005A"/>
  <anchor x="170.75" y="0.0" name="bottom"/>
  <anchor x="226.75" y="350.0" name="center"/>
  <anchor x="280.75" y="700.0" name="top"/>
  <outline>
    <contour>
      <point x="-30.5" y="0.0" type="line"/>
      <point x="368.0" y="0.0" type="line"/>
      <point x="394.75" y="159.75" type="line"/>
      <point x="188.75" y="159.75" type="line"/>
      <point x="452.0" y="534.0" type="line"/>
      <point x="478.5" y="700.0" type="line"/>
      <point x="91.75" y="700.0" type="line"/>
      <point x="65.0" y="540.25" type="line"/>
      <point x="261.5" y="540.25" type="line"/>
      <point x="-5.0" y="161.25" type="line"/>
    </contour>
  </outline>
</glyph>
<glyph name="bracketleft" format="2">
  <advance width="265.1"/>
  <unicode hex="005B"/>
  <outline>
    <contour>
      <point x="108.2" y="-61.0" type="line"/>
      <point x="214.6" y="591.0" type="line"/>
      <point x="303.20000000000005" y="591.0" type="line"/>
      <point x="328.20000000000005" y="740.0" type="line"/>
      <point x="99.19999999999999" y="740.0" type="line"/>
      <point x="-57.1" y="-210.0" type="line"/>
      <point x="170.9" y="-210.0" type="line"/>
      <point x="196.79999999999998" y="-61.0" type="line"/>
    </contour>
  </outline>
</glyph>
<glyph name="backslash" format="2">
  <advance width="345.1"/>
  <unicode hex="005C"/>
  <outline>
    <contour>
      <point x="212.79999999999998" y="740.0" type="line"/>
      <point x="70.9" y="740.0" type="line"/>
      <point x="169.60000000000002" y="-210.0" type="line"/>
      <point x="310.6" y="-210.0" type="line"/>
    </contour>
  </outline>
</glyph>
<glyph name="bracketright" format="2">
  <advance width="265.1"/>
  <unicode hex="005D"/>
  <outline>
    <contour>
      <point x="-41.099999999999994" y="-61.0" type="line"/>
      <point x="-66.0" y="-210.0" type="line"/>
      <point x="162.0" y="-210.0" type="line"/>
      <point x="319.3" y="740.0" type="line"/>
      <point x="90.3" y="740.0" type="line"/>
      <point x="64.4" y="591.0" type="line"/>
      <point x="153.0" y="591.0" type="line"/>
      <point x="45.699999999999996" y="-61.0" type="line"/>
    </contour>
  </outline>
</glyph>
<glyph name="asciicircum" format="2">
  <advance width="423.0"/>
  <unicode hex="005E"/>
  <outline>
    <contour>
      <point x="44.4" y="238.0" type="line"/>
      <point x="167.1" y="238.0" type="line"/>
      <point x="248.1" y="510.30000000000007" type="line"/>
      <point x="245.4" y="238.0" type="line"/>
      <point x="367.2" y="238.0" type="line"/>
      <point x="353.8" y="700.0" type="line"/>
      <point x="195.5" y="700.0" type="line"/>
    </contour>
  </outline>
</glyph>
<glyph name="underscore" format="2">
  <advance width="592.5999999999999"/>
  <unicode hex="005F"/>
  <outline>
    <contour>
      <point x="-75.0" y="-209.1" type="line"/>
      <point x="511.8" y="-209.1" type="line"/>
      <point x="540.6" y="-41.1" type="line"/>
      <point x="-46.2" y="-41.1" type="line"/>
    </contour>
  </outline>
</glyph>
<glyph name="a" format="2">
  <advance width="451.25"/>
  <unicode hex="0061"/>
  <note>
15
</note>
  <anchor x="189.75" y="0.0" name="bottom"/>
  <anchor x="408.5" y="13.0" name="ogonek"/>
  <anchor x="266.25" y="550.0" name="top"/>
  <outline>
    <contour>
      <point x="323.25" y="-10.0" type="curve" smooth="yes"/>
      <point x="354.75" y="-10.0"/>
      <point x="390.0" y="-0.25"/>
      <point x="408.25" y="13.0" type="curve"/>
      <point x="428.0" y="161.25" type="line"/>
      <point x="424.75" y="160.24999999999997"/>
      <point x="420.25" y="160.25"/>
      <point x="417.75" y="160.25" type="curve" smooth="yes"/>
      <point x="408.25" y="160.25"/>
      <point x="406.0" y="164.5"/>
      <point x="406.0" y="174.75" type="curve" smooth="yes"/>
      <point x="406.0" y="180.5"/>
      <point x="409.75" y="200.49999999999997"/>
      <point x="461.24999999999994" y="523.2500000000001" type="curve"/>
      <point x="410.5" y="542.5"/>
      <point x="341.00000000000006" y="560.0"/>
      <point x="270.75" y="560.0" type="curve" smooth="yes"/>
      <point x="110.25" y="560.0"/>
      <point x="7.499999999999999" y="428.5"/>
      <point x="7.499999999999999" y="161.5" type="curve" smooth="yes"/>
      <point x="7.499999999999999" y="52.75"/>
      <point x="54.75" y="-10.0"/>
      <point x="127.0" y="-10.0" type="curve" smooth="yes"/>
      <point x="168.75" y="-10.0"/>
      <point x="201.25" y="5.5"/>
      <point x="230.75" y="37.5" type="curve"/>
      <point x="251.5" y="3.75"/>
      <point x="279.74999999999994" y="-10.0"/>
    </contour>
    <contour>
      <point x="230.0" y="164.5" type="line"/>
      <point x="223.5" y="161.24999999999997"/>
      <point x="216.0" y="159.0"/>
      <point x="208.99999999999997" y="159.0" type="curve" smooth="yes"/>
      <point x="198.75" y="159.0"/>
      <point x="190.0" y="168.00000000000003"/>
      <point x="190.0" y="188.00000000000003" type="curve" smooth="yes"/>
      <point x="190.0" y="301.75"/>
      <point x="219.25" y="402.25"/>
      <point x="250.75" y="402.25" type="curve" smooth="yes"/>
      <point x="255.75000000000003" y="402.25"/>
      <point x="261.75" y="402.0"/>
      <point x="267.5" y="400.0" type="curve"/>
    </contour>
  </outline>
</glyph>
<glyph name="b" format="2">
  <advance width="440.0"/>
  <unicode hex="0062"/>
  <note>
12
</note>
  <outline>
    <contour>
      <point x="271.25" y="740.0" type="line"/>
      <point x="97.0" y="740.0" type="line"/>
      <point x="-17.0" y="19.5" type="line"/>
      <point x="17.25" y="6.25"/>
      <point x="75.25" y="-10.0"/>
      <point x="156.24999999999997" y="-10.0" type="curve" smooth="yes"/>
      <point x="358.25" y="-10.0"/>
      <point x="435.75000000000006" y="170.0"/>
      <point x="434.00000000000006" y="377.5" type="curve" smooth="yes"/>
      <point x="433.25" y="502.0"/>
      <point x="393.25" y="560.0"/>
      <point x="320.25" y="560.0" type="curve" smooth="yes"/>
      <point x="293.00000000000006" y="560.0"/>
      <point x="266.0" y="551.5"/>
      <point x="238.25" y="530.5" type="curve"/>
    </contour>
    <contour>
      <point x="235.25" y="389.25" type="curve" smooth="yes"/>
      <point x="249.5" y="389.25"/>
      <point x="256.00000000000006" y="376.74999999999994"/>
      <point x="256.00000000000006" y="357.5" type="curve" smooth="yes"/>
      <point x="256.00000000000006" y="244.5"/>
      <point x="228.75" y="144.25"/>
      <point x="193.25" y="144.25" type="curve" smooth="yes"/>
      <point x="188.5" y="144.25"/>
      <point x="183.0" y="144.75"/>
      <point x="177.75" y="146.5" type="curve"/>
      <point x="215.25" y="384.00000000000006" type="line"/>
      <point x="221.0" y="387.0"/>
      <point x="228.75" y="389.25"/>
    </contour>
  </outline>
</glyph>
<glyph name="c" format="2">
  <advance width="367.25"/>
  <unicode hex="0063"/>
  <note>
10
</note>
  <anchor x="171.5" y="0.0" name="bottom"/>
  <anchor x="263.75" y="550.0" name="top"/>
  <outline>
    <contour>
      <point x="194.99999999999997" y="-10.0" type="curve" smooth="yes"/>
      <point x="235.0" y="-10.0"/>
      <point x="288.5" y="-0.75"/>
      <point x="322.75" y="12.5" type="curve"/>
      <point x="306.0" y="173.5" type="line"/>
      <point x="283.24999999999994" y="169.75"/>
      <point x="266.75000000000006" y="168.5"/>
      <point x="245.5" y="168.5" type="curve" smooth="yes"/>
      <point x="207.0" y="168.5"/>
      <point x="192.99999999999997" y="196.5"/>
      <point x="192.99999999999997" y="236.74999999999997" type="curve" smooth="yes"/>
      <point x="192.99999999999997" y="312.5"/>
      <point x="220.5" y="381.5"/>
      <point x="278.5" y="381.5" type="curve" smooth="yes"/>
      <point x="301.00000000000006" y="381.5"/>
      <point x="320.75" y="379.0"/>
      <point x="343.5" y="370.75000000000006" type="curve"/>
      <point x="400.5" y="541.75" type="line"/>
      <point x="370.5" y="553.5"/>
      <point x="326.75" y="560.0"/>
      <point x="280.75" y="560.0" type="curve" smooth="yes"/>
      <point x="90.75" y="560.0"/>
      <point x="9.0" y="411.0"/>
      <point x="9.0" y="191.5" type="curve" smooth="yes"/>
      <point x="9.0" y="65.5"/>
      <point x="74.0" y="-10.0"/>
    </contour>
  </outline>
</glyph>
<glyph name="d" format="2">
  <advance width="448.75"/>
  <unicode hex="0064"/>
  <note>
17
</note>
  <anchor x="209.0" y="0.0" name="bottom"/>
  <anchor x="224.0" y="275.0" name="center"/>
  <anchor x="281.5" y="740.0" name="top"/>
  <anchor x="512.0" y="740.0" name="topright"/>
  <outline>
    <contour>
      <point x="321.0" y="-10.0" type="curve" smooth="yes"/>
      <point x="350.49999999999994" y="-10.0"/>
      <point x="386.50000000000006" y="-1.2500000000000002"/>
      <point x="405.75" y="13.0" type="curve"/>
      <point x="425.5" y="161.25" type="line"/>
      <point x="421.5" y="160.25"/>
      <point x="417.75000000000006" y="160.25"/>
      <point x="415.5" y="160.25" type="curve" smooth="yes"/>
      <point x="405.99999999999994" y="160.25"/>
      <point x="404.49999999999994" y="164.5"/>
      <point x="404.49999999999994" y="171.0" type="curve" smooth="yes"/>
      <point x="404.49999999999994" y="189.0"/>
      <point x="492.75" y="740.0"/>
      <point x="492.75" y="740.0" type="curve"/>
      <point x="319.5" y="740.0" type="line"/>
      <point x="287.75" y="544.2500000000001" type="line"/>
      <point x="268.74999999999994" y="555.0"/>
      <point x="247.00000000000003" y="560.0"/>
      <point x="223.24999999999997" y="560.0" type="curve" smooth="yes"/>
      <point x="108.25" y="560.0"/>
      <point x="9.0" y="418.5"/>
      <point x="9.0" y="181.5" type="curve" smooth="yes"/>
      <point x="9.0" y="51.0"/>
      <point x="54.25" y="-10.0"/>
      <point x="129.0" y="-10.0" type="curve" smooth="yes"/>
      <point x="170.75" y="-10.0"/>
      <point x="204.25" y="11.75"/>
      <point x="228.24999999999997" y="37.5" type="curve"/>
      <point x="249.0" y="4.75"/>
      <point x="277.25" y="-10.0"/>
    </contour>
    <contour>
      <point x="206.5" y="159.0" type="curve" smooth="yes"/>
      <point x="194.5" y="159.0"/>
      <point x="187.5" y="171.5"/>
      <point x="187.5" y="187.0" type="curve" smooth="yes"/>
      <point x="187.5" y="285.0"/>
      <point x="213.24999999999997" y="402.25"/>
      <point x="250.0" y="402.25" type="curve" smooth="yes"/>
      <point x="255.0" y="402.25"/>
      <point x="259.5" y="402.00000000000006"/>
      <point x="264.99999999999994" y="400.0" type="curve"/>
      <point x="227.5" y="164.5" type="line"/>
      <point x="221.0" y="161.24999999999997"/>
      <point x="212.5" y="159.0"/>
    </contour>
  </outline>
</glyph>
<glyph name="e" format="2">
  <advance width="409.0"/>
  <unicode hex="0065"/>
  <note>
14 points
</note>
  <anchor x="191.5" y="0.0" name="bottom"/>
  <anchor x="290.5" y="-0.5" name="ogonek"/>
  <anchor x="263.49999999999994" y="548.2499999999999" name="top"/>
  <outline>
    <contour>
      <point x="141.5" y="287.0" type="curve"/>
      <point x="113.75" y="182.24999999999997" type="line"/>
      <point x="154.75" y="178.75"/>
      <point x="195.00000000000003" y="183.5"/>
      <point x="234.5" y="193.5" type="curve" smooth="yes"/>
      <point x="346.5" y="223.75000000000003"/>
      <point x="422.25" y="309.5"/>
      <point x="422.25" y="421.25" type="curve" smooth="yes"/>
      <point x="422.25" y="502.0"/>
      <point x="369.75" y="558.25"/>
      <point x="264.50000000000006" y="558.25" type="curve" smooth="yes"/>
      <point x="92.0" y="558.25"/>
      <point x="7.500000000000001" y="387.49999999999994"/>
      <point x="7.500000000000001" y="195.0" type="curve" smooth="yes"/>
      <point x="7.500000000000001" y="64.0"/>
      <point x="76.50000000000001" y="-10.0"/>
      <point x="201.50000000000003" y="-10.0" type="curve" smooth="yes"/>
      <point x="251.75" y="-10.0"/>
      <point x="309.5" y="0.0"/>
      <point x="358.5" y="23.75" type="curve"/>
      <point x="334.75" y="184.75" type="line"/>
      <point x="293.75" y="168.0"/>
      <point x="257.0" y="161.74999999999997"/>
      <point x="230.5" y="161.74999999999997" type="curve" smooth="yes"/>
      <point x="192.75000000000003" y="161.74999999999997"/>
      <point x="174.5" y="164.0"/>
      <point x="176.49999999999997" y="233.0" type="curve" smooth="yes"/>
      <point x="180.0" y="343.99999999999994"/>
      <point x="211.00000000000003" y="406.5"/>
      <point x="242.25000000000003" y="405.75" type="curve" smooth="yes"/>
      <point x="253.25000000000003" y="405.75"/>
      <point x="258.0" y="399.75000000000006"/>
      <point x="258.0" y="384.25" type="curve" smooth="yes"/>
      <point x="257.0" y="351.25"/>
      <point x="235.25" y="308.75"/>
      <point x="197.0" y="293.25" type="curve" smooth="yes"/>
      <point x="182.5" y="287.75"/>
      <point x="152.99999999999997" y="284.0"/>
    </contour>
  </outline>
</glyph>
<glyph name="f" format="2">
  <advance width="291.5"/>
  <unicode hex="0066"/>
  <outline>
    <contour>
      <point x="-16.799999999999997" y="-220.0" type="curve" smooth="yes"/>
      <point x="98.6" y="-220.0"/>
      <point x="156.5" y="-149.4"/>
      <point x="180.29999999999998" y="0.0" type="curve" smooth="yes"/>
      <point x="239.1" y="371.6" type="line"/>
      <point x="296.0" y="371.6" type="line"/>
      <point x="320.5" y="524.5" type="line"/>
      <point x="263.5" y="524.5" type="line"/>
      <point x="270.5" y="570.6999999999999"/>
      <point x="283.29999999999995" y="579.0"/>
      <point x="307.29999999999995" y="579.0" type="curve" smooth="yes"/>
      <point x="320.5" y="579.0"/>
      <point x="337.4" y="575.4"/>
      <point x="351.9" y="570.0" type="curve"/>
      <point x="401.29999999999995" y="720.5" type="line"/>
      <point x="369.3" y="737.0"/>
      <point x="333.8" y="750.0"/>
      <point x="281.29999999999995" y="750.0" type="curve" smooth="yes"/>
      <point x="183.2" y="750.0"/>
      <point x="110.39999999999999" y="673.6"/>
      <point x="89.4" y="524.5" type="curve"/>
      <point x="44.5" y="516.2" type="line"/>
      <point x="20.3" y="371.6" type="line"/>
      <point x="64.9" y="371.6" type="line"/>
      <point x="7.6000000000000005" y="5.8" type="line" smooth="yes"/>
      <point x="0.7999999999999998" y="-35.4"/>
      <point x="-14.4" y="-48.3"/>
      <point x="-34.1" y="-48.3" type="curve" smooth="yes"/>
      <point x="-41.599999999999994" y="-48.3"/>
      <point x="-52.0" y="-48.1"/>
      <point x="-65.6" y="-43.300000000000004" type="curve"/>
      <point x="-112.3" y="-201.1" type="line"/>
      <point x="-79.7" y="-213.8"/>
      <point x="-48.800000000000004" y="-220.0"/>
    </contour>
  </outline>
</glyph>
<glyph name="g" format="2">
  <advance width="447.5"/>
  <unicode hex="0067"/>
  <note>
16
</note>
  <anchor x="142.5" y="-219.0" name="bottom"/>
  <anchor x="266.99999999999994" y="550.0" name="top"/>
  <outline>
    <contour>
      <point x="-27.75" y="-178.25" type="line"/>
      <point x="30.749999999999996" y="-205.50000000000003"/>
      <point x="95.25" y="-220.0"/>
      <point x="144.75" y="-220.0" type="curve" smooth="yes"/>
      <point x="278.49999999999994" y="-220.0"/>
      <point x="354.50000000000006" y="-147.00000000000003"/>
      <point x="380.25000000000006" y="15.0" type="curve" smooth="yes"/>
      <point x="464.24999999999994" y="533.5000000000001" type="line"/>
      <point x="432.75" y="546.75"/>
      <point x="354.75" y="560.0"/>
      <point x="293.75" y="560.0" type="curve" smooth="yes"/>
      <point x="98.5" y="560.0"/>
      <point x="9.250000000000002" y="422.25"/>
      <point x="9.250000000000002" y="176.75" type="curve" smooth="yes"/>
      <point x="9.250000000000002" y="81.24999999999999"/>
      <point x="46.0" y="19.25"/>
      <point x="123.5" y="19.25" type="curve" smooth="yes"/>
      <point x="145.50000000000003" y="19.25"/>
      <point x="182.0" y="26.75"/>
      <point x="212.0" y="44.5" type="curve"/>
      <point x="208.25" y="9.0" type="line" smooth="yes"/>
      <point x="202.5" y="-41.25000000000001"/>
      <point x="176.49999999999997" y="-52.5"/>
      <point x="146.25" y="-52.5" type="curve" smooth="yes"/>
      <point x="114.5" y="-52.5"/>
      <point x="58.5" y="-38.75000000000001"/>
      <point x="23.25" y="-25.5" type="curve"/>
    </contour>
    <contour>
      <point x="269.49999999999994" y="406.5" type="curve"/>
      <point x="232.25" y="171.75" type="line"/>
      <point x="225.75" y="168.5"/>
      <point x="218.25" y="166.74999999999997"/>
      <point x="213.75" y="166.74999999999997" type="curve" smooth="yes"/>
      <point x="198.50000000000003" y="166.74999999999997"/>
      <point x="191.75" y="177.49999999999997"/>
      <point x="191.75" y="200.0" type="curve" smooth="yes"/>
      <point x="191.75" y="296.75000000000006"/>
      <point x="220.75" y="409.00000000000006"/>
      <point x="254.49999999999997" y="409.00000000000006" type="curve" smooth="yes"/>
      <point x="260.75" y="409.00000000000006"/>
      <point x="265.0" y="408.25000000000006"/>
    </contour>
  </outline>
</glyph>
<glyph name="h" format="2">
  <advance width="440.0"/>
  <unicode hex="0068"/>
  <note>
16
</note>
  <anchor x="176.7" y="0.0" name="bottom"/>
  <anchor x="235.00060000000002" y="372.5" name="center"/>
  <anchor x="289.9" y="740.0" name="top"/>
  <outline>
    <contour>
      <point x="394.09999999999997" y="172.10000000000002" type="curve" smooth="yes"/>
      <point x="394.09999999999997" y="183.0"/>
      <point x="439.90000000000003" y="432.29999999999995"/>
      <point x="439.90000000000003" y="461.7" type="curve" smooth="yes"/>
      <point x="439.90000000000003" y="523.4000000000001"/>
      <point x="407.8" y="560.0"/>
      <point x="344.29999999999995" y="560.0" type="curve" smooth="yes"/>
      <point x="306.09999999999997" y="560.0"/>
      <point x="278.29999999999995" y="549.4"/>
      <point x="235.0" y="518.0" type="curve"/>
      <point x="271.2" y="740.0" type="line"/>
      <point x="97.0" y="740.0" type="line"/>
      <point x="-21.1" y="0.0" type="line"/>
      <point x="153.2" y="0.0" type="line"/>
      <point x="215.20000000000002" y="382.5" type="line"/>
      <point x="224.3" y="388.5"/>
      <point x="232.9" y="391.4"/>
      <point x="240.20000000000002" y="391.4" type="curve" smooth="yes"/>
      <point x="250.3" y="391.4"/>
      <point x="254.70000000000002" y="386.0"/>
      <point x="254.70000000000002" y="377.59999999999997" type="curve" smooth="yes"/>
      <point x="254.70000000000002" y="361.4"/>
      <point x="209.89999999999998" y="122.7"/>
      <point x="209.89999999999998" y="85.89999999999999" type="curve" smooth="yes"/>
      <point x="209.89999999999998" y="33.2"/>
      <point x="249.0" y="-10.0"/>
      <point x="313.8" y="-10.0" type="curve" smooth="yes"/>
      <point x="343.8" y="-10.0"/>
      <point x="374.8" y="-0.6000000000000001"/>
      <point x="397.2" y="13.5" type="curve"/>
      <point x="417.0" y="162.20000000000002" type="line"/>
      <point x="413.7" y="161.20000000000002"/>
      <point x="409.09999999999997" y="161.1"/>
      <point x="406.7" y="161.1" type="curve" smooth="yes"/>
      <point x="399.09999999999997" y="161.1"/>
      <point x="394.09999999999997" y="163.8"/>
    </contour>
  </outline>
</glyph>
<glyph name="i" format="2">
  <advance width="221.1"/>
  <unicode hex="0069"/>
  <note>
Ajuster pts sur points
8
</note>
  <anchor x="67.0444" y="0.0" name="bottom"/>
  <anchor x="154.2" y="0.0" name="ogonek"/>
  <anchor x="154.0556" y="550.0" name="top"/>
  <outline>
    <contour>
      <point x="-20.1" y="0.0" type="line"/>
      <point x="154.2" y="0.0" type="line"/>
      <point x="241.1" y="550.0" type="line"/>
      <point x="67.0" y="550.0" type="line"/>
    </contour>
    <contour>
      <point x="193.6" y="790.0" type="curve" smooth="yes"/>
      <point x="108.89999999999999" y="790.0"/>
      <point x="74.8" y="720.2"/>
      <point x="74.8" y="649.5" type="curve" smooth="yes"/>
      <point x="74.80000000000001" y="596.0"/>
      <point x="102.7" y="569.1"/>
      <point x="157.5" y="569.1" type="curve" smooth="yes"/>
      <point x="240.3" y="569.1"/>
      <point x="276.2" y="639.3"/>
      <point x="276.2" y="710.6" type="curve" smooth="yes"/>
      <point x="276.2" y="764.0"/>
      <point x="247.4" y="790.0"/>
    </contour>
  </outline>
</glyph>
<glyph name="j" format="2">
  <advance width="225.0"/>
  <unicode hex="006A"/>
  <note>
idem /i
12
</note>
  <outline>
    <contour>
      <point x="197.6" y="790.0" type="curve" smooth="yes"/>
      <point x="112.8" y="790.0"/>
      <point x="78.8" y="720.2"/>
      <point x="78.8" y="649.5" type="curve" smooth="yes"/>
      <point x="78.8" y="596.0"/>
      <point x="107.7" y="569.1"/>
      <point x="162.5" y="569.1" type="curve" smooth="yes"/>
      <point x="244.4" y="569.1"/>
      <point x="280.2" y="639.3"/>
      <point x="280.20000000000005" y="710.6" type="curve" smooth="yes"/>
      <point x="280.2" y="764.0"/>
      <point x="251.4" y="790.0"/>
    </contour>
    <contour>
      <point x="246.1" y="550.0" type="line"/>
      <point x="71.0" y="550.0" type="line"/>
      <point x="-15.2" y="11.8" type="line" smooth="yes"/>
      <point x="-22.1" y="-30.1"/>
      <point x="-35.800000000000004" y="-48.3"/>
      <point x="-56.5" y="-48.3" type="curve" smooth="yes"/>
      <point x="-64.5" y="-48.3"/>
      <point x="-74.89999999999999" y="-48.2"/>
      <point x="-87.39999999999999" y="-43.5" type="curve"/>
      <point x="-130.29999999999998" y="-204.5" type="line"/>
      <point x="-97.60000000000001" y="-216.0"/>
      <point x="-60.099999999999994" y="-220.0"/>
      <point x="-36.6" y="-220.0" type="curve" smooth="yes"/>
      <point x="84.80000000000001" y="-220.0"/>
      <point x="133.9" y="-148.10000000000002"/>
      <point x="159.4" y="12.3" type="curve" smooth="yes"/>
    </contour>
  </outline>
</glyph>
<glyph name="l" format="2">
  <advance width="234.9"/>
  <unicode hex="006C"/>
  <anchor x="90.60000000000001" y="0.0" name="bottom"/>
  <anchor x="136.30059999999997" y="372.5" name="center"/>
  <anchor x="184.0" y="740.0" name="top"/>
  <anchor x="290.3" y="740.0" name="topright"/>
  <outline>
    <contour>
      <point x="96.9" y="740.0" type="line"/>
      <point x="0.8000000000000003" y="132.4" type="line" smooth="yes"/>
      <point x="-1.4999999999999996" y="118.2"/>
      <point x="-2.8000000000000003" y="102.6"/>
      <point x="-2.8000000000000003" y="90.89999999999999" type="curve" smooth="yes"/>
      <point x="-2.8000000000000003" y="27.700000000000003"/>
      <point x="30.2" y="-10.0"/>
      <point x="96.6" y="-10.0" type="curve" smooth="yes"/>
      <point x="130.20000000000002" y="-10.0"/>
      <point x="169.8" y="0.4"/>
      <point x="193.5" y="16.0" type="curve"/>
      <point x="213.29999999999998" y="165.8" type="line"/>
      <point x="206.3" y="164.0"/>
      <point x="200.3" y="163.5"/>
      <point x="196.0" y="163.5" type="curve" smooth="yes"/>
      <point x="187.3" y="163.5"/>
      <point x="183.2" y="168.7"/>
      <point x="183.2" y="180.70000000000002" type="curve" smooth="yes"/>
      <point x="183.2" y="185.7"/>
      <point x="184.10000000000002" y="192.6"/>
      <point x="185.2" y="199.9" type="curve" smooth="yes"/>
      <point x="271.1" y="740.0" type="line"/>
    </contour>
  </outline>
</glyph>
<glyph name="m" format="2">
  <advance width="649.3000000000001"/>
  <unicode hex="006D"/>
  <note>
24&gt;23 points
un point de trop dans la jointure avec 2e jambage
</note>
  <outline>
    <contour>
      <point x="520.4" y="-10.0" type="curve" smooth="yes"/>
      <point x="550.4" y="-10.0"/>
      <point x="586.8" y="-0.6000000000000001"/>
      <point x="606.5" y="13.5" type="curve"/>
      <point x="626.3000000000001" y="162.20000000000002" type="line"/>
      <point x="623.0" y="161.20000000000002"/>
      <point x="618.4" y="161.1"/>
      <point x="616.0" y="161.1" type="curve" smooth="yes"/>
      <point x="608.4" y="161.1"/>
      <point x="603.4" y="166.5"/>
      <point x="603.4" y="177.5" type="curve" smooth="yes"/>
      <point x="603.4" y="204.6"/>
      <point x="649.2" y="438.59999999999997"/>
      <point x="649.2" y="467.1" type="curve" smooth="yes"/>
      <point x="649.2" y="521.6"/>
      <point x="617.5" y="560.0"/>
      <point x="553.1" y="560.0" type="curve" smooth="yes"/>
      <point x="514.6999999999999" y="560.0"/>
      <point x="475.8" y="549.0"/>
      <point x="426.4" y="508.3" type="curve"/>
      <point x="415.3" y="541.0"/>
      <point x="388.5" y="560.0"/>
      <point x="344.3" y="560.0" type="curve" smooth="yes"/>
      <point x="306.9" y="560.0"/>
      <point x="266.6" y="549.5"/>
      <point x="218.29999999999998" y="511.2" type="curve"/>
      <point x="224.7" y="550.0" type="line"/>
      <point x="66.9" y="550.0" type="line"/>
      <point x="-20.1" y="0.0" type="line"/>
      <point x="154.10000000000002" y="0.0" type="line"/>
      <point x="215.2" y="383.4" type="line"/>
      <point x="222.4" y="388.09999999999997"/>
      <point x="230.9" y="391.4"/>
      <point x="238.20000000000002" y="391.4" type="curve" smooth="yes"/>
      <point x="248.1" y="391.4"/>
      <point x="252.10000000000002" y="385.9"/>
      <point x="252.10000000000002" y="376.7" type="curve" smooth="yes"/>
      <point x="252.10000000000002" y="368.4"/>
      <point x="217.1" y="157.6"/>
      <point x="190.9" y="0.0" type="curve"/>
      <point x="363.8" y="0.0" type="line"/>
      <point x="383.40000000000003" y="118.80000000000001"/>
      <point x="402.1" y="238.6"/>
      <point x="421.7" y="357.40000000000003" type="curve" smooth="yes"/>
      <point x="422.7" y="364.20000000000005"/>
      <point x="424.9" y="376.9"/>
      <point x="425.9" y="382.6" type="curve"/>
      <point x="434.3" y="388.8"/>
      <point x="441.8" y="391.09999999999997"/>
      <point x="448.40000000000003" y="391.09999999999997" type="curve" smooth="yes"/>
      <point x="458.7" y="391.09999999999997"/>
      <point x="463.0" y="385.59999999999997"/>
      <point x="463.0" y="377.1" type="curve" smooth="yes"/>
      <point x="463.0" y="361.0"/>
      <point x="418.3" y="131.0"/>
      <point x="418.3" y="88.6" type="curve" smooth="yes"/>
      <point x="418.3" y="27.8"/>
      <point x="455.6" y="-10.0"/>
    </contour>
  </outline>
</glyph>
<glyph name="n" format="2">
  <advance width="440.0"/>
  <unicode hex="006E"/>
  <note>
16
</note>
  <anchor x="186.3" y="0.0" name="bottom"/>
  <anchor x="259.7" y="550.0" name="top"/>
  <outline>
    <contour>
      <point x="66.9" y="550.0" type="line"/>
      <point x="-20.1" y="0.0" type="line"/>
      <point x="154.0" y="0.0" type="line"/>
      <point x="216.1" y="382.5" type="line"/>
      <point x="224.2" y="388.2"/>
      <point x="232.7" y="391.40000000000003"/>
      <point x="241.0" y="391.40000000000003" type="curve" smooth="yes"/>
      <point x="251.0" y="391.40000000000003"/>
      <point x="255.60000000000002" y="386.3"/>
      <point x="255.60000000000002" y="377.6" type="curve" smooth="yes"/>
      <point x="255.60000000000002" y="351.1"/>
      <point x="210.79999999999998" y="132.0"/>
      <point x="210.79999999999998" y="81.39999999999999" type="curve" smooth="yes"/>
      <point x="210.79999999999998" y="34.1"/>
      <point x="248.1" y="-10.0"/>
      <point x="312.9" y="-10.0" type="curve" smooth="yes"/>
      <point x="342.90000000000003" y="-10.0"/>
      <point x="377.5" y="-0.6000000000000001"/>
      <point x="397.20000000000005" y="13.5" type="curve"/>
      <point x="417.0" y="162.20000000000002" type="line"/>
      <point x="413.7" y="161.20000000000002"/>
      <point x="409.09999999999997" y="161.1"/>
      <point x="406.7" y="161.1" type="curve" smooth="yes"/>
      <point x="399.1" y="161.1"/>
      <point x="394.1" y="163.8"/>
      <point x="394.1" y="172.10000000000002" type="curve" smooth="yes"/>
      <point x="394.1" y="183.0"/>
      <point x="440.8" y="432.29999999999995"/>
      <point x="440.8" y="461.7" type="curve" smooth="yes"/>
      <point x="440.8" y="524.8000000000001"/>
      <point x="406.40000000000003" y="560.0"/>
      <point x="344.70000000000005" y="560.0" type="curve" smooth="yes"/>
      <point x="305.6" y="560.0"/>
      <point x="263.4" y="549.2"/>
      <point x="218.0" y="511.2" type="curve"/>
      <point x="223.5" y="550.0" type="line"/>
    </contour>
  </outline>
</glyph>
<glyph name="o" format="2">
  <advance width="435.5"/>
  <unicode hex="006F"/>
  <note>
8
</note>
  <anchor x="174.083" y="0.0" name="bottom"/>
  <anchor x="217.75" y="275.0" name="center"/>
  <anchor x="256.75" y="0.0" name="ogonek"/>
  <anchor x="249.75" y="550.0" name="top"/>
  <anchor x="354.25" y="540.0" name="topright"/>
  <outline>
    <contour>
      <point x="187.75" y="-9.25" type="curve" smooth="yes"/>
      <point x="357.5" y="-9.25"/>
      <point x="427.75" y="170.5"/>
      <point x="427.75" y="382.25" type="curve" smooth="yes"/>
      <point x="427.75" y="497.75"/>
      <point x="373.75" y="560.25"/>
      <point x="249.75" y="560.25" type="curve" smooth="yes"/>
      <point x="78.0" y="560.25"/>
      <point x="7.75" y="380.75"/>
      <point x="7.75" y="167.25" type="curve" smooth="yes"/>
      <point x="7.75" y="53.25"/>
      <point x="61.75" y="-9.25"/>
    </contour>
    <contour>
      <point x="198.0" y="149.0" type="curve" smooth="yes"/>
      <point x="188.5" y="148.75"/>
      <point x="179.75" y="152.75"/>
      <point x="179.25" y="170.0" type="curve" smooth="yes"/>
      <point x="178.25" y="213.25"/>
      <point x="206.0" y="401.5"/>
      <point x="237.5" y="402.0" type="curve" smooth="yes"/>
      <point x="246.75" y="402.25"/>
      <point x="255.75" y="398.25"/>
      <point x="256.25" y="381.0" type="curve" smooth="yes"/>
      <point x="257.25" y="337.75"/>
      <point x="229.5" y="149.5"/>
    </contour>
  </outline>
</glyph>
<glyph name="p" format="2">
  <advance width="440.75"/>
  <unicode hex="0070"/>
  <note>
14 point
</note>
  <outline>
    <contour>
      <point x="-52.99999999999999" y="-210.0" type="line"/>
      <point x="120.25" y="-210.0" type="line"/>
      <point x="153.25" y="-2.5" type="line"/>
      <point x="166.25" y="-5.0"/>
      <point x="184.75" y="-8.25"/>
      <point x="211.75" y="-8.25" type="curve" smooth="yes"/>
      <point x="364.0" y="-8.25"/>
      <point x="434.00000000000006" y="176.0"/>
      <point x="434.00000000000006" y="373.25" type="curve" smooth="yes"/>
      <point x="434.00000000000006" y="497.5"/>
      <point x="398.25" y="560.0"/>
      <point x="323.50000000000006" y="560.0" type="curve" smooth="yes"/>
      <point x="277.25" y="560.0"/>
      <point x="248.5" y="537.0"/>
      <point x="229.25" y="518.25" type="curve"/>
      <point x="226.0" y="550.0" type="line"/>
      <point x="67.0" y="550.0" type="line"/>
    </contour>
    <contour>
      <point x="193.24999999999997" y="144.25" type="curve" smooth="yes"/>
      <point x="188.49999999999997" y="144.25"/>
      <point x="183.0" y="144.74999999999997"/>
      <point x="177.75" y="146.5" type="curve"/>
      <point x="215.25" y="384.75" type="line"/>
      <point x="220.25" y="386.99999999999994"/>
      <point x="227.75" y="389.25"/>
      <point x="235.75" y="389.25" type="curve" smooth="yes"/>
      <point x="248.5" y="389.25"/>
      <point x="256.00000000000006" y="382.75"/>
      <point x="256.00000000000006" y="350.0" type="curve" smooth="yes"/>
      <point x="256.00000000000006" y="258.75"/>
      <point x="231.0" y="144.25"/>
    </contour>
  </outline>
</glyph>
<glyph name="q" format="2">
  <advance width="445.0"/>
  <unicode hex="0071"/>
  <note>
12
</note>
  <outline>
    <contour>
      <point x="461.75" y="530.4999999999999" type="line"/>
      <point x="423.25000000000006" y="543.7500000000001"/>
      <point x="352.25" y="560.0"/>
      <point x="278.25" y="560.0" type="curve" smooth="yes"/>
      <point x="104.75" y="560.0"/>
      <point x="7.0" y="417.74999999999994"/>
      <point x="7.0" y="165.0" type="curve" smooth="yes"/>
      <point x="7.0" y="50.75"/>
      <point x="48.5" y="-10.0"/>
      <point x="130.5" y="-10.0" type="curve" smooth="yes"/>
      <point x="156.75" y="-10.0"/>
      <point x="183.75" y="1.25"/>
      <point x="205.49999999999997" y="18.75" type="curve"/>
      <point x="169.75" y="-210.0" type="line"/>
      <point x="342.0" y="-210.0" type="line"/>
    </contour>
    <contour>
      <point x="266.25" y="400.25" type="curve"/>
      <point x="228.75" y="164.75" type="line"/>
      <point x="222.5" y="161.5"/>
      <point x="214.75" y="159.25"/>
      <point x="208.75" y="159.25" type="curve" smooth="yes"/>
      <point x="196.0" y="159.25"/>
      <point x="188.5" y="170.00000000000003"/>
      <point x="188.5" y="191.25000000000003" type="curve" smooth="yes"/>
      <point x="188.5" y="276.49999999999994"/>
      <point x="211.25" y="402.75"/>
      <point x="251.0" y="402.75" type="curve" smooth="yes"/>
      <point x="257.25" y="402.75"/>
      <point x="261.5" y="402.0"/>
    </contour>
  </outline>
</glyph>
<glyph name="r" format="2">
  <advance width="306.0"/>
  <unicode hex="0072"/>
  <anchor x="65.39999999999999" y="0.0" name="bottom"/>
  <anchor x="230.7" y="550.0" name="top"/>
  <outline>
    <contour>
      <point x="222.7" y="550.0" type="line"/>
      <point x="67.10000000000001" y="550.0" type="line"/>
      <point x="-20.2" y="0.0" type="line"/>
      <point x="151.39999999999998" y="0.0" type="line"/>
      <point x="208.60000000000002" y="351.09999999999997" type="line"/>
      <point x="227.7" y="361.4"/>
      <point x="241.6" y="363.79999999999995"/>
      <point x="257.90000000000003" y="363.79999999999995" type="curve" smooth="yes"/>
      <point x="266.8" y="363.79999999999995"/>
      <point x="284.20000000000005" y="362.29999999999995"/>
      <point x="298.09999999999997" y="357.8" type="curve"/>
      <point x="354.1" y="550.6" type="line"/>
      <point x="337.4" y="558.5999999999999"/>
      <point x="324.2" y="560.0"/>
      <point x="308.59999999999997" y="560.0" type="curve" smooth="yes"/>
      <point x="281.2" y="560.0"/>
      <point x="254.70000000000002" y="544.0"/>
      <point x="215.10000000000002" y="501.0" type="curve"/>
    </contour>
  </outline>
</glyph>
<glyph name="s" format="2">
  <advance width="385.5"/>
  <unicode hex="0073"/>
  <anchor x="154.75" y="0.0" name="bottom"/>
  <anchor x="245.25" y="550.0" name="top"/>
  <outline>
    <contour>
      <point x="-28.75" y="27.75" type="line"/>
      <point x="16.75" y="5.0"/>
      <point x="68.25" y="-10.0"/>
      <point x="150.75" y="-10.0" type="curve" smooth="yes"/>
      <point x="276.0" y="-10.0"/>
      <point x="364.75" y="45.75"/>
      <point x="364.75" y="197.75" type="curve" smooth="yes"/>
      <point x="364.75" y="387.25"/>
      <point x="177.0" y="330.0"/>
      <point x="177.0" y="383.0" type="curve" smooth="yes"/>
      <point x="177.0" y="396.5"/>
      <point x="194.5" y="398.25"/>
      <point x="233.25" y="398.25" type="curve" smooth="yes"/>
      <point x="268.5" y="398.25"/>
      <point x="313.25" y="389.25"/>
      <point x="350.75" y="374.75" type="curve"/>
      <point x="394.25" y="531.0" type="line"/>
      <point x="361.0" y="547.25"/>
      <point x="303.25" y="560.0"/>
      <point x="241.5" y="560.0" type="curve" smooth="yes"/>
      <point x="88.25" y="560.0"/>
      <point x="20.25" y="474.5"/>
      <point x="20.25" y="361.5" type="curve" smooth="yes"/>
      <point x="20.25" y="180.0"/>
      <point x="209.0" y="218.25"/>
      <point x="209.0" y="161.5" type="curve" smooth="yes"/>
      <point x="209.0" y="148.5"/>
      <point x="192.0" y="146.75"/>
      <point x="153.25" y="146.75" type="curve" smooth="yes"/>
      <point x="108.25" y="146.75"/>
      <point x="54.0" y="160.25"/>
      <point x="20.0" y="177.0" type="curve"/>
    </contour>
  </outline>
</glyph>
<glyph name="t" format="2">
  <advance width="286.1"/>
  <unicode hex="0074"/>
  <anchor x="120.3" y="0.0" name="bottom"/>
  <anchor x="142.39999999999998" y="275.0" name="center"/>
  <anchor x="199.7" y="655.1" name="top"/>
  <anchor x="327.90000000000003" y="767.5" name="topright"/>
  <outline>
    <contour>
      <point x="254.2" y="163.5" type="line"/>
      <point x="241.3" y="160.7"/>
      <point x="233.7" y="159.1"/>
      <point x="226.4" y="159.1" type="curve" smooth="yes"/>
      <point x="206.10000000000002" y="159.1"/>
      <point x="200.0" y="171.79999999999998"/>
      <point x="200.0" y="188.7" type="curve" smooth="yes"/>
      <point x="200.0" y="195.5"/>
      <point x="200.9" y="203.2"/>
      <point x="201.9" y="211.89999999999998" type="curve" smooth="yes"/>
      <point x="232.7" y="397.09999999999997" type="line"/>
      <point x="293.70000000000005" y="397.09999999999997" type="line"/>
      <point x="320.20000000000005" y="550.0" type="line"/>
      <point x="258.9" y="550.0" type="line"/>
      <point x="275.20000000000005" y="655.1" type="line"/>
      <point x="124.10000000000001" y="655.1" type="line"/>
      <point x="86.1" y="550.0" type="line"/>
      <point x="44.7" y="542.6" type="line"/>
      <point x="19.4" y="398.0" type="line"/>
      <point x="59.3" y="398.0" type="line"/>
      <point x="25.900000000000002" y="192.1" type="line" smooth="yes"/>
      <point x="20.900000000000002" y="161.2"/>
      <point x="16.2" y="119.0"/>
      <point x="16.2" y="95.89999999999999" type="curve" smooth="yes"/>
      <point x="16.2" y="8.600000000000001"/>
      <point x="73.8" y="-10.0"/>
      <point x="122.4" y="-10.0" type="curve" smooth="yes"/>
      <point x="166.1" y="-10.0"/>
      <point x="203.39999999999998" y="-1.5"/>
      <point x="235.5" y="15.7" type="curve"/>
    </contour>
  </outline>
</glyph>
<glyph name="u" format="2">
  <advance width="438.6"/>
  <unicode hex="0075"/>
  <note>
15
</note>
  <anchor x="179.8" y="0.0" name="bottom"/>
  <anchor x="396.0" y="16.1" name="ogonek"/>
  <anchor x="261.8004" y="550.0" name="top"/>
  <anchor x="426.79999999999995" y="550.0" name="topright"/>
  <outline>
    <contour>
      <point x="101.2" y="-10.0" type="curve" smooth="yes"/>
      <point x="144.60000000000002" y="-10.0"/>
      <point x="177.5" y="8.1"/>
      <point x="217.6" y="48.199999999999996" type="curve"/>
      <point x="230.0" y="16.1"/>
      <point x="264.5" y="-10.0"/>
      <point x="309.70000000000005" y="-10.0" type="curve" smooth="yes"/>
      <point x="340.5" y="-10.0"/>
      <point x="375.3" y="0.6000000000000001"/>
      <point x="396.0" y="17.2" type="curve"/>
      <point x="415.59999999999997" y="161.3" type="line"/>
      <point x="411.6" y="160.0"/>
      <point x="407.4" y="160.0"/>
      <point x="405.3" y="160.0" type="curve" smooth="yes"/>
      <point x="398.0" y="160.0"/>
      <point x="394.3" y="165.1"/>
      <point x="394.3" y="176.70000000000002" type="curve" smooth="yes"/>
      <point x="394.3" y="181.6"/>
      <point x="395.3" y="189.6"/>
      <point x="453.79999999999995" y="550.0" type="curve"/>
      <point x="282.2" y="550.0" type="line"/>
      <point x="219.39999999999998" y="165.4" type="line"/>
      <point x="211.4" y="159.70000000000002"/>
      <point x="204.0" y="156.6"/>
      <point x="194.6" y="156.6" type="curve" smooth="yes"/>
      <point x="183.8" y="156.6"/>
      <point x="178.1" y="164.1"/>
      <point x="179.9" y="176.9" type="curve" smooth="yes"/>
      <point x="196.1" y="284.09999999999997"/>
      <point x="217.4" y="415.8"/>
      <point x="239.10000000000002" y="550.0" type="curve"/>
      <point x="66.6" y="550.0" type="line"/>
      <point x="20.1" y="263.40000000000003"/>
      <point x="-3.4000000000000004" y="150.70000000000002"/>
      <point x="-3.4000000000000004" y="90.9" type="curve" smooth="yes"/>
      <point x="-3.4000000000000004" y="32.900000000000006"/>
      <point x="31.3" y="-10.0"/>
    </contour>
  </outline>
</glyph>
<glyph name="v" format="2">
  <advance width="419.45"/>
  <unicode hex="0076"/>
  <outline>
    <contour>
      <point x="267.65" y="0.09999999999999998" type="line"/>
      <point x="356.95" y="182.65"/>
      <point x="443.05" y="368.0"/>
      <point x="451.1" y="550.0" type="curve"/>
      <point x="270.75" y="550.0" type="line"/>
      <point x="269.45" y="413.8"/>
      <point x="228.15" y="290.7"/>
      <point x="183.35" y="168.0" type="curve"/>
      <point x="218.55" y="550.0" type="line"/>
      <point x="33.7" y="549.95" type="line"/>
      <point x="45.5" y="0.09999999999999998" type="line"/>
    </contour>
  </outline>
</glyph>
<glyph name="w" format="2">
  <advance width="642.5"/>
  <unicode hex="0077"/>
  <note>
15
</note>
  <anchor x="276.2" y="0.0" name="bottom"/>
  <anchor x="346.35" y="550.0" name="top"/>
  <outline>
    <contour>
      <point x="498.7" y="0.0" type="line"/>
      <point x="594.9" y="211.7"/>
      <point x="669.75" y="385.95"/>
      <point x="670.55" y="550.0" type="curve"/>
      <point x="498.2" y="550.0" type="line"/>
      <point x="493.2" y="421.25"/>
      <point x="460.55" y="298.25"/>
      <point x="419.4" y="173.85" type="curve"/>
      <point x="457.55" y="550.1" type="line"/>
      <point x="262.6" y="550.1" type="line"/>
      <point x="233.4" y="420.3"/>
      <point x="203.5" y="298.8"/>
      <point x="173.2" y="173.3" type="curve"/>
      <point x="216.4" y="550.0" type="line"/>
      <point x="35.4" y="549.95" type="line"/>
      <point x="33.15" y="0.0" type="line"/>
      <point x="250.9" y="0.0" type="line"/>
      <point x="273.8" y="97.5"/>
      <point x="297.25" y="201.55"/>
      <point x="317.55" y="297.15" type="curve"/>
      <point x="292.85" y="0.0" type="line"/>
    </contour>
  </outline>
</glyph>
<glyph name="x" format="2">
  <advance width="462.4"/>
  <unicode hex="0078"/>
  <outline>
    <contour>
      <point x="305.65" y="550.0" type="line"/>
      <point x="304.0" y="479.25"/>
      <point x="285.7" y="438.05"/>
      <point x="243.65" y="361.05" type="curve"/>
      <point x="247.1" y="550.05" type="line"/>
      <point x="53.1" y="550.2" type="line"/>
      <point x="87.45" y="278.15" type="line"/>
      <point x="37.8" y="195.15"/>
      <point x="-15.0" y="104.9"/>
      <point x="-29.25" y="0.0" type="curve"/>
      <point x="162.5" y="0.0" type="line"/>
      <point x="173.55" y="76.0"/>
      <point x="198.65" y="139.05"/>
      <point x="224.25" y="193.25" type="curve"/>
      <point x="226.15" y="-0.19999999999999996" type="line"/>
      <point x="423.5" y="-0.2" type="line"/>
      <point x="380.3" y="276.25" type="line"/>
      <point x="453.15" y="389.9"/>
      <point x="485.4" y="502.2"/>
      <point x="491.05" y="550.0" type="curve"/>
    </contour>
  </outline>
</glyph>
<glyph name="y" format="2">
  <advance width="425.5"/>
  <unicode hex="0079"/>
  <anchor x="372.25" y="0.0" name="bottom"/>
  <anchor x="250.25" y="550.0" name="top"/>
  <outline>
    <contour>
      <point x="290.25" y="549.0" type="line"/>
      <point x="292.25" y="429.75"/>
      <point x="246.75" y="308.75"/>
      <point x="188.75" y="162.0" type="curve"/>
      <point x="206.5" y="550.0" type="line"/>
      <point x="34.5" y="549.5" type="line"/>
      <point x="59.0" y="-1.0" type="line"/>
      <point x="109.5" y="-1.0" type="line"/>
      <point x="85.0" y="-58.75"/>
      <point x="52.0" y="-120.0"/>
      <point x="-1.0" y="-209.5" type="curve"/>
      <point x="163.5" y="-210.0" type="line"/>
      <point x="326.75" y="124.75"/>
      <point x="443.5" y="329.25"/>
      <point x="460.25" y="549.5" type="curve"/>
    </contour>
  </outline>
</glyph>
<glyph name="z" format="2">
  <advance width="394.85"/>
  <unicode hex="007A"/>
  <anchor x="161.8" y="0.0" name="bottom"/>
  <anchor x="196.85" y="275.0" name="center"/>
  <anchor x="240.8" y="550.0" name="top"/>
  <outline>
    <contour>
      <point x="-22.5" y="0.0" type="line"/>
      <point x="335.3" y="0.0" type="line"/>
      <point x="359.9" y="158.25" type="line"/>
      <point x="196.65" y="158.25" type="line"/>
      <point x="383.2" y="397.1" type="line"/>
      <point x="413.85" y="550.0" type="line"/>
      <point x="65.15" y="550.0" type="line"/>
      <point x="39.55" y="389.95" type="line"/>
      <point x="192.9" y="389.95" type="line"/>
      <point x="-0.30000000000000004" y="141.5" type="line"/>
    </contour>
  </outline>
</glyph>
<glyph name="braceleft" format="2">
  <advance width="265.1"/>
  <unicode hex="007B"/>
  <outline>
    <contour>
      <point x="-10.1" y="-85.0" type="curve" smooth="yes"/>
      <point x="-10.1" y="-175.5"/>
      <point x="37.199999999999996" y="-210.0"/>
      <point x="95.5" y="-210.0" type="curve" smooth="yes"/>
      <point x="171.8" y="-210.0" type="line"/>
      <point x="197.70000000000002" y="-61.0" type="line"/>
      <point x="171.2" y="-61.0" type="line" smooth="yes"/>
      <point x="153.60000000000002" y="-61.0"/>
      <point x="145.79999999999998" y="-49.8"/>
      <point x="145.79999999999998" y="-28.4" type="curve" smooth="yes"/>
      <point x="145.79999999999998" y="40.0"/>
      <point x="196.3" y="94.9"/>
      <point x="196.3" y="162.6" type="curve" smooth="yes"/>
      <point x="196.3" y="201.3"/>
      <point x="184.8" y="236.89999999999998"/>
      <point x="155.3" y="265.0" type="curve"/>
      <point x="212.10000000000002" y="308.8"/>
      <point x="240.7" y="369.5"/>
      <point x="240.7" y="435.9" type="curve" smooth="yes"/>
      <point x="240.7" y="462.3"/>
      <point x="236.1" y="485.7"/>
      <point x="236.1" y="513.6" type="curve" smooth="yes"/>
      <point x="236.1" y="544.5"/>
      <point x="244.1" y="591.0"/>
      <point x="279.4" y="591.0" type="curve" smooth="yes"/>
      <point x="304.1" y="591.0" type="line"/>
      <point x="328.20000000000005" y="740.0" type="line"/>
      <point x="251.9" y="740.0" type="line" smooth="yes"/>
      <point x="130.4" y="740.0"/>
      <point x="86.7" y="621.6"/>
      <point x="86.7" y="504.9" type="curve" smooth="yes"/>
      <point x="86.7" y="469.79999999999995"/>
      <point x="93.9" y="444.7"/>
      <point x="93.9" y="411.90000000000003" type="curve" smooth="yes"/>
      <point x="93.9" y="379.1"/>
      <point x="88.0" y="343.0"/>
      <point x="56.699999999999996" y="343.0" type="curve" smooth="yes"/>
      <point x="42.5" y="343.0" type="line"/>
      <point x="17.5" y="186.1" type="line"/>
      <point x="31.700000000000003" y="186.1" type="line" smooth="yes"/>
      <point x="48.400000000000006" y="186.1"/>
      <point x="54.0" y="177.79999999999998"/>
      <point x="54.0" y="160.3" type="curve" smooth="yes"/>
      <point x="54.0" y="102.8"/>
      <point x="-10.1" y="13.8"/>
    </contour>
  </outline>
</glyph>
<glyph name="bar" format="2">
  <advance width="180.2"/>
  <unicode hex="007C"/>
  <outline>
    <contour>
      <point x="245.8" y="790.9" type="line"/>
      <point x="97.8" y="790.9" type="line"/>
      <point x="-61.5" y="-210.0" type="line"/>
      <point x="87.3" y="-210.0" type="line"/>
    </contour>
  </outline>
</glyph>
<glyph name="braceright" format="2">
  <advance width="265.1"/>
  <unicode hex="007D"/>
  <outline>
    <contour>
      <point x="272.2" y="615.0" type="curve" smooth="yes"/>
      <point x="272.2" y="706.4"/>
      <point x="224.0" y="740.9"/>
      <point x="165.70000000000002" y="740.9" type="curve" smooth="yes"/>
      <point x="89.4" y="740.9" type="line"/>
      <point x="63.5" y="591.9" type="line"/>
      <point x="81.0" y="591.9" type="line" smooth="yes"/>
      <point x="99.5" y="591.9"/>
      <point x="108.2" y="579.8"/>
      <point x="108.2" y="558.4000000000001" type="curve" smooth="yes"/>
      <point x="108.2" y="488.2"/>
      <point x="57.7" y="451.3"/>
      <point x="57.7" y="364.7" type="curve" smooth="yes"/>
      <point x="57.7" y="328.7"/>
      <point x="68.30000000000001" y="293.09999999999997"/>
      <point x="99.60000000000001" y="265.90000000000003" type="curve"/>
      <point x="42.800000000000004" y="221.2"/>
      <point x="13.300000000000002" y="162.29999999999998"/>
      <point x="13.300000000000002" y="95.0" type="curve" smooth="yes"/>
      <point x="13.300000000000002" y="68.6"/>
      <point x="17.9" y="45.2"/>
      <point x="17.9" y="19.099999999999998" type="curve" smooth="yes"/>
      <point x="17.9" y="-11.8"/>
      <point x="10.8" y="-60.1"/>
      <point x="-24.5" y="-60.1" type="curve" smooth="yes"/>
      <point x="-42.0" y="-60.1" type="line"/>
      <point x="-66.10000000000001" y="-210.0" type="line"/>
      <point x="9.3" y="-210.0" type="line" smooth="yes"/>
      <point x="130.8" y="-210.0"/>
      <point x="174.5" y="-79.9"/>
      <point x="174.5" y="8.0" type="curve" smooth="yes"/>
      <point x="174.5" y="67.39999999999999"/>
      <point x="167.3" y="96.10000000000001"/>
      <point x="167.3" y="122.6" type="curve" smooth="yes"/>
      <point x="167.3" y="153.6"/>
      <point x="175.0" y="187.89999999999998"/>
      <point x="204.5" y="187.89999999999998" type="curve" smooth="yes"/>
      <point x="218.7" y="187.89999999999998" type="line"/>
      <point x="243.7" y="343.9" type="line"/>
      <point x="229.5" y="343.9" type="line" smooth="yes"/>
      <point x="212.79999999999998" y="343.9"/>
      <point x="207.20000000000002" y="352.2"/>
      <point x="207.20000000000002" y="369.7" type="curve" smooth="yes"/>
      <point x="207.20000000000002" y="428.09999999999997"/>
      <point x="272.2" y="503.59999999999997"/>
    </contour>
  </outline>
</glyph>
<glyph name="asciitilde" format="2">
  <advance width="424.7"/>
  <unicode hex="007E"/>
  <outline>
    <contour>
      <point x="365.59999999999997" y="234.9" type="curve"/>
      <point x="390.2" y="395.90000000000003" type="line"/>
      <point x="362.3" y="371.4"/>
      <point x="336.1" y="363.1"/>
      <point x="308.0" y="363.1" type="curve" smooth="yes"/>
      <point x="239.1" y="363.1"/>
      <point x="223.7" y="428.9"/>
      <point x="159.2" y="428.9" type="curve" smooth="yes"/>
      <point x="118.4" y="428.9"/>
      <point x="78.5" y="403.5"/>
      <point x="72.69999999999999" y="396.5" type="curve"/>
      <point x="47.6" y="235.5" type="line"/>
      <point x="56.3" y="244.1"/>
      <point x="94.8" y="267.5"/>
      <point x="134.1" y="267.5" type="curve" smooth="yes"/>
      <point x="202.79999999999998" y="267.5"/>
      <point x="217.6" y="201.70000000000002"/>
      <point x="284.7" y="201.70000000000002" type="curve" smooth="yes"/>
      <point x="311.0" y="201.70000000000002"/>
      <point x="338.4" y="210.79999999999998"/>
    </contour>
  </outline>
</glyph>
<glyph name="cent" format="2">
  <advance width="483.0"/>
  <unicode hex="00A2"/>
  <outline>
    <contour>
      <point x="129.29999999999998" y="-105.8" type="line"/>
      <point x="278.5" y="-105.8" type="line"/>
      <point x="294.5" y="-2.7" type="line"/>
      <point x="323.7" y="1.0999999999999999"/>
      <point x="350.8" y="7.199999999999999"/>
      <point x="370.0" y="16.5" type="curve"/>
      <point x="370.0" y="192.9" type="line"/>
      <point x="343.3" y="187.5"/>
      <point x="321.5" y="182.0"/>
      <point x="301.9" y="182.0" type="curve" smooth="yes"/>
      <point x="268.5" y="182.0"/>
      <point x="258.0" y="207.7"/>
      <point x="258.0" y="237.5" type="curve" smooth="yes"/>
      <point x="258.0" y="289.0"/>
      <point x="273.3" y="366.6"/>
      <point x="330.79999999999995" y="366.6" type="curve" smooth="yes"/>
      <point x="350.7" y="366.6"/>
      <point x="368.1" y="364.2"/>
      <point x="389.7" y="357.5" type="curve"/>
      <point x="446.29999999999995" y="541.4" type="line"/>
      <point x="428.6" y="547.7"/>
      <point x="408.5" y="552.6"/>
      <point x="382.9" y="555.5" type="curve"/>
      <point x="399.0" y="654.1" type="line"/>
      <point x="249.79999999999998" y="654.1" type="line"/>
      <point x="231.6" y="541.0" type="line"/>
      <point x="112.10000000000001" y="474.0"/>
      <point x="71.39999999999999" y="286.59999999999997"/>
      <point x="71.39999999999999" y="164.1" type="curve" smooth="yes"/>
      <point x="71.39999999999999" y="79.1"/>
      <point x="98.19999999999999" y="29.299999999999997"/>
      <point x="146.4" y="6.3" type="curve"/>
    </contour>
  </outline>
</glyph>
<glyph name="sterling" format="2">
  <advance width="483.0"/>
  <unicode hex="00A3"/>
  <outline>
    <contour>
      <point x="21.4" y="0.0" type="line"/>
      <point x="372.9" y="0.0" type="line"/>
      <point x="398.4" y="163.0" type="line"/>
      <point x="250.4" y="163.0" type="line"/>
      <point x="283.3" y="200.79999999999998"/>
      <point x="306.9" y="243.6"/>
      <point x="306.9" y="301.5" type="curve" smooth="yes"/>
      <point x="306.9" y="342.6"/>
      <point x="294.20000000000005" y="399.0"/>
      <point x="294.20000000000005" y="439.3" type="curve" smooth="yes"/>
      <point x="294.20000000000005" y="499.59999999999997"/>
      <point x="322.9" y="529.0"/>
      <point x="372.09999999999997" y="529.0" type="curve" smooth="yes"/>
      <point x="392.5" y="529.0"/>
      <point x="409.8" y="527.1"/>
      <point x="431.3" y="518.1" type="curve"/>
      <point x="481.9" y="675.6" type="line"/>
      <point x="446.8" y="698.5"/>
      <point x="401.1" y="710.0"/>
      <point x="353.79999999999995" y="710.0" type="curve" smooth="yes"/>
      <point x="201.2" y="710.0"/>
      <point x="125.1" y="578.7"/>
      <point x="125.1" y="463.7" type="curve" smooth="yes"/>
      <point x="125.1" y="397.29999999999995"/>
      <point x="146.5" y="336.70000000000005"/>
      <point x="146.5" y="283.6" type="curve" smooth="yes"/>
      <point x="146.5" y="216.10000000000002"/>
      <point x="95.0" y="157.9"/>
      <point x="40.1" y="122.0" type="curve"/>
    </contour>
    <contour>
      <point x="67.3" y="308.79999999999995" type="line"/>
      <point x="384.7" y="308.8" type="line"/>
      <point x="399.09999999999997" y="401.79999999999995" type="line"/>
      <point x="81.6" y="401.79999999999995" type="line"/>
    </contour>
  </outline>
</glyph>
<glyph name="currency" format="2">
  <advance width="401.9"/>
  <unicode hex="00A4"/>
  <outline>
    <contour>
      <point x="97.3" y="96.1" type="line"/>
      <point x="154.5" y="150.8" type="line"/>
      <point x="162.79999999999998" y="148.8"/>
      <point x="172.2" y="148.7"/>
      <point x="182.5" y="148.7" type="curve" smooth="yes"/>
      <point x="191.2" y="148.7"/>
      <point x="199.8" y="148.79999999999998"/>
      <point x="208.4" y="150.0" type="curve"/>
      <point x="249.7" y="96.1" type="line"/>
      <point x="368.40000000000003" y="209.4" type="line"/>
      <point x="336.5" y="251.8" type="line"/>
      <point x="343.29999999999995" y="267.20000000000005"/>
      <point x="347.7" y="282.9"/>
      <point x="349.5" y="299.0" type="curve" smooth="yes"/>
      <point x="351.29999999999995" y="310.7"/>
      <point x="351.2" y="323.3"/>
      <point x="350.2" y="335.8" type="curve"/>
      <point x="395.7" y="378.2" type="line"/>
      <point x="312.4" y="491.5" type="line"/>
      <point x="256.8" y="440.3" type="line"/>
      <point x="248.29999999999998" y="441.5"/>
      <point x="238.8" y="442.5"/>
      <point x="229.1" y="442.5" type="curve" smooth="yes"/>
      <point x="217.9" y="442.5"/>
      <point x="207.6" y="440.6"/>
      <point x="197.39999999999998" y="439.5" type="curve"/>
      <point x="159.89999999999998" y="491.5" type="line"/>
      <point x="39.400000000000006" y="378.2" type="line"/>
      <point x="73.5" y="331.79999999999995" type="line"/>
      <point x="68.3" y="319.1"/>
      <point x="64.8" y="305.9"/>
      <point x="63.0" y="292.5" type="curve" smooth="yes"/>
      <point x="61.2" y="280.5"/>
      <point x="60.400000000000006" y="267.6"/>
      <point x="61.5" y="255.8" type="curve"/>
      <point x="12.0" y="209.4" type="line"/>
    </contour>
    <contour>
      <point x="201.6" y="265.2" type="curve" smooth="yes"/>
      <point x="184.7" y="265.2"/>
      <point x="176.4" y="275.3"/>
      <point x="179.10000000000002" y="294.0" type="curve" smooth="yes"/>
      <point x="181.8" y="311.6"/>
      <point x="193.5" y="325.1"/>
      <point x="210.79999999999998" y="325.1" type="curve" smooth="yes"/>
      <point x="227.8" y="325.1"/>
      <point x="235.20000000000002" y="312.1"/>
      <point x="232.5" y="295.3" type="curve" smooth="yes"/>
      <point x="229.8" y="275.6"/>
      <point x="218.7" y="265.2"/>
    </contour>
  </outline>
</glyph>
<glyph name="yen" format="2">
  <advance width="498.5"/>
  <unicode hex="00A5"/>
  <outline>
    <contour>
      <point x="61.75" y="285.0" type="line"/>
      <point x="169.75" y="285.0" type="line"/>
      <point x="166.25" y="258.75" type="line"/>
      <point x="58.0" y="258.75" type="line"/>
      <point x="44.0" y="167.75" type="line"/>
      <point x="152.25" y="167.75" type="line"/>
      <point x="124.75" y="0.0" type="line"/>
      <point x="286.75" y="0.0" type="line"/>
      <point x="315.25" y="167.75" type="line"/>
      <point x="422.0" y="167.75" type="line"/>
      <point x="436.0" y="258.75" type="line"/>
      <point x="328.25" y="258.75" type="line"/>
      <point x="331.75" y="285.0" type="line"/>
      <point x="440.5" y="285.0" type="line"/>
      <point x="454.5" y="376.25" type="line"/>
      <point x="346.5" y="376.25" type="line"/>
      <point x="545.25" y="700.0" type="line"/>
      <point x="370.25" y="700.0" type="line"/>
      <point x="282.75" y="488.25" type="line"/>
      <point x="263.75" y="700.5" type="line"/>
      <point x="88.0" y="699.25" type="line"/>
      <point x="184.75" y="376.25" type="line"/>
      <point x="75.75" y="376.25" type="line"/>
    </contour>
  </outline>
</glyph>
<glyph name="brokenbar" format="2">
  <advance width="184.7"/>
  <unicode hex="00A6"/>
  <outline>
    <contour>
      <point x="185.3" y="391.0" type="line"/>
      <point x="251.20000000000002" y="790.9" type="line"/>
      <point x="103.2" y="790.9" type="line"/>
      <point x="37.3" y="391.0" type="line"/>
    </contour>
    <contour>
      <point x="3.500000000000001" y="190.9" type="line"/>
      <point x="-61.5" y="-210.0" type="line"/>
      <point x="86.4" y="-210.0" type="line"/>
      <point x="152.3" y="190.9" type="line"/>
    </contour>
  </outline>
</glyph>
<glyph name="section" format="2">
  <advance width="437.95"/>
  <unicode hex="00A7"/>
  <outline>
    <contour>
      <point x="14.9" y="0.5999999999999996" type="curve"/>
      <point x="-48.4" y="-185.9" type="line"/>
      <point x="-12.45" y="-206.1"/>
      <point x="60.15" y="-220.0"/>
      <point x="92.75" y="-220.0" type="curve" smooth="yes"/>
      <point x="295.0" y="-220.0"/>
      <point x="391.9" y="-8.3"/>
      <point x="391.9" y="159.7" type="curve" smooth="yes"/>
      <point x="391.9" y="277.15"/>
      <point x="327.3" y="375.25"/>
      <point x="327.3" y="476.3" type="curve" smooth="yes"/>
      <point x="327.3" y="514.2"/>
      <point x="344.3" y="549.1"/>
      <point x="377.8" y="549.1" type="curve" smooth="yes"/>
      <point x="388.85" y="549.1"/>
      <point x="394.7" y="544.4"/>
      <point x="407.1" y="537.5" type="curve"/>
      <point x="473.5" y="722.7" type="line"/>
      <point x="447.1" y="741.35"/>
      <point x="385.8" y="749.9"/>
      <point x="355.4" y="749.9" type="curve" smooth="yes"/>
      <point x="134.9" y="749.9"/>
      <point x="45.35" y="554.2"/>
      <point x="45.35" y="378.0" type="curve" smooth="yes"/>
      <point x="45.35" y="240.5"/>
      <point x="110.6" y="114.8"/>
      <point x="110.6" y="26.2" type="curve" smooth="yes"/>
      <point x="110.6" y="5.6"/>
      <point x="99.5" y="-20.8"/>
      <point x="71.8" y="-20.8" type="curve" smooth="yes"/>
      <point x="52.95" y="-20.8"/>
      <point x="33.45" y="-15.75"/>
    </contour>
    <contour>
      <point x="291.55" y="637.05" type="curve"/>
      <point x="228.1" y="585.9"/>
      <point x="208.1" y="510.7"/>
      <point x="208.1" y="447.7" type="curve" smooth="yes"/>
      <point x="208.1" y="343.9"/>
      <point x="265.8" y="229.5"/>
      <point x="265.8" y="130.2" type="curve" smooth="yes"/>
      <point x="265.8" y="25.6"/>
      <point x="213.3" y="-105.6"/>
      <point x="104.2" y="-115.4" type="curve"/>
      <point x="198.85" y="-83.75"/>
      <point x="231.7" y="3.8"/>
      <point x="231.7" y="80.6" type="curve" smooth="yes"/>
      <point x="231.7" y="190.55"/>
      <point x="172.3" y="294.0"/>
      <point x="172.3" y="401.0" type="curve" smooth="yes"/>
      <point x="172.3" y="488.1"/>
      <point x="204.85" y="595.0"/>
    </contour>
  </outline>
</glyph>
<glyph name="copyright" format="2">
  <advance width="689.2"/>
  <unicode hex="00A9"/>
  <outline>
    <contour>
      <point x="326.65" y="-10.1" type="curve" smooth="yes"/>
      <point x="560.9" y="-10.4"/>
      <point x="668.35" y="169.15"/>
      <point x="668.35" y="405.25" type="curve" smooth="yes"/>
      <point x="668.35" y="601.35"/>
      <point x="569.0" y="709.35"/>
      <point x="386.5" y="709.65" type="curve" smooth="yes"/>
      <point x="152.1" y="709.95"/>
      <point x="43.95" y="530.7"/>
      <point x="43.95" y="294.4" type="curve" smooth="yes"/>
      <point x="43.95" y="98.4"/>
      <point x="143.5" y="-9.8"/>
    </contour>
    <contour>
      <point x="340.95" y="118.4" type="curve" smooth="yes"/>
      <point x="370.15" y="118.4"/>
      <point x="404.15" y="125.5"/>
      <point x="423.85" y="137.35" type="curve"/>
      <point x="422.55" y="233.35" type="line"/>
      <point x="409.0" y="228.2"/>
      <point x="392.55" y="224.6"/>
      <point x="378.35" y="224.6" type="curve" smooth="yes"/>
      <point x="349.1" y="224.6"/>
      <point x="329.85" y="252.05"/>
      <point x="329.85" y="300.45" type="curve" smooth="yes"/>
      <point x="329.85" y="387.5"/>
      <point x="359.35" y="464.85"/>
      <point x="408.55" y="464.85" type="curve" smooth="yes"/>
      <point x="420.8" y="464.85"/>
      <point x="433.1" y="462.7"/>
      <point x="444.65" y="457.25" type="curve"/>
      <point x="477.65" y="568.5" type="line"/>
      <point x="463.9" y="576.05"/>
      <point x="442.1" y="582.85"/>
      <point x="408.05" y="582.85" type="curve" smooth="yes"/>
      <point x="309.55" y="582.85"/>
      <point x="214.85" y="470.15"/>
      <point x="214.85" y="299.4" type="curve" smooth="yes"/>
      <point x="214.85" y="177.45"/>
      <point x="262.35" y="118.4"/>
    </contour>
    <contour>
      <point x="332.65" y="45.75" type="curve" smooth="yes"/>
      <point x="184.45" y="45.75"/>
      <point x="103.85" y="130.3"/>
      <point x="103.85" y="294.2" type="curve" smooth="yes"/>
      <point x="103.85" y="494.85"/>
      <point x="183.8" y="653.8"/>
      <point x="380.55" y="653.8" type="curve" smooth="yes"/>
      <point x="527.25" y="653.8"/>
      <point x="608.45" y="569.25"/>
      <point x="608.45" y="405.65" type="curve" smooth="yes"/>
      <point x="608.45" y="205.2"/>
      <point x="529.2" y="45.75"/>
    </contour>
  </outline>
</glyph>
<glyph name="ordfeminine" format="2">
  <advance width="305.59999999999997"/>
  <unicode hex="00AA"/>
  <outline>
    <contour>
      <point x="18.7" y="233.9" type="line"/>
      <point x="274.9" y="233.9" type="line"/>
      <point x="288.7" y="324.8" type="line"/>
      <point x="32.5" y="324.8" type="line"/>
    </contour>
    <component base="a.superior" xOffset="8.0"/>
  </outline>
</glyph>
<glyph name="logicalnot" format="2">
  <advance width="422.4"/>
  <unicode hex="00AC"/>
  <outline>
    <contour>
      <point x="46.6" y="295.40000000000003" type="line"/>
      <point x="224.3" y="295.40000000000003" type="line"/>
      <point x="207.0" y="176.3" type="line"/>
      <point x="363.1" y="176.3" type="line"/>
      <point x="406.3" y="450.90000000000003" type="line"/>
      <point x="72.5" y="450.90000000000003" type="line"/>
    </contour>
  </outline>
</glyph>
<glyph name="registered" format="2">
  <advance width="633.6"/>
  <unicode hex="00AE"/>
  <outline>
    <contour>
      <point x="322.2" y="208.2" type="curve" smooth="yes"/>
      <point x="518.2" y="208.2"/>
      <point x="645.6" y="363.6"/>
      <point x="645.6" y="604.8" type="curve" smooth="yes"/>
      <point x="645.6" y="784.4"/>
      <point x="560.55" y="893.0"/>
      <point x="398.1" y="893.0" type="curve" smooth="yes"/>
      <point x="202.1" y="893.0"/>
      <point x="75.2" y="737.35"/>
      <point x="75.2" y="496.4" type="curve" smooth="yes"/>
      <point x="75.2" y="316.8"/>
      <point x="159.75" y="208.2"/>
    </contour>
    <contour>
      <point x="326.9" y="260.9" type="curve" smooth="yes"/>
      <point x="197.95" y="260.9"/>
      <point x="129.55" y="351.4"/>
      <point x="129.55" y="493.75" type="curve" smooth="yes"/>
      <point x="129.55" y="707.95"/>
      <point x="229.6" y="840.05"/>
      <point x="393.4" y="840.05" type="curve" smooth="yes"/>
      <point x="522.35" y="840.05"/>
      <point x="591.25" y="749.8"/>
      <point x="591.25" y="607.2" type="curve" smooth="yes"/>
      <point x="591.25" y="393.0"/>
      <point x="490.7" y="260.9"/>
    </contour>
    <contour>
      <point x="212.8" y="346.05" type="line"/>
      <point x="315.7" y="346.05" type="line"/>
      <point x="335.0" y="468.85" type="line"/>
      <point x="338.3" y="468.75"/>
      <point x="341.4" y="468.65"/>
      <point x="345.65" y="468.65" type="curve"/>
      <point x="355.9" y="479.4" type="line"/>
      <point x="444.15" y="479.35"/>
      <point x="507.4" y="544.0"/>
      <point x="507.4" y="651.2" type="curve" smooth="yes"/>
      <point x="507.4" y="728.45"/>
      <point x="465.25" y="772.25"/>
      <point x="387.9" y="772.25" type="curve" smooth="yes"/>
      <point x="349.35" y="772.25"/>
      <point x="316.8" y="769.5"/>
      <point x="279.65" y="765.3" type="curve"/>
    </contour>
    <contour>
      <point x="359.3" y="552.55" type="curve" smooth="yes"/>
      <point x="356.6" y="552.55"/>
      <point x="353.3" y="553.4"/>
      <point x="348.05" y="554.3" type="curve"/>
      <point x="368.5" y="676.45" type="line"/>
      <point x="375.95" y="677.4"/>
      <point x="380.2" y="678.4"/>
      <point x="385.55" y="678.4" type="curve" smooth="yes"/>
      <point x="399.25" y="678.4"/>
      <point x="405.1" y="666.35"/>
      <point x="405.1" y="648.7" type="curve" smooth="yes"/>
      <point x="405.1" y="600.85"/>
      <point x="385.2" y="552.55"/>
    </contour>
    <contour>
      <point x="434.05" y="340.2" type="curve" smooth="yes"/>
      <point x="441.15" y="340.2"/>
      <point x="458.55" y="342.75"/>
      <point x="466.2" y="346.45" type="curve"/>
      <point x="478.75" y="457.15" type="line"/>
      <point x="476.65" y="457.2"/>
      <point x="474.55" y="457.2"/>
      <point x="472.45" y="457.2" type="curve" smooth="yes"/>
      <point x="450.75" y="457.2"/>
      <point x="431.8" y="476.0"/>
      <point x="423.3" y="515.45" type="curve"/>
      <point x="336.0" y="490.15" type="line"/>
      <point x="364.3" y="352.1"/>
      <point x="394.25" y="340.2"/>
    </contour>
  </outline>
</glyph>
<glyph name="degree" format="2">
  <advance width="310.8"/>
  <unicode hex="00B0"/>
  <outline>
    <contour>
      <point x="171.2" y="365.8" type="curve" smooth="yes"/>
      <point x="286.4" y="365.8"/>
      <point x="333.7" y="491.5"/>
      <point x="333.7" y="584.7" type="curve" smooth="yes"/>
      <point x="333.7" y="654.1"/>
      <point x="304.9" y="709.8"/>
      <point x="223.5" y="709.8" type="curve" smooth="yes"/>
      <point x="109.2" y="709.8"/>
      <point x="60.1" y="585.9000000000001"/>
      <point x="60.1" y="492.7" type="curve" smooth="yes"/>
      <point x="60.1" y="419.7"/>
      <point x="93.4" y="365.8"/>
    </contour>
    <contour>
      <point x="189.89999999999998" y="494.2" type="curve" smooth="yes"/>
      <point x="177.6" y="494.2"/>
      <point x="170.89999999999998" y="504.70000000000005"/>
      <point x="170.89999999999998" y="522.2" type="curve" smooth="yes"/>
      <point x="170.89999999999998" y="546.5"/>
      <point x="180.20000000000002" y="577.8"/>
      <point x="203.0" y="577.8" type="curve" smooth="yes"/>
      <point x="216.2" y="577.8"/>
      <point x="222.89999999999998" y="567.3"/>
      <point x="222.89999999999998" y="550.6999999999999" type="curve" smooth="yes"/>
      <point x="222.89999999999998" y="527.3"/>
      <point x="212.70000000000002" y="494.2"/>
    </contour>
  </outline>
</glyph>
<glyph name="plusminus" format="2">
  <advance width="422.59999999999997"/>
  <unicode hex="00B1"/>
  <outline>
    <contour>
      <point x="334.5" y="-0.1" type="line"/>
      <point x="360.40000000000003" y="164.4" type="line"/>
      <point x="269.7" y="164.4" type="line"/>
      <point x="283.1" y="247.8" type="line"/>
      <point x="373.8" y="247.8" type="line"/>
      <point x="399.7" y="412.29999999999995" type="line"/>
      <point x="309.0" y="412.29999999999995" type="line"/>
      <point x="323.6" y="504.3" type="line"/>
      <point x="171.1" y="504.3" type="line"/>
      <point x="156.3" y="412.29999999999995" type="line"/>
      <point x="65.9" y="412.29999999999995" type="line"/>
      <point x="40.0" y="247.8" type="line"/>
      <point x="130.6" y="247.8" type="line"/>
      <point x="117.0" y="164.4" type="line"/>
      <point x="26.599999999999998" y="164.4" type="line"/>
      <point x="0.7000000000000003" y="-0.1" type="line"/>
    </contour>
  </outline>
</glyph>
<glyph name="uni00B2" format="2">
  <advance width="276.75"/>
  <unicode hex="00B2"/>
  <outline>
    <contour>
      <point x="36.75" y="369.95" type="line"/>
      <point x="264.4" y="369.95" type="line"/>
      <point x="279.95" y="454.45" type="line"/>
      <point x="179.9" y="454.45" type="line"/>
      <point x="249.45" y="525.55"/>
      <point x="311.4" y="592.15"/>
      <point x="311.4" y="683.3" type="curve" smooth="yes"/>
      <point x="311.4" y="739.2"/>
      <point x="271.85" y="773.95"/>
      <point x="212.2" y="773.95" type="curve" smooth="yes"/>
      <point x="166.25" y="773.95"/>
      <point x="120.6" y="759.1"/>
      <point x="87.25" y="738.05" type="curve"/>
      <point x="106.15" y="632.15" type="line"/>
      <point x="124.4" y="641.95"/>
      <point x="140.9" y="648.7"/>
      <point x="159.25" y="648.7" type="curve" smooth="yes"/>
      <point x="176.2" y="648.7"/>
      <point x="183.6" y="637.4"/>
      <point x="183.6" y="622.7" type="curve" smooth="yes"/>
      <point x="183.5" y="578.5"/>
      <point x="99.65" y="476.75"/>
      <point x="49.9" y="445.55" type="curve"/>
    </contour>
  </outline>
</glyph>
<glyph name="uni00B3" format="2">
  <advance width="295.75"/>
  <unicode hex="00B3"/>
  <outline>
    <contour>
      <point x="37.5" y="393.0" type="line"/>
      <point x="66.0" y="376.0"/>
      <point x="96.5" y="365.5"/>
      <point x="143.5" y="365.5" type="curve" smooth="yes"/>
      <point x="217.0" y="365.5"/>
      <point x="301.75" y="406.5"/>
      <point x="301.75" y="501.75" type="curve" smooth="yes"/>
      <point x="301.75" y="546.25"/>
      <point x="279.5" y="566.5"/>
      <point x="257.0" y="579.5" type="curve"/>
      <point x="300.25" y="605.75"/>
      <point x="329.5" y="636.0"/>
      <point x="329.5" y="690.5" type="curve" smooth="yes"/>
      <point x="329.5" y="743.5"/>
      <point x="284.75" y="775.75"/>
      <point x="218.5" y="775.75" type="curve" smooth="yes"/>
      <point x="173.5" y="775.75"/>
      <point x="129.75" y="762.75"/>
      <point x="99.5" y="743.5" type="curve"/>
      <point x="114.0" y="659.0" type="line"/>
      <point x="128.5" y="664.75"/>
      <point x="152.5" y="669.75"/>
      <point x="172.75" y="669.75" type="curve" smooth="yes"/>
      <point x="201.25" y="669.75"/>
      <point x="213.0" y="657.75"/>
      <point x="213.0" y="643.25" type="curve" smooth="yes"/>
      <point x="213.0" y="625.5"/>
      <point x="193.0" y="611.5"/>
      <point x="165.75" y="611.5" type="curve" smooth="yes"/>
      <point x="134.0" y="611.5" type="line"/>
      <point x="119.5" y="533.0" type="line"/>
      <point x="153.75" y="533.0" type="line" smooth="yes"/>
      <point x="184.0" y="533.0"/>
      <point x="196.0" y="519.5"/>
      <point x="196.0" y="504.0" type="curve" smooth="yes"/>
      <point x="196.0" y="482.0"/>
      <point x="176.75" y="466.25"/>
      <point x="142.75" y="466.25" type="curve" smooth="yes"/>
      <point x="122.0" y="466.25"/>
      <point x="105.0" y="470.25"/>
      <point x="86.25" y="480.25" type="curve"/>
    </contour>
  </outline>
</glyph>
<glyph name="uni00B5" format="2">
  <advance width="439.8"/>
  <unicode hex="00B5"/>
  <outline>
    <contour>
      <point x="-54.0" y="-210.0" type="line"/>
      <point x="118.3" y="-210.0" type="line"/>
      <point x="150.4" y="-9.8" type="line"/>
      <point x="152.29999999999998" y="-9.9"/>
      <point x="153.4" y="-10.0"/>
      <point x="155.4" y="-10.0" type="curve" smooth="yes"/>
      <point x="175.89999999999998" y="-10.0"/>
      <point x="202.5" y="1.8"/>
      <point x="226.9" y="37.4" type="curve"/>
      <point x="239.29999999999998" y="14.3"/>
      <point x="270.2" y="-10.0"/>
      <point x="310.9" y="-10.0" type="curve" smooth="yes"/>
      <point x="341.7" y="-10.0"/>
      <point x="376.5" y="0.6000000000000001"/>
      <point x="397.2" y="17.2" type="curve"/>
      <point x="416.8" y="161.3" type="line"/>
      <point x="412.79999999999995" y="160.0"/>
      <point x="408.59999999999997" y="160.0"/>
      <point x="406.5" y="160.0" type="curve" smooth="yes"/>
      <point x="399.2" y="160.0"/>
      <point x="395.5" y="165.1"/>
      <point x="395.5" y="176.70000000000002" type="curve" smooth="yes"/>
      <point x="395.5" y="181.6"/>
      <point x="396.5" y="189.6"/>
      <point x="455.0" y="550.0" type="curve"/>
      <point x="283.4" y="550.0" type="line"/>
      <point x="220.6" y="165.4" type="line"/>
      <point x="212.60000000000002" y="159.70000000000002"/>
      <point x="205.20000000000002" y="156.6"/>
      <point x="195.8" y="156.6" type="curve" smooth="yes"/>
      <point x="185.0" y="156.6"/>
      <point x="179.3" y="164.1"/>
      <point x="181.1" y="176.9" type="curve" smooth="yes"/>
      <point x="201.8" y="284.1"/>
      <point x="218.6" y="415.8"/>
      <point x="240.29999999999998" y="550.0" type="curve"/>
      <point x="67.8" y="550.0" type="line"/>
    </contour>
  </outline>
</glyph>
<glyph name="paragraph" format="2">
  <advance width="549.4"/>
  <unicode hex="00B6"/>
  <outline>
    <contour>
      <point x="310.5" y="-210.0" type="line"/>
      <point x="442.79999999999995" y="-210.0" type="line"/>
      <point x="595.6" y="740.0" type="line"/>
      <point x="463.29999999999995" y="740.0" type="line"/>
    </contour>
    <contour>
      <point x="240.0" y="373.0" type="line"/>
      <point x="226.6" y="377.3"/>
      <point x="211.4" y="404.3"/>
      <point x="211.4" y="448.7" type="curve" smooth="yes"/>
      <point x="211.4" y="495.6"/>
      <point x="226.0" y="571.9"/>
      <point x="280.40000000000003" y="573.6999999999999" type="curve"/>
      <point x="155.2" y="-210.0" type="line"/>
      <point x="287.5" y="-210.0" type="line"/>
      <point x="440.3" y="740.0" type="line"/>
      <point x="356.59999999999997" y="740.0" type="line" smooth="yes"/>
      <point x="164.1" y="740.0"/>
      <point x="59.7" y="607.3"/>
      <point x="59.7" y="436.7" type="curve" smooth="yes"/>
      <point x="59.7" y="343.3"/>
      <point x="104.0" y="274.5"/>
      <point x="201.5" y="251.8" type="curve"/>
    </contour>
  </outline>
</glyph>
<glyph name="periodcentered" format="2">
  <advance width="209.4"/>
  <unicode hex="00B7"/>
  <outline>
    <contour>
      <point x="15.399999999999999" y="289.0" type="curve" smooth="yes"/>
      <point x="15.4" y="236.10000000000002"/>
      <point x="39.5" y="210.1"/>
      <point x="94.5" y="210.1" type="curve" smooth="yes"/>
      <point x="181.1" y="210.1"/>
      <point x="209.6" y="299.7"/>
      <point x="209.60000000000002" y="367.2" type="curve" smooth="yes"/>
      <point x="209.6" y="418.5"/>
      <point x="185.5" y="444.5"/>
      <point x="131.5" y="444.5" type="curve" smooth="yes"/>
      <point x="45.9" y="444.5"/>
      <point x="15.4" y="356.1"/>
    </contour>
  </outline>
</glyph>
<glyph name="uni00B9" format="2">
  <advance width="253.6"/>
  <unicode hex="00B9"/>
  <outline>
    <contour>
      <point x="37.4" y="370.0" type="line"/>
      <point x="252.8" y="370.0" type="line"/>
      <point x="270.1" y="463.4" type="line"/>
      <point x="221.39999999999998" y="463.4" type="line"/>
      <point x="275.3" y="767.5999999999999" type="line"/>
      <point x="217.6" y="767.5999999999999" type="line"/>
      <point x="89.3" y="733.3" type="line"/>
      <point x="91.5" y="625.9000000000001" type="line"/>
      <point x="140.5" y="637.1999999999999" type="line"/>
      <point x="109.10000000000001" y="463.4" type="line"/>
      <point x="52.900000000000006" y="463.4" type="line"/>
    </contour>
  </outline>
</glyph>
<glyph name="ordmasculine" format="2">
  <advance width="280.1"/>
  <unicode hex="00BA"/>
  <outline>
    <contour>
      <point x="18.9" y="233.9" type="line"/>
      <point x="252.5" y="233.9" type="line"/>
      <point x="266.3" y="324.8" type="line"/>
      <point x="32.7" y="324.8" type="line"/>
    </contour>
    <component base="o.superior" xOffset="8.0"/>
  </outline>
</glyph>
<glyph name="AE" format="2">
  <advance width="639.0"/>
  <unicode hex="00C6"/>
  <anchor x="280.6996" y="0.0" name="bottom"/>
  <anchor x="403.20000000000005" y="700.0" name="top"/>
  <outline>
    <contour>
      <point x="228.70000000000002" y="0.0" type="line"/>
      <point x="581.9" y="0.0" type="line"/>
      <point x="607.8" y="162.7" type="line"/>
      <point x="427.09999999999997" y="162.7" type="line"/>
      <point x="444.2" y="272.7" type="line"/>
      <point x="591.3" y="272.7" type="line"/>
      <point x="616.8" y="423.90000000000003" type="line"/>
      <point x="468.8" y="423.90000000000003" type="line"/>
      <point x="485.9" y="532.8" type="line"/>
      <point x="655.7" y="532.8" type="line"/>
      <point x="683.4" y="700.0" type="line"/>
      <point x="214.70000000000002" y="700.0" type="line"/>
      <point x="-44.0" y="0.0" type="line"/>
      <point x="137.3" y="0.0" type="line"/>
      <point x="172.2" y="101.5" type="line"/>
      <point x="244.6" y="101.5" type="line"/>
    </contour>
    <contour>
      <point x="224.60000000000002" y="263.6" type="line"/>
      <point x="318.20000000000005" y="568.0999999999999" type="line"/>
      <point x="269.8" y="263.6" type="line"/>
    </contour>
  </outline>
</glyph>
<glyph name="multiply" format="2">
  <advance width="408.5"/>
  <unicode hex="00D7"/>
  <outline>
    <contour>
      <point x="118.8" y="152.5" type="line"/>
      <point x="196.7" y="224.1" type="line"/>
      <point x="253.9" y="150.9" type="line"/>
      <point x="375.3" y="268.5" type="line"/>
      <point x="321.5" y="338.79999999999995" type="line"/>
      <point x="397.59999999999997" y="409.0" type="line"/>
      <point x="311.0" y="525.5" type="line"/>
      <point x="233.0" y="453.7" type="line"/>
      <point x="175.7" y="526.7" type="line"/>
      <point x="53.7" y="410.0" type="line"/>
      <point x="108.60000000000001" y="339.09999999999997" type="line"/>
      <point x="31.200000000000003" y="268.5" type="line"/>
    </contour>
  </outline>
</glyph>
<glyph name="Oslash" format="2">
  <advance width="482.75"/>
  <unicode hex="00D8"/>
  <anchor x="305.5" y="700.0" name="top"/>
  <outline>
    <contour>
      <point x="530.5" y="712.5" type="line"/>
      <point x="451.75" y="712.5" type="line"/>
      <point x="376.0" y="599.75" type="line"/>
      <point x="370.0" y="601.5" type="line"/>
      <point x="104.0" y="179.25" type="line"/>
      <point x="99.5" y="181.25" type="line"/>
      <point x="-23.5" y="-3.5" type="line"/>
      <point x="54.5" y="-3.5" type="line"/>
      <point x="136.25" y="117.25" type="line"/>
      <point x="142.25" y="115.5" type="line"/>
      <point x="401.25" y="525.5" type="line"/>
      <point x="405.5" y="523.5" type="line"/>
    </contour>
    <contour>
      <point x="213.0" y="-9.0" type="curve" smooth="yes"/>
      <point x="417.75" y="-9.0"/>
      <point x="486.0" y="254.25"/>
      <point x="488.75" y="482.75" type="curve" smooth="yes"/>
      <point x="490.75" y="632.75"/>
      <point x="431.25" y="709.0"/>
      <point x="293.25" y="709.0" type="curve" smooth="yes"/>
      <point x="93.75" y="709.0"/>
      <point x="20.25" y="445.75"/>
      <point x="17.5" y="217.25" type="curve" smooth="yes"/>
      <point x="15.5" y="67.25"/>
      <point x="75.0" y="-9.0"/>
    </contour>
    <contour>
      <point x="225.75" y="154.75" type="curve" smooth="yes"/>
      <point x="197.0" y="154.75"/>
      <point x="186.0" y="170.5"/>
      <point x="186.0" y="209.25" type="curve" smooth="yes"/>
      <point x="186.0" y="305.0"/>
      <point x="232.5" y="545.25"/>
      <point x="284.25" y="545.25" type="curve" smooth="yes"/>
      <point x="311.25" y="545.25"/>
      <point x="321.75" y="529.5"/>
      <point x="321.75" y="492.75" type="curve" smooth="yes"/>
      <point x="321.75" y="403.0"/>
      <point x="273.0" y="154.75"/>
    </contour>
  </outline>
</glyph>
<glyph name="Thorn" format="2">
  <advance width="473.5"/>
  <unicode hex="00DE"/>
  <outline>
    <contour>
      <point x="-17.0" y="0.0" type="line"/>
      <point x="158.75" y="0.0" type="line"/>
      <point x="171.25" y="78.75" type="line"/>
      <point x="204.0" y="74.75"/>
      <point x="209.75" y="74.5"/>
      <point x="231.5" y="74.5" type="curve" smooth="yes"/>
      <point x="382.75" y="74.5"/>
      <point x="481.25" y="224.5"/>
      <point x="481.25" y="428.5" type="curve" smooth="yes"/>
      <point x="481.25" y="557.25"/>
      <point x="428.25" y="630.75"/>
      <point x="286.25" y="630.75" type="curve" smooth="yes"/>
      <point x="279.75" y="630.75"/>
      <point x="270.5" y="630.5"/>
      <point x="260.25" y="630.5" type="curve"/>
      <point x="271.25" y="700.0" type="line"/>
      <point x="95.5" y="700.0" type="line"/>
    </contour>
    <contour>
      <point x="223.5" y="234.75" type="curve" smooth="yes"/>
      <point x="217.0" y="234.75"/>
      <point x="211.25" y="234.75"/>
      <point x="199.5" y="237.0" type="curve"/>
      <point x="233.5" y="467.5" type="line"/>
      <point x="249.25" y="469.75"/>
      <point x="255.5" y="470.75"/>
      <point x="267.25" y="470.75" type="curve" smooth="yes"/>
      <point x="295.0" y="470.75"/>
      <point x="307.75" y="452.5"/>
      <point x="307.75" y="416.0" type="curve" smooth="yes"/>
      <point x="307.75" y="312.0"/>
      <point x="275.5" y="234.75"/>
    </contour>
  </outline>
</glyph>
<glyph name="germandbls" format="2">
  <advance width="605.25"/>
  <unicode hex="00DF"/>
  <outline>
    <contour>
      <point x="7.35" y="5.800000000000001" type="line" smooth="yes"/>
      <point x="0.3999999999999999" y="-35.3"/>
      <point x="-14.65" y="-48.25"/>
      <point x="-34.3" y="-48.25" type="curve" smooth="yes"/>
      <point x="-42.7" y="-48.25"/>
      <point x="-51.45" y="-48.05"/>
      <point x="-65.95" y="-43.35" type="curve"/>
      <point x="-112.55" y="-201.2" type="line"/>
      <point x="-79.95" y="-213.9"/>
      <point x="-49.2" y="-220.0"/>
      <point x="-17.15" y="-220.0" type="curve" smooth="yes"/>
      <point x="98.2" y="-220.0"/>
      <point x="155.35" y="-149.5"/>
      <point x="179.05" y="0.0" type="curve" smooth="yes"/>
      <point x="256.35" y="497.4" type="line" smooth="yes"/>
      <point x="265.0" y="551.6"/>
      <point x="302.1" y="584.35"/>
      <point x="362.75" y="584.35" type="curve" smooth="yes"/>
      <point x="407.9" y="584.35"/>
      <point x="423.95" y="571.1"/>
      <point x="423.95" y="555.7" type="curve" smooth="yes"/>
      <point x="423.95" y="537.55"/>
      <point x="415.15" y="528.6"/>
      <point x="361.5" y="506.4" type="curve" smooth="yes"/>
      <point x="301.85" y="481.0"/>
      <point x="261.85" y="434.55"/>
      <point x="261.85" y="347.35" type="curve" smooth="yes"/>
      <point x="261.85" y="265.55"/>
      <point x="304.25" y="232.1"/>
      <point x="358.4" y="210.5" type="curve" smooth="yes"/>
      <point x="403.4" y="192.0"/>
      <point x="410.8" y="187.15"/>
      <point x="410.8" y="172.6" type="curve" smooth="yes"/>
      <point x="410.8" y="161.5"/>
      <point x="392.5" y="150.05"/>
      <point x="357.9" y="150.05" type="curve" smooth="yes"/>
      <point x="321.85" y="150.05"/>
      <point x="280.35" y="157.4"/>
      <point x="247.3" y="167.3" type="curve"/>
      <point x="208.6" y="18.85" type="line"/>
      <point x="244.4" y="2.95"/>
      <point x="292.3" y="-9.9"/>
      <point x="358.15" y="-9.9" type="curve" smooth="yes"/>
      <point x="512.9" y="-9.9"/>
      <point x="589.55" y="63.3"/>
      <point x="589.55" y="190.6" type="curve" smooth="yes"/>
      <point x="589.55" y="275.0"/>
      <point x="550.1" y="313.35"/>
      <point x="493.05" y="333.45" type="curve" smooth="yes"/>
      <point x="439.05" y="352.7"/>
      <point x="429.7" y="357.8"/>
      <point x="429.7" y="372.5" type="curve" smooth="yes"/>
      <point x="429.7" y="385.3"/>
      <point x="437.85" y="392.55"/>
      <point x="494.4" y="409.8" type="curve" smooth="yes"/>
      <point x="561.4" y="430.4"/>
      <point x="606.5" y="475.45"/>
      <point x="606.5" y="572.1" type="curve" smooth="yes"/>
      <point x="606.5" y="681.6"/>
      <point x="522.5" y="750.0"/>
      <point x="373.6" y="750.0" type="curve" smooth="yes"/>
      <point x="198.8" y="750.0"/>
      <point x="111.35" y="667.85"/>
      <point x="89.5" y="526.05" type="curve" smooth="yes"/>
      <point x="89.4" y="524.5" type="line"/>
      <point x="44.2" y="516.25" type="line"/>
      <point x="19.85" y="371.45" type="line"/>
      <point x="64.55" y="371.45" type="line"/>
    </contour>
  </outline>
</glyph>
<glyph name="ae" format="2">
  <advance width="643.5"/>
  <unicode hex="00E6"/>
  <anchor x="287.0" y="0.0" name="bottom"/>
  <anchor x="373.25" y="550.0" name="top"/>
  <outline>
    <contour>
      <point x="124.0" y="-10.0" type="curve" smooth="yes"/>
      <point x="155.25" y="-10.0"/>
      <point x="181.25" y="-1.25"/>
      <point x="214.75" y="38.0" type="curve"/>
      <point x="208.25" y="0.0" type="line"/>
      <point x="362.0" y="0.0" type="line"/>
      <point x="367.5" y="34.5" type="line"/>
      <point x="395.0" y="8.5"/>
      <point x="431.0" y="-8.25"/>
      <point x="473.75" y="-8.25" type="curve" smooth="yes"/>
      <point x="514.5" y="-8.25"/>
      <point x="558.25" y="2.0"/>
      <point x="597.25" y="27.25" type="curve"/>
      <point x="578.0" y="183.0" type="line"/>
      <point x="535.25" y="164.5"/>
      <point x="496.5" y="157.25"/>
      <point x="470.25" y="157.25" type="curve" smooth="yes"/>
      <point x="435.0" y="157.25"/>
      <point x="406.25" y="164.0"/>
      <point x="406.25" y="228.5" type="curve" smooth="yes"/>
      <point x="406.25" y="305.5"/>
      <point x="427.5" y="409.5"/>
      <point x="473.0" y="409.5" type="curve" smooth="yes"/>
      <point x="481.25" y="409.5"/>
      <point x="488.5" y="403.75"/>
      <point x="488.5" y="388.0" type="curve" smooth="yes"/>
      <point x="488.5" y="352.0"/>
      <point x="468.75" y="307.0"/>
      <point x="426.75" y="290.5" type="curve" smooth="yes"/>
      <point x="410.5" y="284.0"/>
      <point x="393.5" y="281.25"/>
      <point x="372.25" y="283.25" type="curve"/>
      <point x="348.0" y="181.5" type="line"/>
      <point x="389.0" y="178.75"/>
      <point x="429.5" y="184.5"/>
      <point x="468.75" y="196.25" type="curve" smooth="yes"/>
      <point x="578.25" y="229.0"/>
      <point x="649.25" y="321.25"/>
      <point x="649.25" y="438.5" type="curve" smooth="yes"/>
      <point x="649.25" y="512.0"/>
      <point x="611.75" y="560.0"/>
      <point x="537.25" y="560.0" type="curve" smooth="yes"/>
      <point x="501.5" y="560.0"/>
      <point x="472.5" y="547.75"/>
      <point x="445.0" y="530.0" type="curve"/>
      <point x="450.0" y="559.0" type="line"/>
      <point x="296.25" y="559.0" type="line"/>
      <point x="292.75" y="537.75" type="line"/>
      <point x="274.0" y="552.5"/>
      <point x="250.25" y="560.0"/>
      <point x="222.25" y="560.0" type="curve" smooth="yes"/>
      <point x="92.75" y="560.0"/>
      <point x="7.0" y="395.0"/>
      <point x="7.0" y="159.0" type="curve" smooth="yes"/>
      <point x="7.0" y="53.0"/>
      <point x="52.0" y="-10.0"/>
    </contour>
    <contour>
      <point x="208.0" y="134.75" type="curve" smooth="yes"/>
      <point x="196.5" y="134.75"/>
      <point x="186.25" y="142.75"/>
      <point x="186.25" y="187.25" type="curve" smooth="yes"/>
      <point x="186.25" y="291.25"/>
      <point x="219.0" y="403.5"/>
      <point x="250.5" y="403.5" type="curve" smooth="yes"/>
      <point x="257.5" y="403.5"/>
      <point x="263.5" y="402.25"/>
      <point x="268.25" y="399.75" type="curve"/>
      <point x="229.5" y="141.0" type="line"/>
      <point x="221.75" y="136.5"/>
      <point x="215.0" y="134.75"/>
    </contour>
  </outline>
</glyph>
<glyph name="eth" format="2">
  <advance width="436.75"/>
  <unicode hex="00F0"/>
  <outline>
    <contour>
      <point x="282.0" y="386.5" type="curve"/>
      <point x="310.75" y="514.5" type="line"/>
      <point x="285.5" y="527.0"/>
      <point x="250.25" y="534.25"/>
      <point x="221.25" y="534.25" type="curve" smooth="yes"/>
      <point x="70.75" y="534.25"/>
      <point x="2.75" y="355.0"/>
      <point x="2.75" y="186.5" type="curve" smooth="yes"/>
      <point x="2.75" y="51.5"/>
      <point x="75.75" y="-9.25"/>
      <point x="182.0" y="-9.25" type="curve" smooth="yes"/>
      <point x="336.0" y="-9.25"/>
      <point x="391.0" y="73.0"/>
      <point x="432.75" y="333.0" type="curve" smooth="yes"/>
      <point x="440.5" y="381.0"/>
      <point x="444.25" y="425.5"/>
      <point x="444.25" y="465.0" type="curve" smooth="yes"/>
      <point x="444.25" y="649.5"/>
      <point x="359.5" y="754.5"/>
      <point x="194.75" y="754.5" type="curve" smooth="yes"/>
      <point x="137.0" y="754.5"/>
      <point x="96.5" y="743.75"/>
      <point x="64.75" y="733.5" type="curve"/>
      <point x="70.25" y="616.0" type="line"/>
      <point x="91.0" y="620.0"/>
      <point x="113.75" y="625.75"/>
      <point x="145.0" y="625.75" type="curve" smooth="yes"/>
      <point x="238.25" y="625.75"/>
      <point x="271.75" y="591.0"/>
      <point x="271.75" y="506.5" type="curve" smooth="yes"/>
      <point x="271.75" y="473.0"/>
      <point x="267.25" y="430.0"/>
      <point x="258.5" y="375.5" type="curve" smooth="yes"/>
      <point x="223.75" y="150.75"/>
      <point x="210.25" y="124.0"/>
      <point x="190.0" y="124.0" type="curve" smooth="yes"/>
      <point x="177.5" y="124.0"/>
      <point x="173.5" y="133.5"/>
      <point x="173.5" y="154.0" type="curve" smooth="yes"/>
      <point x="173.5" y="220.0"/>
      <point x="203.25" y="396.25"/>
      <point x="247.75" y="396.25" type="curve" smooth="yes"/>
      <point x="257.75" y="396.25"/>
      <point x="269.5" y="391.75"/>
    </contour>
    <contour>
      <point x="181.0" y="551.0" type="line"/>
      <point x="311.25" y="628.0" type="line"/>
      <point x="307.5" y="631.5" type="line"/>
      <point x="505.5" y="750.75" type="line"/>
      <point x="374.25" y="751.75" type="line"/>
      <point x="265.25" y="687.0" type="line"/>
      <point x="265.75" y="681.0" type="line"/>
      <point x="49.75" y="551.75" type="line"/>
    </contour>
  </outline>
</glyph>
<glyph name="divide" format="2">
  <advance width="422.6"/>
  <unicode hex="00F7"/>
  <outline>
    <contour>
      <point x="100.2" y="99.5" type="curve" smooth="yes"/>
      <point x="100.2" y="57.199999999999996"/>
      <point x="123.2" y="35.0"/>
      <point x="173.7" y="35.0" type="curve" smooth="yes"/>
      <point x="235.20000000000002" y="35.0"/>
      <point x="273.4" y="72.9"/>
      <point x="273.4" y="148.4" type="curve" smooth="yes"/>
      <point x="273.4" y="190.70000000000002"/>
      <point x="250.5" y="211.9"/>
      <point x="201.8" y="211.9" type="curve" smooth="yes"/>
      <point x="134.3" y="211.9"/>
      <point x="100.2" y="159.5"/>
    </contour>
    <contour>
      <point x="165.9" y="509.5" type="curve" smooth="yes"/>
      <point x="165.9" y="467.3"/>
      <point x="187.8" y="446.0"/>
      <point x="238.39999999999998" y="446.0" type="curve" smooth="yes"/>
      <point x="300.0" y="446.0"/>
      <point x="338.9" y="484.1"/>
      <point x="338.9" y="558.6" type="curve" smooth="yes"/>
      <point x="338.9" y="601.8000000000001"/>
      <point x="315.2" y="622.9"/>
      <point x="266.4" y="622.9" type="curve" smooth="yes"/>
      <point x="196.0" y="622.9"/>
      <point x="165.9" y="566.0"/>
    </contour>
    <contour>
      <point x="40.199999999999996" y="247.5" type="line"/>
      <point x="374.0" y="247.5" type="line"/>
      <point x="400.0" y="412.0" type="line"/>
      <point x="66.2" y="412.0" type="line"/>
    </contour>
  </outline>
</glyph>
<glyph name="oslash" format="2">
  <advance width="435.5"/>
  <unicode hex="00F8"/>
  <anchor x="248.0" y="550.0" name="top"/>
  <outline>
    <contour>
      <point x="397.5" y="561.0" type="line"/>
      <point x="323.5" y="463.75" type="line"/>
      <point x="318.5" y="466.0" type="line"/>
      <point x="103.0" y="174.75" type="line"/>
      <point x="99.25" y="177.25" type="line"/>
      <point x="-43.75" y="-10.0" type="line"/>
      <point x="33.25" y="-10.0" type="line"/>
      <point x="107.25" y="87.5" type="line"/>
      <point x="112.25" y="85.25" type="line"/>
      <point x="337.5" y="387.25" type="line"/>
      <point x="341.25" y="384.75" type="line"/>
      <point x="475.75" y="561.0" type="line"/>
    </contour>
    <contour>
      <point x="192.75" y="-10.0" type="curve" smooth="yes"/>
      <point x="362.25" y="-10.0"/>
      <point x="423.5" y="165.25"/>
      <point x="423.5" y="373.75" type="curve" smooth="yes"/>
      <point x="423.5" y="496.25"/>
      <point x="369.5" y="561.0"/>
      <point x="241.5" y="561.0" type="curve" smooth="yes"/>
      <point x="70.0" y="561.0"/>
      <point x="8.5" y="386.0"/>
      <point x="8.5" y="177.25" type="curve" smooth="yes"/>
      <point x="8.5" y="54.75"/>
      <point x="62.5" y="-10.0"/>
    </contour>
    <contour>
      <point x="197.25" y="142.75" type="curve" smooth="yes"/>
      <point x="180.75" y="142.5"/>
      <point x="170.5" y="153.25"/>
      <point x="170.0" y="172.0" type="curve" smooth="yes"/>
      <point x="168.25" y="226.5"/>
      <point x="196.25" y="407.75"/>
      <point x="234.75" y="408.25" type="curve" smooth="yes"/>
      <point x="251.0" y="408.5"/>
      <point x="261.5" y="397.75"/>
      <point x="262.0" y="379.0" type="curve" smooth="yes"/>
      <point x="263.75" y="324.5"/>
      <point x="235.75" y="143.0"/>
    </contour>
  </outline>
</glyph>
<glyph name="thorn" format="2">
  <advance width="440.75"/>
  <unicode hex="00FE"/>
  <outline>
    <contour>
      <point x="-52.99999999999999" y="-210.0" type="line"/>
      <point x="120.24999999999999" y="-210.0" type="line"/>
      <point x="153.25" y="-2.5" type="line"/>
      <point x="166.25" y="-5.0"/>
      <point x="184.74999999999997" y="-8.25"/>
      <point x="211.75" y="-8.25" type="curve" smooth="yes"/>
      <point x="364.0" y="-8.25"/>
      <point x="434.0" y="176.0"/>
      <point x="434.0" y="373.25" type="curve" smooth="yes"/>
      <point x="434.0" y="505.0"/>
      <point x="406.49999999999994" y="560.0"/>
      <point x="332.00000000000006" y="560.0" type="curve" smooth="yes"/>
      <point x="282.25" y="560.0"/>
      <point x="254.5" y="536.75"/>
      <point x="236.25" y="518.25" type="curve"/>
      <point x="270.75" y="740.0" type="line"/>
      <point x="97.0" y="740.0" type="line"/>
    </contour>
    <contour>
      <point x="193.25" y="145.0" type="curve" smooth="yes"/>
      <point x="188.5" y="145.0"/>
      <point x="183.0" y="145.5"/>
      <point x="177.75" y="147.24999999999997" type="curve"/>
      <point x="215.25" y="384.0" type="line"/>
      <point x="220.25" y="386.25"/>
      <point x="227.75" y="388.5"/>
      <point x="235.75" y="388.5" type="curve" smooth="yes"/>
      <point x="248.5" y="388.5"/>
      <point x="255.25000000000003" y="382.0"/>
      <point x="255.25000000000003" y="349.25" type="curve" smooth="yes"/>
      <point x="255.25000000000003" y="258.0"/>
      <point x="229.5" y="145.0"/>
    </contour>
  </outline>
</glyph>
<glyph name="Dcroat" format="2">
  <advance width="489.9"/>
  <unicode hex="0110"/>
  <outline>
    <contour>
      <point x="5.6" y="267.5" type="line"/>
      <point x="255.3" y="267.5" type="line"/>
      <point x="282.9" y="432.7" type="line"/>
      <point x="32.9" y="432.7" type="line"/>
    </contour>
    <component base="D" xOffset="11.8"/>
  </outline>
</glyph>
<glyph name="dcroat" format="2">
  <advance width="453.3"/>
  <unicode hex="0111"/>
  <outline>
    <contour>
      <point x="203.5" y="611.8000000000001" type="line"/>
      <point x="503.8" y="611.8000000000001" type="line"/>
      <point x="518.9" y="708.8" type="line"/>
      <point x="219.5" y="708.8" type="line"/>
    </contour>
    <component base="d"/>
  </outline>
</glyph>
<glyph name="Hbar" format="2">
  <advance width="481.5"/>
  <unicode hex="0126"/>
  <outline>
    <contour>
      <point x="32.5" y="500.5" type="line"/>
      <point x="520.9" y="500.5" type="line"/>
      <point x="545.2" y="649.9" type="line"/>
      <point x="56.8" y="649.9" type="line"/>
    </contour>
    <component base="H" xOffset="4.6"/>
  </outline>
</glyph>
<glyph name="hbar" format="2">
  <advance width="446.6"/>
  <unicode hex="0127"/>
  <outline>
    <contour>
      <point x="52.0" y="611.8000000000001" type="line"/>
      <point x="326.20000000000005" y="611.8000000000001" type="line"/>
      <point x="341.3" y="708.8" type="line"/>
      <point x="67.10000000000001" y="708.8" type="line"/>
    </contour>
    <component base="h" xOffset="6.6"/>
  </outline>
</glyph>
<glyph name="Idotaccent" format="2">
  <advance width="230.2"/>
  <unicode hex="0130"/>
  <outline>
    <contour>
      <point x="221.9" y="940.0" type="curve" smooth="yes"/>
      <point x="137.20000000000002" y="940.0"/>
      <point x="103.10000000000001" y="870.2"/>
      <point x="103.1" y="799.5" type="curve" smooth="yes"/>
      <point x="103.10000000000001" y="746.0"/>
      <point x="131.0" y="719.1"/>
      <point x="185.79999999999998" y="719.1" type="curve" smooth="yes"/>
      <point x="268.6" y="719.1"/>
      <point x="304.5" y="789.3"/>
      <point x="304.5" y="860.6" type="curve" smooth="yes"/>
      <point x="304.5" y="914.0"/>
      <point x="275.7" y="940.0"/>
    </contour>
    <component base="I"/>
  </outline>
</glyph>
<glyph name="dotlessi" format="2">
  <advance width="221.1"/>
  <unicode hex="0131"/>
  <anchor x="67.0444" y="0.0" name="bottom"/>
  <anchor x="154.2" y="0.0" name="ogonek"/>
  <anchor x="154.05560000000003" y="550.0" name="top"/>
  <outline>
    <contour>
      <point x="154.2" y="0.0" type="line"/>
      <point x="241.1" y="550.0" type="line"/>
      <point x="67.0" y="550.0" type="line"/>
      <point x="-20.099999999999998" y="0.1" type="line"/>
    </contour>
  </outline>
</glyph>
<glyph name="kgreenlandic" format="2">
  <advance width="425.0"/>
  <unicode hex="0138"/>
  <anchor x="186.75" y="0.0" name="bottom"/>
  <anchor x="263.139" y="550.0" name="top"/>
  <outline>
    <contour>
      <point x="-20.0" y="0.0" type="line"/>
      <point x="154.0" y="0.0" type="line"/>
      <point x="241.25" y="550.0" type="line"/>
      <point x="67.0" y="550.0" type="line"/>
    </contour>
    <contour>
      <point x="322.25" y="-10.0" type="curve" smooth="yes"/>
      <point x="338.25" y="-10.0"/>
      <point x="354.0" y="-8.0"/>
      <point x="371.75" y="-1.5" type="curve"/>
      <point x="400.5" y="191.75" type="line"/>
      <point x="393.25" y="191.75"/>
      <point x="387.0" y="192.5"/>
      <point x="381.25" y="193.5" type="curve" smooth="yes"/>
      <point x="355.0" y="197.75"/>
      <point x="333.0" y="210.25"/>
      <point x="284.75" y="283.25" type="curve" smooth="yes"/>
      <point x="205.25" y="404.0" type="line"/>
      <point x="163.75" y="188.5" type="line"/>
      <point x="211.75" y="86.0" type="line" smooth="yes"/>
      <point x="240.0" y="26.0"/>
      <point x="274.75" y="-10.0"/>
    </contour>
    <contour>
      <point x="284.5" y="232.25" type="line"/>
      <point x="367.25" y="319.25"/>
      <point x="439.75" y="443.5"/>
      <point x="464.75" y="545.5" type="curve"/>
      <point x="290.75" y="560.0" type="line"/>
      <point x="271.75" y="460.5"/>
      <point x="242.5" y="405.5"/>
      <point x="198.75" y="347.25" type="curve"/>
    </contour>
  </outline>
</glyph>
<glyph name="Ldot" format="2">
  <advance width="377.0"/>
  <unicode hex="013F"/>
  <outline>
    <contour>
      <point x="253.99820000000003" y="376.1658" type="curve" smooth="yes"/>
      <point x="253.99819999999997" y="338.8718"/>
      <point x="271.49580000000003" y="320.3751"/>
      <point x="311.1895" y="320.3751" type="curve" smooth="yes"/>
      <point x="372.2799" y="320.3751"/>
      <point x="393.57719999999995" y="381.4631"/>
      <point x="393.5772" y="429.45559999999995" type="curve" smooth="yes"/>
      <point x="393.57719999999995" y="465.74989999999997"/>
      <point x="376.0796" y="484.2466"/>
      <point x="337.0853" y="484.2466" type="curve" smooth="yes"/>
      <point x="276.6952" y="484.2466"/>
      <point x="253.99819999999997" y="423.75829999999996"/>
    </contour>
    <component base="L"/>
  </outline>
</glyph>
<glyph name="ldot" format="2">
  <advance width="341.2"/>
  <unicode hex="0140"/>
  <outline>
    <contour>
      <point x="236.229" y="355.9205" type="curve" smooth="yes"/>
      <point x="236.229" y="321.0162"/>
      <point x="251.59439999999998" y="303.8512"/>
      <point x="286.71810000000005" y="303.8512" type="curve" smooth="yes"/>
      <point x="342.35630000000003" y="303.8512"/>
      <point x="360.3835" y="362.8511"/>
      <point x="360.3835" y="407.4124" type="curve" smooth="yes"/>
      <point x="360.3835" y="441.2687"/>
      <point x="345.0181" y="458.43370000000004"/>
      <point x="310.5385" y="458.43370000000004" type="curve" smooth="yes"/>
      <point x="255.54340000000002" y="458.43370000000004"/>
      <point x="236.229" y="400.2111"/>
    </contour>
    <component base="l"/>
  </outline>
</glyph>
<glyph name="Lslash" format="2">
  <advance width="398.9"/>
  <unicode hex="0141"/>
  <outline>
    <contour>
      <point x="4.9" y="0.0" type="line"/>
      <point x="342.29999999999995" y="0.0" type="line"/>
      <point x="368.79999999999995" y="164.7" type="line"/>
      <point x="206.1" y="164.7" type="line"/>
      <point x="231.70000000000002" y="327.7" type="line"/>
      <point x="335.0" y="375.2" type="line"/>
      <point x="364.8" y="551.0" type="line"/>
      <point x="259.7" y="502.59999999999997" type="line"/>
      <point x="292.09999999999997" y="700.0" type="line"/>
      <point x="117.2" y="700.0" type="line"/>
      <point x="70.80000000000001" y="414.9" type="line"/>
      <point x="23.5" y="392.2" type="line"/>
      <point x="-3.4000000000000004" y="216.9" type="line"/>
      <point x="42.8" y="239.5" type="line"/>
    </contour>
  </outline>
</glyph>
<glyph name="lslash" format="2">
  <advance width="269.6"/>
  <unicode hex="0142"/>
  <outline>
    <contour>
      <point x="-5.0" y="219.5" type="line"/>
      <point x="280.4" y="394.6" type="line"/>
      <point x="305.0" y="548.2" type="line"/>
      <point x="18.599999999999998" y="373.1" type="line"/>
    </contour>
    <component base="l" xOffset="18.0"/>
  </outline>
</glyph>
<glyph name="Eng" format="2">
  <advance width="481.25"/>
  <unicode hex="014A"/>
  <outline>
    <contour>
      <point x="-17.0" y="0.0" type="line"/>
      <point x="139.5" y="0.0" type="line"/>
      <point x="188.75" y="298.25" type="line"/>
      <point x="236.5" y="-7.25" type="line"/>
      <point x="233.0" y="-28.25"/>
      <point x="223.75" y="-34.5"/>
      <point x="212.5" y="-34.5" type="curve" smooth="yes"/>
      <point x="204.75" y="-34.5"/>
      <point x="198.75" y="-34.0"/>
      <point x="194.0" y="-32.5" type="curve"/>
      <point x="164.75" y="-215.25" type="line"/>
      <point x="179.0" y="-219.0"/>
      <point x="198.75" y="-219.0"/>
      <point x="215.25" y="-219.0" type="curve" smooth="yes"/>
      <point x="313.0" y="-213.75"/>
      <point x="386.0" y="-154.5"/>
      <point x="407.75" y="-15.25" type="curve" smooth="yes"/>
      <point x="521.25" y="700.0" type="line"/>
      <point x="364.25" y="700.0" type="line"/>
      <point x="309.0" y="369.75" type="line"/>
      <point x="266.75" y="700.0" type="line"/>
      <point x="94.5" y="700.0" type="line"/>
    </contour>
  </outline>
</glyph>
<glyph name="eng" format="2">
  <advance width="435.09999999999997"/>
  <unicode hex="014B"/>
  <outline>
    <contour>
      <point x="367.59999999999997" y="24.599999999999998" type="curve" smooth="yes"/>
      <point x="369.0" y="34.8"/>
      <point x="440.4" y="437.2"/>
      <point x="440.4" y="463.3" type="curve" smooth="yes"/>
      <point x="440.4" y="524.6"/>
      <point x="406.8" y="560.0"/>
      <point x="344.6" y="560.0" type="curve" smooth="yes"/>
      <point x="305.5" y="560.0"/>
      <point x="266.29999999999995" y="549.5"/>
      <point x="217.1" y="511.2" type="curve"/>
      <point x="222.6" y="550.0" type="line"/>
      <point x="66.9" y="550.0" type="line"/>
      <point x="-20.1" y="0.0" type="line"/>
      <point x="153.5" y="0.0" type="line"/>
      <point x="215.8" y="383.0" type="line"/>
      <point x="225.1" y="388.8"/>
      <point x="232.20000000000002" y="391.5"/>
      <point x="240.4" y="391.5" type="curve" smooth="yes"/>
      <point x="250.50000000000003" y="391.5"/>
      <point x="255.9" y="386.3"/>
      <point x="255.1" y="376.3" type="curve" smooth="yes"/>
      <point x="253.9" y="365.5"/>
      <point x="250.9" y="347.5"/>
      <point x="197.5" y="19.9" type="curve" smooth="yes"/>
      <point x="193.60000000000002" y="-4.4"/>
      <point x="184.89999999999998" y="-23.400000000000002"/>
      <point x="171.60000000000002" y="-23.400000000000002" type="curve" smooth="yes"/>
      <point x="170.20000000000002" y="-23.400000000000002"/>
      <point x="166.10000000000002" y="-23.4"/>
      <point x="162.89999999999998" y="-21.6" type="curve"/>
      <point x="122.6" y="-213.2" type="line"/>
      <point x="138.89999999999998" y="-217.0"/>
      <point x="160.2" y="-220.0"/>
      <point x="187.39999999999998" y="-220.0" type="curve" smooth="yes"/>
      <point x="262.5" y="-220.0"/>
      <point x="342.0" y="-171.9"/>
    </contour>
  </outline>
</glyph>
<glyph name="OE" format="2">
  <advance width="640.25"/>
  <unicode hex="0152"/>
  <outline>
    <contour>
      <point x="583.0" y="0.0" type="line"/>
      <point x="609.0" y="162.75" type="line"/>
      <point x="428.25" y="162.75" type="line"/>
      <point x="445.5" y="272.75" type="line"/>
      <point x="592.75" y="272.75" type="line"/>
      <point x="617.7500000000001" y="424.0" type="line"/>
      <point x="470.49999999999994" y="424.0" type="line"/>
      <point x="487.5" y="532.75" type="line"/>
      <point x="657.0" y="532.75" type="line"/>
      <point x="684.4999999999999" y="700.0" type="line"/>
      <point x="513.0" y="700.0" type="line"/>
      <point x="458.5" y="705.5"/>
      <point x="382.74999999999994" y="710.0"/>
      <point x="330.5" y="710.0" type="curve" smooth="yes"/>
      <point x="80.25" y="710.0"/>
      <point x="14.0" y="367.75"/>
      <point x="14.0" y="203.0" type="curve" smooth="yes"/>
      <point x="14.0" y="67.5"/>
      <point x="70.0" y="-10.0"/>
      <point x="223.74999999999997" y="-10.0" type="curve" smooth="yes"/>
      <point x="267.0" y="-10.0"/>
      <point x="318.25" y="-8.0"/>
      <point x="389.0" y="0.0" type="curve"/>
    </contour>
    <contour>
      <point x="252.5" y="155.5" type="line"/>
      <point x="244.50000000000003" y="153.5"/>
      <point x="233.75" y="152.5"/>
      <point x="221.5" y="152.5" type="curve" smooth="yes"/>
      <point x="201.0" y="152.5"/>
      <point x="188.25" y="180.0"/>
      <point x="188.25" y="213.75" type="curve" smooth="yes"/>
      <point x="188.25" y="313.0"/>
      <point x="236.5" y="541.2499999999999"/>
      <point x="288.5" y="541.2499999999999" type="curve" smooth="yes"/>
      <point x="299.75" y="541.2499999999999"/>
      <point x="307.75000000000006" y="540.0"/>
      <point x="314.5" y="539.7500000000001" type="curve"/>
    </contour>
  </outline>
</glyph>
<glyph name="oe" format="2">
  <advance width="651.25"/>
  <unicode hex="0153"/>
  <outline>
    <contour>
      <point x="192.75" y="-10.0" type="curve" smooth="yes"/>
      <point x="243.75" y="-10.0"/>
      <point x="283.25" y="5.75"/>
      <point x="316.75" y="37.25" type="curve"/>
      <point x="347.75" y="5.0"/>
      <point x="390.5" y="-10.0"/>
      <point x="443.5" y="-10.0" type="curve" smooth="yes"/>
      <point x="495.5" y="-10.0"/>
      <point x="555.0" y="2.0"/>
      <point x="605.0" y="27.25" type="curve"/>
      <point x="578.25" y="182.25" type="line"/>
      <point x="535.5" y="163.75"/>
      <point x="496.75" y="156.5"/>
      <point x="470.5" y="156.5" type="curve" smooth="yes"/>
      <point x="435.25" y="156.5"/>
      <point x="413.75" y="167.5"/>
      <point x="413.75" y="232.0" type="curve" smooth="yes"/>
      <point x="413.75" y="342.25"/>
      <point x="446.75" y="408.0"/>
      <point x="478.0" y="408.0" type="curve" smooth="yes"/>
      <point x="486.0" y="408.0"/>
      <point x="495.25" y="402.75"/>
      <point x="495.25" y="385.25" type="curve" smooth="yes"/>
      <point x="495.25" y="352.0"/>
      <point x="473.5" y="305.0"/>
      <point x="435.5" y="289.5" type="curve" smooth="yes"/>
      <point x="420.0" y="283.0"/>
      <point x="402.0" y="279.25"/>
      <point x="381.0" y="281.25" type="curve"/>
      <point x="355.75" y="179.5" type="line"/>
      <point x="396.75" y="177.0"/>
      <point x="437.0" y="182.75"/>
      <point x="476.5" y="194.5" type="curve" smooth="yes"/>
      <point x="586.0" y="226.5"/>
      <point x="657.0" y="311.5"/>
      <point x="657.0" y="419.5" type="curve" smooth="yes"/>
      <point x="657.0" y="502.0"/>
      <point x="606.25" y="560.0"/>
      <point x="503.5" y="560.0" type="curve" smooth="yes"/>
      <point x="452.25" y="560.0"/>
      <point x="408.25" y="545.25"/>
      <point x="372.75" y="514.0" type="curve"/>
      <point x="343.5" y="546.5"/>
      <point x="301.25" y="561.0"/>
      <point x="243.25" y="561.0" type="curve" smooth="yes"/>
      <point x="71.75" y="561.0"/>
      <point x="10.25" y="386.0"/>
      <point x="10.25" y="177.25" type="curve" smooth="yes"/>
      <point x="10.25" y="54.75"/>
      <point x="65.0" y="-10.0"/>
    </contour>
    <contour>
      <point x="198.25" y="148.25" type="curve" smooth="yes"/>
      <point x="188.0" y="148.0"/>
      <point x="180.0" y="152.75"/>
      <point x="179.5" y="167.0" type="curve" smooth="yes"/>
      <point x="178.5" y="217.75"/>
      <point x="203.5" y="402.25"/>
      <point x="237.25" y="402.75" type="curve" smooth="yes"/>
      <point x="247.25" y="403.0"/>
      <point x="254.75" y="398.25"/>
      <point x="255.25" y="385.5" type="curve" smooth="yes"/>
      <point x="256.25" y="324.25"/>
      <point x="231.25" y="148.75"/>
    </contour>
  </outline>
</glyph>
<glyph name="uni0162" format="2">
  <advance width="422.40000000000003"/>
  <unicode hex="0162"/>
  <anchor x="167.64010000000002" y="0.0" name="_bottom"/>
  <anchor x="103.5" y="-220.0" name="bottom"/>
  <outline>
    <contour>
      <point x="37.2" y="-208.9" type="line"/>
      <point x="57.400000000000006" y="-216.0"/>
      <point x="76.9" y="-220.0"/>
      <point x="103.5" y="-220.0" type="curve" smooth="yes"/>
      <point x="186.60000000000002" y="-220.0"/>
      <point x="246.0" y="-160.79999999999998"/>
      <point x="246.0" y="-67.7" type="curve" smooth="yes"/>
      <point x="246.0" y="-39.6"/>
      <point x="242.9" y="-13.3"/>
      <point x="234.2" y="8.2" type="curve"/>
      <point x="125.5" y="7.3" type="line"/>
      <point x="131.70000000000002" y="-8.899999999999999"/>
      <point x="134.8" y="-19.7"/>
      <point x="134.8" y="-42.199999999999996" type="curve" smooth="yes"/>
      <point x="134.8" y="-79.0"/>
      <point x="112.4" y="-92.2"/>
      <point x="84.5" y="-92.2" type="curve" smooth="yes"/>
      <point x="74.30000000000001" y="-92.2"/>
      <point x="67.5" y="-91.2"/>
      <point x="58.2" y="-88.39999999999999" type="curve"/>
    </contour>
    <component base="T"/>
  </outline>
</glyph>
<glyph name="Tbar" format="2">
  <advance width="424.4"/>
  <unicode hex="0166"/>
  <outline>
    <contour>
      <point x="456.29999999999995" y="542.2" type="line"/>
      <point x="482.7" y="700.0" type="line"/>
      <point x="77.3" y="700.0" type="line"/>
      <point x="50.8" y="542.2" type="line"/>
      <point x="167.1" y="542.2" type="line"/>
      <point x="144.4" y="403.0" type="line"/>
      <point x="79.39999999999999" y="403.0" type="line"/>
      <point x="50.300000000000004" y="236.8" type="line"/>
      <point x="118.10000000000001" y="236.8" type="line"/>
      <point x="80.2" y="0.0" type="line"/>
      <point x="254.2" y="0.0" type="line"/>
      <point x="292.09999999999997" y="236.8" type="line"/>
      <point x="358.9" y="236.8" type="line"/>
      <point x="388.0" y="403.0" type="line"/>
      <point x="318.4" y="403.0" type="line"/>
      <point x="341.0" y="542.2" type="line"/>
    </contour>
  </outline>
</glyph>
<glyph name="tbar" format="2">
  <advance width="286.1"/>
  <unicode hex="0167"/>
  <outline>
    <contour>
      <point x="-3.8" y="240.3" type="line"/>
      <point x="265.40000000000003" y="240.3" type="line"/>
      <point x="287.20000000000005" y="364.79999999999995" type="line"/>
      <point x="17.0" y="364.79999999999995" type="line"/>
    </contour>
    <contour>
      <point x="254.2" y="163.5" type="line"/>
      <point x="241.3" y="160.7"/>
      <point x="233.7" y="159.1"/>
      <point x="226.4" y="159.1" type="curve" smooth="yes"/>
      <point x="206.10000000000002" y="159.1"/>
      <point x="200.0" y="171.79999999999998"/>
      <point x="200.0" y="188.7" type="curve" smooth="yes"/>
      <point x="200.0" y="195.5"/>
      <point x="200.9" y="203.2"/>
      <point x="201.9" y="211.89999999999998" type="curve" smooth="yes"/>
      <point x="233.4" y="401.09999999999997" type="line"/>
      <point x="294.40000000000003" y="401.09999999999997" type="line"/>
      <point x="320.20000000000005" y="550.0" type="line"/>
      <point x="258.9" y="550.0" type="line"/>
      <point x="275.20000000000005" y="655.1" type="line"/>
      <point x="124.10000000000001" y="655.1" type="line"/>
      <point x="86.1" y="550.0" type="line"/>
      <point x="44.7" y="542.6" type="line"/>
      <point x="20.099999999999998" y="402.0" type="line"/>
      <point x="60.0" y="402.0" type="line"/>
      <point x="25.900000000000002" y="192.1" type="line" smooth="yes"/>
      <point x="20.900000000000002" y="161.2"/>
      <point x="16.2" y="119.0"/>
      <point x="16.2" y="95.89999999999999" type="curve" smooth="yes"/>
      <point x="16.2" y="8.600000000000001"/>
      <point x="73.8" y="-10.0"/>
      <point x="122.4" y="-10.0" type="curve" smooth="yes"/>
      <point x="166.1" y="-10.0"/>
      <point x="203.39999999999998" y="-1.5"/>
      <point x="235.5" y="15.7" type="curve"/>
    </contour>
  </outline>
</glyph>
<glyph name="uogonek" format="2">
  <advance width="438.6"/>
  <unicode hex="0173"/>
  <outline>
    <contour>
      <point x="319.2" y="-203.9" type="curve" smooth="yes"/>
      <point x="342.09999999999997" y="-203.9"/>
      <point x="363.6" y="-198.1"/>
      <point x="384.79999999999995" y="-190.1" type="curve"/>
      <point x="399.3" y="-54.9" type="line"/>
      <point x="398.5" y="-55.0"/>
      <point x="391.5" y="-56.9"/>
      <point x="384.1" y="-56.9" type="curve" smooth="yes"/>
      <point x="372.40000000000003" y="-56.9"/>
      <point x="367.0" y="-49.7"/>
      <point x="367.0" y="-39.1" type="curve" smooth="yes"/>
      <point x="367.0" y="-17.5"/>
      <point x="381.7" y="5.9"/>
      <point x="396.0" y="17.2" type="curve"/>
      <point x="415.6" y="161.3" type="line"/>
      <point x="411.6" y="160.0"/>
      <point x="407.40000000000003" y="160.0"/>
      <point x="405.3" y="160.0" type="curve" smooth="yes"/>
      <point x="398.0" y="160.0"/>
      <point x="394.3" y="165.1"/>
      <point x="394.3" y="176.70000000000002" type="curve" smooth="yes"/>
      <point x="394.3" y="181.6"/>
      <point x="395.3" y="189.6"/>
      <point x="453.8" y="550.0" type="curve"/>
      <point x="282.2" y="550.0" type="line"/>
      <point x="219.4" y="165.4" type="line"/>
      <point x="211.4" y="159.70000000000002"/>
      <point x="204.0" y="156.6"/>
      <point x="194.6" y="156.6" type="curve" smooth="yes"/>
      <point x="183.8" y="156.6"/>
      <point x="178.1" y="164.1"/>
      <point x="179.9" y="176.9" type="curve" smooth="yes"/>
      <point x="196.1" y="284.09999999999997"/>
      <point x="217.4" y="415.8"/>
      <point x="239.1" y="550.0" type="curve"/>
      <point x="66.60000000000001" y="550.0" type="line"/>
      <point x="20.1" y="263.40000000000003"/>
      <point x="-3.4000000000000004" y="150.7"/>
      <point x="-3.4000000000000004" y="90.89999999999999" type="curve" smooth="yes"/>
      <point x="-3.4000000000000004" y="32.9"/>
      <point x="31.300000000000004" y="-10.0"/>
      <point x="101.2" y="-10.0" type="curve" smooth="yes"/>
      <point x="144.6" y="-10.0"/>
      <point x="177.5" y="8.1"/>
      <point x="217.6" y="48.199999999999996" type="curve"/>
      <point x="229.0" y="17.0"/>
      <point x="263.3" y="-9.8"/>
      <point x="307.79999999999995" y="-9.8" type="curve" smooth="yes"/>
      <point x="329.3" y="-9.8"/>
      <point x="344.4" y="18.700000000000003"/>
      <point x="322.0" y="41.2" type="curve"/>
      <point x="261.5" y="2.6"/>
      <point x="214.5" y="-49.0"/>
      <point x="214.5" y="-110.3" type="curve" smooth="yes"/>
      <point x="214.5" y="-171.6"/>
      <point x="255.9" y="-203.9"/>
    </contour>
  </outline>
</glyph>
<glyph name="longs" format="2">
  <advance width="270.5"/>
  <unicode hex="017F"/>
  <outline>
    <contour>
      <point x="-16.799999999999997" y="-220.0" type="curve" smooth="yes"/>
      <point x="98.60000000000001" y="-220.0"/>
      <point x="156.5" y="-149.4"/>
      <point x="180.3" y="0.0" type="curve" smooth="yes"/>
      <point x="263.1" y="521.5" type="line" smooth="yes"/>
      <point x="270.5" y="570.6999999999999"/>
      <point x="283.3" y="579.0"/>
      <point x="307.3" y="579.0" type="curve" smooth="yes"/>
      <point x="320.5" y="579.0"/>
      <point x="337.4" y="575.4"/>
      <point x="351.90000000000003" y="570.0" type="curve"/>
      <point x="401.3" y="720.5" type="line"/>
      <point x="369.29999999999995" y="737.0"/>
      <point x="333.8" y="750.0"/>
      <point x="281.3" y="750.0" type="curve" smooth="yes"/>
      <point x="183.2" y="750.0"/>
      <point x="110.4" y="673.6"/>
      <point x="89.4" y="524.5" type="curve"/>
      <point x="44.5" y="516.2" type="line"/>
      <point x="20.3" y="371.6" type="line"/>
      <point x="64.9" y="371.6" type="line"/>
      <point x="11.2" y="28.3" type="line" smooth="yes"/>
      <point x="4.3999999999999995" y="-12.9"/>
      <point x="-10.8" y="-25.8"/>
      <point x="-30.5" y="-25.8" type="curve" smooth="yes"/>
      <point x="-38.0" y="-25.8"/>
      <point x="-45.7" y="-25.599999999999998"/>
      <point x="-59.3" y="-20.8" type="curve"/>
      <point x="-112.3" y="-201.1" type="line"/>
      <point x="-79.7" y="-213.8"/>
      <point x="-48.800000000000004" y="-220.0"/>
    </contour>
  </outline>
</glyph>
<glyph name="uni018F" format="2">
  <advance width="472.25"/>
  <unicode hex="018F"/>
  <outline>
    <contour>
      <point x="174.0" y="-10.0" type="curve" smooth="yes"/>
      <point x="363.5" y="-10.0"/>
      <point x="471.0" y="147.5"/>
      <point x="471.0" y="453.25" type="curve" smooth="yes"/>
      <point x="471.0" y="615.0"/>
      <point x="400.5" y="710.0"/>
      <point x="266.25" y="710.0" type="curve" smooth="yes"/>
      <point x="183.5" y="710.0"/>
      <point x="117.75" y="694.0"/>
      <point x="50.5" y="657.75" type="curve"/>
      <point x="85.5" y="495.75" type="line"/>
      <point x="129.5" y="522.5"/>
      <point x="178.0" y="534.0"/>
      <point x="223.0" y="534.0" type="curve" smooth="yes"/>
      <point x="276.0" y="534.0"/>
      <point x="310.0" y="513.0"/>
      <point x="310.0" y="408.5" type="curve" smooth="yes"/>
      <point x="310.0" y="312.75"/>
      <point x="262.25" y="164.0"/>
      <point x="205.5" y="164.0" type="curve" smooth="yes"/>
      <point x="173.0" y="164.0"/>
      <point x="158.75" y="186.0"/>
      <point x="158.75" y="217.5" type="curve" smooth="yes"/>
      <point x="158.75" y="280.25"/>
      <point x="209.25" y="344.5"/>
      <point x="261.25" y="344.5" type="curve" smooth="yes"/>
      <point x="279.75" y="344.5"/>
      <point x="298.75" y="343.25"/>
      <point x="315.25" y="341.0" type="curve"/>
      <point x="322.5" y="461.25" type="line"/>
      <point x="304.75" y="463.0"/>
      <point x="284.5" y="464.5"/>
      <point x="267.0" y="464.5" type="curve" smooth="yes"/>
      <point x="99.25" y="464.5"/>
      <point x="0.75" y="368.75"/>
      <point x="0.75" y="181.25" type="curve" smooth="yes"/>
      <point x="0.75" y="70.25"/>
      <point x="63.25" y="-10.0"/>
    </contour>
  </outline>
</glyph>
<glyph name="florin" format="2">
  <advance width="483.0"/>
  <unicode hex="0192"/>
  <outline>
    <contour>
      <point x="311.1" y="257.0" type="line"/>
      <point x="375.9" y="257.0" type="line"/>
      <point x="400.29999999999995" y="409.9" type="line"/>
      <point x="335.6" y="409.9" type="line"/>
      <point x="345.7" y="473.8" type="line" smooth="yes"/>
      <point x="352.09999999999997" y="510.70000000000005"/>
      <point x="362.5" y="524.6"/>
      <point x="387.3" y="524.6" type="curve" smooth="yes"/>
      <point x="403.7" y="524.6"/>
      <point x="415.70000000000005" y="521.6"/>
      <point x="434.4" y="514.8" type="curve"/>
      <point x="491.0" y="679.1" type="line"/>
      <point x="457.20000000000005" y="697.4"/>
      <point x="417.4" y="710.0"/>
      <point x="364.59999999999997" y="710.0" type="curve" smooth="yes"/>
      <point x="270.5" y="710.0"/>
      <point x="196.0" y="636.6"/>
      <point x="173.2" y="499.59999999999997" type="curve" smooth="yes"/>
      <point x="158.89999999999998" y="409.9" type="line"/>
      <point x="112.10000000000001" y="401.59999999999997" type="line"/>
      <point x="88.0" y="257.0" type="line"/>
      <point x="134.39999999999998" y="257.0" type="line"/>
      <point x="59.800000000000004" y="-210.0" type="line"/>
      <point x="236.6" y="-210.0" type="line"/>
    </contour>
  </outline>
</glyph>
<glyph name="uni0237" format="2">
  <advance width="225.0"/>
  <unicode hex="0237"/>
  <anchor x="-18.599999999999998" y="-211.0" name="bottom"/>
  <anchor x="157.2" y="550.0" name="top"/>
  <outline>
    <contour>
      <point x="246.1" y="550.0" type="line"/>
      <point x="71.0" y="550.0" type="line"/>
      <point x="-11.599999999999998" y="32.5" type="line" smooth="yes"/>
      <point x="-18.5" y="-9.399999999999999"/>
      <point x="-32.2" y="-27.6"/>
      <point x="-52.9" y="-27.6" type="curve" smooth="yes"/>
      <point x="-60.9" y="-27.6"/>
      <point x="-68.6" y="-27.5"/>
      <point x="-81.1" y="-22.799999999999997" type="curve"/>
      <point x="-130.29999999999998" y="-204.5" type="line"/>
      <point x="-97.60000000000001" y="-216.0"/>
      <point x="-60.099999999999994" y="-220.0"/>
      <point x="-36.6" y="-220.0" type="curve" smooth="yes"/>
      <point x="84.80000000000001" y="-220.0"/>
      <point x="133.9" y="-148.10000000000002"/>
      <point x="159.4" y="12.3" type="curve" smooth="yes"/>
    </contour>
  </outline>
</glyph>
<glyph name="uni0259" format="2">
  <advance width="421.0"/>
  <unicode hex="0259"/>
  <outline>
    <contour>
      <point x="287.0" y="266.0" type="curve"/>
      <point x="317.5" y="371.25" type="line"/>
      <point x="269.5" y="375.5"/>
      <point x="224.0" y="370.0"/>
      <point x="185.5" y="359.25" type="curve" smooth="yes"/>
      <point x="70.75" y="328.5"/>
      <point x="-2.75" y="242.25"/>
      <point x="-2.75" y="132.0" type="curve" smooth="yes"/>
      <point x="-2.75" y="48.75"/>
      <point x="45.75" y="-10.0"/>
      <point x="146.25" y="-10.0" type="curve" smooth="yes"/>
      <point x="332.25" y="-10.0"/>
      <point x="407.5" y="167.25"/>
      <point x="407.5" y="344.5" type="curve" smooth="yes"/>
      <point x="407.5" y="478.5"/>
      <point x="349.0" y="560.0"/>
      <point x="221.75" y="560.0" type="curve" smooth="yes"/>
      <point x="158.75" y="560.0"/>
      <point x="98.25" y="545.25"/>
      <point x="45.75" y="517.75" type="curve"/>
      <point x="73.75" y="363.5" type="line"/>
      <point x="118.25" y="385.0"/>
      <point x="159.5" y="393.0"/>
      <point x="193.0" y="393.0" type="curve" smooth="yes"/>
      <point x="232.0" y="393.0"/>
      <point x="251.25" y="377.5"/>
      <point x="251.25" y="313.5" type="curve" smooth="yes"/>
      <point x="251.25" y="199.75"/>
      <point x="218.0" y="139.25"/>
      <point x="174.25" y="139.25" type="curve" smooth="yes"/>
      <point x="157.5" y="139.25"/>
      <point x="146.5" y="149.25"/>
      <point x="146.5" y="168.0" type="curve" smooth="yes"/>
      <point x="146.5" y="204.5"/>
      <point x="170.5" y="249.0"/>
      <point x="219.0" y="263.25" type="curve" smooth="yes"/>
      <point x="236.0" y="268.25"/>
      <point x="259.75" y="270.25"/>
    </contour>
  </outline>
</glyph>
<glyph name="gravecomb" format="2">
  <unicode hex="0300"/>
  <anchor x="-185.5" y="550.0" name="_top"/>
  <anchor x="-176.0" y="789.1" name="top"/>
  <outline>
    <contour>
      <point x="-226.79999999999998" y="595.1" type="line"/>
      <point x="-95.10000000000001" y="595.1" type="line"/>
      <point x="-117.10000000000001" y="789.1" type="line"/>
      <point x="-286.9" y="789.1" type="line"/>
    </contour>
  </outline>
</glyph>
<glyph name="acutecomb" format="2">
  <unicode hex="0301"/>
  <anchor x="-185.5" y="550.0" name="_top"/>
  <anchor x="-118.1" y="789.1" name="top"/>
  <outline>
    <contour>
      <point x="-259.1" y="595.1" type="line"/>
      <point x="-125.0" y="595.1" type="line"/>
      <point x="-9.0" y="789.1" type="line"/>
      <point x="-186.0" y="789.1" type="line"/>
    </contour>
  </outline>
</glyph>
<glyph name="uni0302" format="2">
  <unicode hex="0302"/>
  <anchor x="-185.5" y="550.0" name="_top"/>
  <anchor x="-148.5" y="781.9" name="top"/>
  <anchor x="41.3" y="652.0" name="top_viet"/>
  <outline>
    <contour>
      <point x="-334.79999999999995" y="595.1" type="line"/>
      <point x="-193.6" y="595.1" type="line"/>
      <point x="-161.3" y="703.8" type="line"/>
      <point x="-163.29999999999998" y="595.1" type="line"/>
      <point x="-22.1" y="595.1" type="line"/>
      <point x="-50.60000000000001" y="789.1" type="line"/>
      <point x="-241.39999999999998" y="789.1" type="line"/>
    </contour>
  </outline>
</glyph>
<glyph name="tildecomb" format="2">
  <unicode hex="0303"/>
  <anchor x="-185.5" y="550.0" name="_top"/>
  <anchor x="-150.1" y="771.9" name="top"/>
  <outline>
    <contour>
      <point x="-333.8" y="595.0999999999999" type="curve"/>
      <point x="-240.2" y="595.0999999999999" type="line"/>
      <point x="-240.2" y="595.1"/>
      <point x="-239.20000000000002" y="600.1"/>
      <point x="-239.2" y="600.1" type="curve" smooth="yes"/>
      <point x="-237.1" y="614.0"/>
      <point x="-227.79999999999998" y="631.8000000000001"/>
      <point x="-214.29999999999998" y="631.8000000000001" type="curve" smooth="yes"/>
      <point x="-185.1" y="631.8000000000001"/>
      <point x="-162.70000000000002" y="601.4"/>
      <point x="-119.30000000000001" y="601.4" type="curve" smooth="yes"/>
      <point x="-55.10000000000001" y="601.4"/>
      <point x="-15.599999999999998" y="637.9"/>
      <point x="0.3000000000000007" y="731.9" type="curve" smooth="yes"/>
      <point x="2.299999999999999" y="746.9000000000001"/>
      <point x="4.300000000000001" y="763.9"/>
      <point x="6.1000000000000005" y="781.9" type="curve"/>
      <point x="-87.6" y="781.9" type="line"/>
      <point x="-87.6" y="781.9000000000001"/>
      <point x="-88.6" y="776.9"/>
      <point x="-88.60000000000001" y="776.9" type="curve" smooth="yes"/>
      <point x="-90.7" y="763.0"/>
      <point x="-99.89999999999999" y="745.1999999999999"/>
      <point x="-113.4" y="745.1999999999999" type="curve" smooth="yes"/>
      <point x="-142.39999999999998" y="745.1999999999999"/>
      <point x="-165.6" y="775.6"/>
      <point x="-208.5" y="775.6" type="curve" smooth="yes"/>
      <point x="-272.7" y="775.6"/>
      <point x="-312.1" y="739.1"/>
      <point x="-328.0" y="645.1" type="curve" smooth="yes"/>
      <point x="-330.0" y="630.1"/>
      <point x="-332.0" y="613.0999999999999"/>
    </contour>
  </outline>
</glyph>
<glyph name="uni0304" format="2">
  <unicode hex="0304"/>
  <anchor x="-185.5" y="550.0" name="_top"/>
  <anchor x="-153.1" y="756.5999999999999" name="top"/>
  <outline>
    <contour>
      <point x="-303.8" y="600.6" type="line"/>
      <point x="-51.900000000000006" y="600.6" type="line"/>
      <point x="-31.200000000000003" y="738.5999999999999" type="line"/>
      <point x="-282.2" y="738.5999999999999" type="line"/>
    </contour>
  </outline>
</glyph>
<glyph name="uni0306" format="2">
  <unicode hex="0306"/>
  <anchor x="-185.5" y="550.0" name="_top"/>
  <anchor x="-153.10000000000002" y="763.0" name="top"/>
  <outline>
    <contour>
      <point x="-179.4" y="599.5999999999999" type="curve" smooth="yes"/>
      <point x="-61.8" y="599.5999999999999"/>
      <point x="-11.9" y="639.6999999999999"/>
      <point x="1.299999999999999" y="775.6" type="curve"/>
      <point x="-95.5" y="775.6" type="line"/>
      <point x="-99.5" y="751.6"/>
      <point x="-105.39999999999999" y="727.1"/>
      <point x="-159.0" y="727.1" type="curve" smooth="yes"/>
      <point x="-197.70000000000002" y="727.1"/>
      <point x="-212.29999999999998" y="741.6"/>
      <point x="-212.3" y="759.8000000000001" type="curve" smooth="yes"/>
      <point x="-212.3" y="763.5"/>
      <point x="-212.20000000000002" y="766.8"/>
      <point x="-210.29999999999998" y="775.6" type="curve"/>
      <point x="-307.0" y="775.6" type="line"/>
      <point x="-313.09999999999997" y="747.0"/>
      <point x="-316.2" y="721.2"/>
      <point x="-316.2" y="700.7" type="curve" smooth="yes"/>
      <point x="-316.2" y="614.0999999999999"/>
      <point x="-261.40000000000003" y="599.5999999999999"/>
    </contour>
  </outline>
</glyph>
<glyph name="uni0307" format="2">
  <unicode hex="0307"/>
  <anchor x="-185.5" y="550.0" name="_top"/>
  <anchor x="-149.0" y="754.9" name="top"/>
  <outline>
    <contour>
      <point x="-179.29999999999998" y="589.5" type="curve" smooth="yes"/>
      <point x="-112.1" y="589.5"/>
      <point x="-91.1" y="654.1999999999999"/>
      <point x="-91.1" y="709.5" type="curve" smooth="yes"/>
      <point x="-91.1" y="754.1"/>
      <point x="-115.4" y="767.5"/>
      <point x="-151.7" y="767.5" type="curve" smooth="yes"/>
      <point x="-217.8" y="767.5"/>
      <point x="-240.0" y="700.5"/>
      <point x="-240.0" y="646.6" type="curve" smooth="yes"/>
      <point x="-240.0" y="602.0"/>
      <point x="-215.70000000000002" y="589.5"/>
    </contour>
  </outline>
</glyph>
<glyph name="uni0308" format="2">
  <unicode hex="0308"/>
  <anchor x="-185.5" y="550.0" name="_top"/>
  <anchor x="-154.70000000000002" y="753.1" name="top"/>
  <outline>
    <contour>
      <point x="-95.5" y="593.1" type="curve" smooth="yes"/>
      <point x="-50.9" y="593.1"/>
      <point x="-19.800000000000004" y="612.7"/>
      <point x="-9.900000000000002" y="684.2" type="curve" smooth="yes"/>
      <point x="0.8999999999999977" y="753.2"/>
      <point x="-23.5" y="771.1"/>
      <point x="-66.0" y="771.1" type="curve" smooth="yes"/>
      <point x="-109.7" y="771.1"/>
      <point x="-141.79999999999998" y="750.6"/>
      <point x="-152.6" y="678.1" type="curve" smooth="yes"/>
      <point x="-162.5" y="610.1"/>
      <point x="-135.4" y="593.1"/>
    </contour>
    <contour>
      <point x="-263.09999999999997" y="593.1" type="curve" smooth="yes"/>
      <point x="-218.5" y="593.1"/>
      <point x="-186.4" y="612.1"/>
      <point x="-176.5" y="684.2" type="curve" smooth="yes"/>
      <point x="-165.7" y="753.2"/>
      <point x="-192.79999999999998" y="771.1"/>
      <point x="-233.6" y="771.1" type="curve" smooth="yes"/>
      <point x="-277.2" y="771.1"/>
      <point x="-308.4" y="750.5"/>
      <point x="-319.2" y="677.6" type="curve" smooth="yes"/>
      <point x="-329.1" y="610.1"/>
      <point x="-304.7" y="593.1"/>
    </contour>
  </outline>
</glyph>
<glyph name="hookabovecomb" format="2">
  <unicode hex="0309"/>
  <anchor x="-185.5" y="550.0" name="_top"/>
  <anchor x="-157.75" y="806.25" name="top"/>
  <outline>
    <contour>
      <point x="-222.0" y="587.75" type="line"/>
      <point x="-101.75" y="602.0000000000001"/>
      <point x="-56.49999999999999" y="649.25"/>
      <point x="-56.49999999999999" y="717.5" type="curve" smooth="yes"/>
      <point x="-56.49999999999999" y="778.5"/>
      <point x="-104.25" y="806.25"/>
      <point x="-171.49999999999997" y="806.25" type="curve" smooth="yes"/>
      <point x="-200.0" y="806.25"/>
      <point x="-231.0" y="799.5000000000001"/>
      <point x="-247.5" y="794.25" type="curve"/>
      <point x="-261.74999999999994" y="699.5" type="line"/>
      <point x="-246.5" y="702.5"/>
      <point x="-234.75" y="704.5"/>
      <point x="-218.5" y="704.5" type="curve" smooth="yes"/>
      <point x="-192.75" y="704.5"/>
      <point x="-182.24999999999997" y="696.0"/>
      <point x="-182.24999999999997" y="683.0" type="curve" smooth="yes"/>
      <point x="-182.24999999999997" y="664.5"/>
      <point x="-197.75" y="657.5"/>
      <point x="-223.5" y="656.25" type="curve"/>
    </contour>
  </outline>
</glyph>
